<?xml version="1.0" encoding="UTF-8" standalone="no"?>
<!-- Created with Inkscape (http://www.inkscape.org/) -->

<svg
   xmlns:dc="http://purl.org/dc/elements/1.1/"
   xmlns:cc="http://creativecommons.org/ns#"
   xmlns:rdf="http://www.w3.org/1999/02/22-rdf-syntax-ns#"
   xmlns:svg="http://www.w3.org/2000/svg"
   xmlns="http://www.w3.org/2000/svg"
   xmlns:sodipodi="http://sodipodi.sourceforge.net/DTD/sodipodi-0.dtd"
   xmlns:inkscape="http://www.inkscape.org/namespaces/inkscape"
   width="241.35344mm"
   height="132.8618mm"
   viewBox="0 0 241.35344 132.8618"
   version="1.1"
   id="svg7005"
   inkscape:version="0.92.4 (5da689c313, 2019-01-14)"
   sodipodi:docname="dist_saitama.svg">
  <defs
     id="defs6999" />
  <sodipodi:namedview
     id="base"
     pagecolor="#ffffff"
     bordercolor="#666666"
     borderopacity="1.0"
     inkscape:pageopacity="0.0"
     inkscape:pageshadow="2"
     inkscape:zoom="0.35"
     inkscape:cx="224.8442"
     inkscape:cy="621.01099"
     inkscape:document-units="mm"
     inkscape:current-layer="layer1"
     showgrid="false"
     fit-margin-top="0"
     fit-margin-left="0"
     fit-margin-right="0"
     fit-margin-bottom="0"
     inkscape:window-width="1511"
     inkscape:window-height="1582"
     inkscape:window-x="1513"
     inkscape:window-y="409"
     inkscape:window-maximized="0" />
  <metadata
     id="metadata7002">
    <rdf:RDF>
      <cc:Work
         rdf:about="">
        <dc:format>image/svg+xml</dc:format>
        <dc:type
           rdf:resource="http://purl.org/dc/dcmitype/StillImage" />
        <dc:title></dc:title>
      </cc:Work>
    </rdf:RDF>
  </metadata>
  <g
     inkscape:label="レイヤー 1"
     inkscape:groupmode="layer"
     id="layer1"
     transform="translate(79.900744,-180.28071)">
    <g
       id="g6857"
       transform="matrix(1.5300268,0,0,1.5300268,434.26069,394.26038)">
      <path
         style="fill:#dcb6f2;stroke:#000000;stroke-width:0.05291667;stroke-linejoin:round"
         inkscape:connector-curvature="0"
         d="m -209.81462,-65.479168 0.79375,-1.058333 1.05833,0.529166 -0.26458,-1.058333 0.52916,-0.264583 -0.52916,-0.264584 0.52916,-0.79375 -0.52916,-0.529166 1.85208,0.529166 0.79375,-0.264583 0.26458,-0.79375 h -0.26458 l 0.52917,-0.79375 0.52916,-0.529167 0.79375,0.79375 0.52917,-0.264583 -0.26458,-0.529167 1.05833,-0.264583 -0.26458,-0.79375 0.52916,-0.529167 -1.05833,-1.058333 0.79375,-0.264584 0.52917,0.529167 1.32291,-0.264583 0.52917,1.322916 0.52917,-0.529166 -0.26459,-0.264584 0.26459,-0.264583 -0.52917,-0.79375 1.05833,-0.264583 -0.52916,-0.79375 0.26458,0.264583 0.52917,0.264583 0.79375,0.529167 -1.05834,-2.116667 1.05834,-0.264583 v -0.79375 l 0.26458,-0.79375 v -1.058333 h -0.79375 l -0.52917,-1.058334 0.52917,-0.79375 -0.52917,-0.79375 h 0.52917 l 1.05833,-1.852083 -0.79375,-0.264583 -0.26458,-0.264584 h 0.26458 l -0.79375,-1.5875 -1.05833,-0.264583 -0.26458,-0.79375 -2.11667,1.058333 0.26458,-1.058333 0.52917,-0.529167 -1.05833,0.264583 -0.79375,-1.058333 h 0.26458 l 0.26458,-0.264583 h -0.52916 v -0.529167 l 0.52916,0.529167 0.79375,-0.264584 0.79375,-2.116666 -1.05833,-1.5875 -1.5875,-0.529167 -1.05833,-0.529167 -0.52917,-0.79375 -0.52917,0.264584 v 0.529166 l 0.52917,1.058334 -0.26458,0.79375 -0.79375,1.5875 0.79375,0.529166 -3.70417,-0.264583 v 0.529167 l -1.5875,0.529166 v 0.79375 l 0.52917,-0.264583 v 0.529167 l -1.05834,0.264583 -0.52916,1.5875 -1.05834,-0.529167 -1.5875,0.529167 -1.05833,-2.116667 -0.52917,-0.264583 -1.5875,1.058333 h -1.85208 l 1.5875,2.645834 -0.26458,1.322917 -1.32292,-1.5875 -1.05833,0.529166 -0.52917,-0.264583 -1.32292,0.79375 -0.52916,1.5875 -0.52917,-1.058333 h -0.79375 v 0.529166 l -0.52917,-0.264583 0.52917,0.79375 -0.26458,0.529167 h -0.26459 l -0.26458,0.79375 0.52917,0.529166 -0.26459,1.058334 0.79375,0.79375 -0.26458,1.852083 0.79375,1.058333 -1.05833,0.264584 0.26458,0.79375 1.05833,0.529166 v 0.79375 l 2.38125,0.529167 v 0.264583 l 0.26459,1.058334 0.79375,0.529167 1.85208,2.38125 1.05833,0.264583 v 1.5875 l 0.26459,0.264583 0.52916,-0.264583 h 0.52917 l 0.26458,0.79375 0.79375,-0.79375 0.79375,0.79375 1.32292,-0.529167 0.52917,0.529167 v -0.529167 l 1.05833,-0.529166 0.79375,1.058333 z m -15.875,-17.727084 -0.52917,0.529167 0.52917,0.264583 0.52916,-0.264583 z"
         id="path3035" />
      <path
         style="fill:#f6bad3;stroke:#000000;stroke-width:0.05291667;stroke-linejoin:round"
         inkscape:connector-curvature="0"
         d="m -224.10212,-53.837501 1.05833,-0.529167 1.05833,-0.264583 -0.26458,-0.529167 1.85208,-0.79375 0.79375,-1.322916 h 0.79375 l 0.26459,0.264583 1.05833,0.529167 -0.79375,0.264583 v 0.529167 l 2.11667,-0.264584 0.26458,0.79375 0.79375,-0.264583 0.26458,-1.852083 v -0.264584 l 1.85209,-1.5875 0.26458,-1.322917 h 0.79375 l 1.5875,-0.264583 2.64583,0.264583 1.5875,-0.529166 0.79375,0.529166 h 0.26459 l 1.05833,1.058334 h 1.85208 l 0.52917,0.79375 1.32292,-0.529167 0.52916,0.264583 v 1.322917 l 1.05834,-0.529166 v -0.529167 h 1.05833 l 0.79375,-1.322917 v -0.529167 l -1.32292,-1.852083 0.79375,-0.529167 h 0.52917 l 1.05833,-0.79375 h 0.52917 l 1.05833,1.5875 2.38125,0.264584 0.52917,-0.529167 h 1.5875 l 0.79375,-0.264583 v -0.79375 l 0.52917,0.79375 -0.52917,1.5875 v 0.529166 l 0.79375,0.79375 1.5875,-1.322916 1.05833,0.79375 1.32292,0.79375 0.26458,-0.529167 2.11667,-0.529167 0.26458,0.79375 -0.52916,0.79375 0.52916,1.058334 1.5875,-0.529167 0.79375,0.264584 -0.79375,-1.852084 0.52917,-3.96875 -0.52917,-0.79375 v -1.058333 l 0.26459,-2.116667 1.32291,-3.175 -0.26458,-0.79375 -1.05833,-4.233334 -2.11667,-3.175 -1.5875,-2.910416 -1.85208,-1.322917 -0.52917,0.264583 -1.85208,-0.529166 0.52916,0.79375 0.79375,0.264583 -0.52916,1.058333 v 1.852084 l 0.52916,-0.264584 0.26459,0.79375 h 0.79375 l -1.5875,1.058334 -0.52917,-0.264584 h -1.05833 l -0.52917,-1.058333 -2.11667,-0.529167 v -1.058333 l 1.85209,-1.322917 -1.05834,-1.322916 -1.05833,-0.264584 0.26458,-0.79375 v -1.322917 l 0.52917,0.264584 1.5875,-2.116667 0.26458,0.264583 0.79375,-0.264583 0.52917,-0.529167 -1.05833,-0.529166 0.26458,-1.852084 -1.85208,-2.116666 0.52916,-1.058334 -0.52916,-3.175 0.52916,-1.5875 -0.26458,-0.79375 -1.05833,-1.058331 -0.26459,1.322914 -0.52916,0.264584 -0.26459,-0.529167 -2.91041,1.852084 0.79375,1.322916 v 0.79375 l -0.52917,0.264584 0.26458,1.058333 -1.05833,-0.529167 -0.52917,0.529167 h -1.32291 l -0.26459,0.79375 h -1.85208 v 0.529167 l -2.38125,-0.529167 -0.26458,0.264583 -0.79375,-0.79375 -0.52917,-0.264583 -0.79375,1.5875 1.5875,0.529167 1.05833,1.5875 -0.79375,2.116666 -0.79375,0.264584 -0.52916,-0.529167 v 0.529167 h 0.52916 l -0.26458,0.264583 h -0.26458 l 0.79375,1.058333 1.05833,-0.264583 -0.52917,0.529167 -0.26458,1.058333 2.11667,-1.058333 0.26458,0.79375 1.05833,0.264583 0.79375,1.5875 h -0.26458 l 0.26458,0.264584 0.79375,0.264583 -1.05833,1.852083 h -0.52917 l 0.52917,0.79375 -0.52917,0.79375 0.52917,1.058334 h 0.79375 v 1.058333 l -0.26458,0.79375 v 0.79375 l -1.05834,0.264583 1.05834,2.116667 -0.79375,-0.529167 -0.52917,-0.264583 -0.26458,-0.264583 0.52916,0.79375 -1.05833,0.264583 0.52917,0.79375 -0.26459,0.264583 0.26459,0.264584 -0.52917,0.529166 -0.52917,-1.322916 -1.32291,0.264583 -0.52917,-0.529167 -0.79375,0.264584 1.05833,1.058333 -0.52916,0.529167 0.26458,0.79375 -1.05833,0.264583 0.26458,0.529167 -0.52917,0.264583 -0.79375,-0.79375 -0.52916,0.529167 -0.52917,0.79375 h 0.26458 l -0.26458,0.79375 -0.79375,0.264583 -1.85208,-0.529166 0.52916,0.529166 -0.52916,0.79375 0.52916,0.264584 -0.52916,0.264583 0.26458,1.058333 -1.05833,-0.529166 -0.79375,1.058333 h -0.52917 l -0.79375,-1.058333 -1.05833,0.529166 v 0.529167 l -0.52917,-0.529167 -1.32292,0.529167 -0.79375,-0.79375 -0.79375,0.79375 -0.26458,-0.79375 h -0.52917 l -0.52916,0.264583 -0.26459,-0.264583 v -1.5875 l -1.05833,-0.264583 -1.85208,-2.38125 -0.79375,-0.529167 -0.26459,-1.058334 v -0.264583 l -2.38125,-0.529167 v -0.79375 l -1.05833,-0.529166 -0.26458,-0.79375 1.05833,-0.264584 -0.79375,-1.058333 0.26458,-1.852083 -0.79375,-0.79375 0.26459,-1.058334 -0.52917,-0.529166 0.26458,-0.79375 h 0.26459 l 0.26458,-0.529167 -0.52917,-0.79375 -0.52916,0.264583 -0.52917,-0.264583 0.52917,-0.529167 0.52916,0.529167 0.52917,0.264583 v -0.529166 h 0.79375 l 0.52917,1.058333 0.52916,-1.5875 1.32292,-0.79375 0.52917,0.264583 1.05833,-0.529166 1.32292,1.5875 0.26458,-1.322917 -1.5875,-2.645834 h 1.85208 l 1.5875,-1.058333 0.52917,0.264583 1.05833,2.116667 1.5875,-0.529167 1.05834,0.529167 0.52916,-1.5875 1.05834,-0.264583 v -0.529167 l -0.52917,0.264583 v -0.79375 l 1.5875,-0.529166 v -0.529167 l 3.70417,0.264583 -0.79375,-0.529166 0.79375,-1.5875 0.26458,-0.79375 -0.52917,-1.058334 -0.52916,-0.79375 -1.5875,0.79375 -1.32292,-1.322916 -0.52917,-0.79375 -1.5875,0.264583 v -3.439584 l -1.5875,-0.264583 -1.5875,0.79375 -2.91041,-1.322917 0.52916,-0.529166 -0.26458,-1.058338 1.05833,-0.52916 0.79375,0.79375 0.52917,-0.52917 0.26458,0.52917 1.5875,0.52916 1.85209,1.058338 v -0.529167 l 1.05833,-0.529171 -0.52917,-0.79375 0.52917,-0.52916 1.5875,0.79375 v 0.52916 l 0.79375,-0.79375 0.79375,0.52917 0.79375,-0.52917 -0.79375,-2.11666 2.11667,0.52916 0.52916,-1.05833 1.5875,1.5875 1.05834,-0.26458 0.52916,1.32291 0.52917,-0.26458 1.05833,1.05833 0.26459,-0.79375 h 0.52916 l 0.26459,-0.52916 -0.26459,-0.79375 0.26459,0.26458 -0.52917,-0.26458 1.05833,-0.26459 0.79375,0.52917 0.26459,-0.26458 0.26458,0.26458 -0.52917,0.26458 1.05834,1.05834 h 0.79375 l 0.52916,0.793748 0.52917,-0.529168 0.26458,-2.38125 h 0.52917 l 0.26458,-0.79375 -0.26458,0.52917 -0.26458,-0.52917 h 0.79375 l -1.05834,-1.5875 -0.79375,-3.175 -0.52916,0.26458 v 1.05834 l -0.52917,0.26458 -2.91042,-1.05833 h -1.85208 l -0.52917,-0.52917 -0.26458,-2.91042 v -1.05833 l -1.85208,-2.11667 -0.26459,-1.32291 -1.05833,-1.5875 -0.52917,-1.05834 -1.05833,-3.70416 0.52917,-2.64584 -0.79375,-1.05833 v -0.26458 l -0.26459,-0.79375 -0.79375,0.52916 -0.52916,-0.26458 -0.26459,-1.05833 -1.32291,0.26458 -0.52917,-0.26458 0.52917,-0.52917 -0.52917,-0.52917 -1.32292,0.52917 v 2.38125 l -2.91041,0.26458 -0.52917,1.5875 -1.85208,-1.85208 -1.32292,-1.32292 -1.5875,-0.79375 -7.67292,3.175 -4.49791,-0.26458 h -0.26459 l -3.96875,0.52917 -2.64583,-1.05834 -2.11667,-2.11666 -1.05833,-0.26459 -0.52917,-1.05833 -1.05833,-1.05833 -2.38125,-0.79375 -1.05833,-1.5875 -0.79375,-1.05834 -1.05834,-0.26458 -1.32291,-1.05833 -0.52917,0.26458 -0.52917,-0.52917 h -0.52916 l -0.79375,1.85209 -1.5875,0.52916 v 0.26459 1.05833 l -1.05834,0.26458 -1.5875,-0.79375 -0.52916,-1.5875 -0.79375,0.26459 -2.64584,-0.79375 -0.79375,-0.26459 -0.79375,-0.26458 v 1.32292 l -1.5875,-0.52917 -1.32291,0.26458 -1.05834,-0.52916 -1.5875,-1.5875 -1.5875,0.26458 v -0.52917 l -0.79375,-0.52916 h -1.05833 l -3.43959,-1.85209 -0.26458,-0.26458 -0.26458,1.5875 -0.79375,0.26458 0.52916,0.79375 -1.32291,1.5875 0.52916,0.26459 v 0.79375 l 0.26459,0.52916 1.32291,0.26459 -0.79375,0.52916 h -0.79375 l -2.91041,2.38125 -0.26459,-0.26458 -1.05833,1.05833 0.26458,0.52917 -0.52916,1.05833 0.52916,0.26459 v 0.52916 l -0.79375,0.52917 -0.52916,-1.05833 -1.5875,-0.52917 0.52916,1.32292 -1.5875,1.05833 h -0.52916 l -0.79375,0.79375 h -0.52917 l -0.26458,-0.26458 -0.26459,0.79375 -0.52916,0.26458 -0.26459,1.05833 0.26459,0.26459 -0.26459,0.52916 0.26459,0.52917 -0.26459,1.05833 h -1.05833 l -0.26458,0.52917 0.52916,1.5875 0.79375,0.26458 -0.52916,0.79375 h -0.79375 l -0.79375,1.5875 h -0.26459 l -0.26458,1.05834 2.11667,1.32291 1.32291,-0.52916 0.79375,-0.26459 -0.26458,-1.05833 0.79375,-1.05833 1.05833,-0.26459 0.79375,-1.05833 0.79375,0.26458 1.5875,-0.79375 1.5875,0.26459 0.79375,-0.79375 0.52917,-0.26459 -0.52917,-1.85208 1.5875,-2.11667 -0.52916,-0.79375 0.52916,-0.52916 1.05834,-1.85209 h -0.79375 v -0.52916 h 0.52916 l 0.79375,-1.32292 1.85209,-0.52917 1.32292,0.26459 v 0.52916 l 0.52916,-0.26458 0.26459,-0.26458 0.26458,2.11666 0.52917,-0.52916 0.79375,0.26458 v 1.05833 0.79375 l -2.11667,1.05834 -0.26458,0.52916 3.70416,2.64584 0.79375,0.26458 0.26459,-0.26458 0.79375,0.52916 -0.52917,1.05834 h -1.05833 l -1.85209,1.5875 -2.91041,0.52916 -0.52917,0.52917 1.32292,0.26458 1.32291,-0.52916 1.85209,0.52916 0.26458,2.38125 1.05833,0.26459 3.96875,-0.26459 v 0.52917 l 0.79375,-0.26458 1.5875,-0.26459 0.52917,0.26459 -0.26458,0.79375 -1.5875,1.05833 h 1.85208 l 1.05833,-0.79375 v 1.05833 l 0.52917,-0.52916 1.5875,-0.52917 1.5875,0.79375 -0.26458,0.79375 1.32291,1.5875 0.79375,-1.32292 0.79375,0.52917 -0.26458,0.79375 h 0.52917 l 0.26458,0.52917 0.79375,-0.26459 0.26458,-2.38125 1.85209,0.52917 h 2.11666 l 1.05834,0.79375 0.52916,-1.05833 -1.32291,3.175 0.26458,2.91041 1.05833,2.38125 -0.52916,0.26459 0.52916,1.32291 -1.5875,-0.26458 -0.79375,1.058334 -1.32291,-0.793754 -0.52917,0.529171 -3.175,-0.529171 0.26458,2.116671 0.79375,0.529167 -0.26458,1.852083 0.79375,0.79375 0.79375,0.79375 1.32292,0.264584 1.32291,0.79375 v 0.529166 l 1.32292,1.322917 h -0.52917 l 0.26459,0.529167 0.52916,0.264583 -1.5875,0.79375 h -1.32291 l -1.32292,1.322917 0.26458,0.79375 0.26459,-0.264584 0.26458,0.79375 1.05833,0.79375 -0.79375,0.529167 0.52917,0.79375 -1.5875,1.058334 0.79375,0.79375 -0.79375,0.264583 v 0.79375 l -2.38125,-1.058333 -0.52917,0.264583 -0.26458,1.058333 0.52917,0.79375 h -0.79375 v 0.529167 h -0.52917 l -0.52917,0.529167 h -0.79375 v 1.322916 l -1.85208,0.79375 -2.38125,0.529167 -0.79375,-0.264583 0.52917,-1.5875 -1.5875,-2.116667 h -1.05834 l -0.26458,0.529167 -0.52917,-0.264584 v -0.264583 l -1.5875,-0.79375 -0.26458,-1.5875 -0.79375,-1.058333 h -0.79375 l -1.32292,-1.587501 v -0.264583 l -1.32291,-0.79375 -0.26459,-0.79375 -2.91042,-0.529167 -0.26458,1.322917 -1.85208,2.645834 -1.85209,0.264583 -0.79375,0.79375 -2.11666,0.529167 -3.175,1.322916 -1.05834,-1.322916 0.52917,-2.645834 -1.32292,-2.116667 -0.26458,-1.058333 0.79375,-2.910417 h -0.26458 l 0.26458,-0.264583 v -0.79375 l 1.05833,-1.852083 h 0.79375 0.52917 l 0.79375,1.5875 1.32292,-0.529167 4.23333,1.058333 0.79375,-0.264583 1.32292,1.058333 v -1.058333 l 0.26458,-0.264583 -1.5875,-1.852084 -1.5875,-2.910416 -3.70417,-1.322917 v -0.79375 l -0.79375,-0.529168 v -0.79375 l -0.79375,-1.5875 -1.05833,-0.52917 -1.05833,0.52917 -1.32292,-1.85208 -0.26458,0.52916 -1.5875,0.52917 -0.52917,-0.26458 -1.32292,0.79375 -0.52916,-0.52917 v -1.85208 l -1.32292,-0.26459 -1.32292,0.79375 -2.11666,-1.5875 -0.52917,-0.79375 h -1.32292 v -0.52916 l 0.52917,-1.5875 -2.11667,0.52916 -0.79375,-1.85208 -1.32291,-0.79375 v -0.52917 -0.52916 l -0.79375,-1.32292 -0.79375,-0.26458 -0.52917,0.26458 -0.52917,2.38125 v 0.79375 l -1.85208,1.85208 -1.5875,1.05834 0.26458,1.32291 1.32292,1.32292 0.79375,1.32292 3.175,1.5875 -0.26458,1.05833 -0.26459,0.52917 1.85209,1.058331 0.26458,0.529167 2.38125,1.058333 h 0.79375 l 2.11667,1.852084 1.5875,-0.529167 0.26458,-0.529167 h 0.79375 l 0.79375,0.529167 0.26458,0.264583 -0.52916,0.529167 0.26458,1.058333 -1.32292,1.322917 1.32292,1.322917 -1.05833,2.645833 -2.11667,1.322917 -1.85208,0.264583 -0.52917,-2.116667 -2.11667,0.529167 -1.5875,-1.058333 -1.05833,0.529166 -0.52917,-0.264583 -0.52916,0.529167 -1.05834,-0.264584 -0.79375,1.5875 -1.05833,0.529167 -1.85208,-0.79375 -0.79375,0.79375 -2.91042,-1.5875 -0.52917,0.529167 h -1.85208 l -1.05833,-1.058334 -1.32292,-0.264583 -2.64583,-2.910417 -0.79375,-0.529166 v -2.910417 l 0.26458,-1.852084 -1.5875,-1.058333 -4.23333,0.79375 -0.79375,0.529167 -1.32292,-1.322917 -1.05833,-0.264583 -2.38125,0.529166 -0.79375,2.910417 -0.79375,1.058334 -0.79375,0.79375 -0.26459,0.79375 -1.05833,1.058333 -1.32292,0.264583 -0.52916,1.322917 -0.26459,2.116667 0.26459,1.058333 0.52916,0.264583 0.52917,0.79375 0.79375,0.264584 0.52917,2.116667 1.05833,0.79375 -0.26458,2.116666 -0.79375,1.322917 -0.52917,0.264583 0.26458,0.264584 -0.26458,1.058333 0.79375,0.79375 0.52917,-0.264583 1.5875,0.79375 0.52916,-0.264584 1.32292,0.529167 h 1.85208 l 1.5875,1.058333 0.26459,2.910417 2.11666,0.79375 0.79375,1.322917 1.32292,-0.529167 h 0.26458 l 0.79375,0.529167 1.05834,-0.264583 1.05833,-0.529167 1.05833,0.529167 0.52917,1.058333 0.26458,-0.264583 1.05834,0.264583 1.05833,1.5875 1.05833,0.264583 0.79375,0.79375 0.26459,0.264584 0.52916,-1.058334 1.85209,-1.058333 1.85208,0.79375 0.79375,-0.529167 1.5875,-0.529166 v -0.79375 l 0.26458,-0.79375 v -0.529167 l 2.91042,-1.852084 1.5875,-1.058333 0.79375,0.79375 2.11667,-0.529167 1.32291,-2.116666 1.05834,-0.264584 2.38125,1.5875 1.5875,1.5875 2.64583,1.322917 0.79375,-0.264583 v -0.264584 h 1.05833 l 1.05834,0.79375 1.32291,0.529167 6.08542,0.529167 1.5875,1.058333 0.52917,1.058334 h 0.26458 l 3.175,1.322916 1.85209,0.264584 0.52916,-0.79375 0.79375,-0.264584 2.38125,1.852084 1.05834,-0.79375 0.52916,0.79375 1.32292,-0.264584 1.05833,0.264584 2.11667,-0.529167 0.52917,-0.264583 0.52916,0.79375 0.79375,-0.264584 0.52917,0.529167 h 1.05833 l 0.26459,1.852083 1.32291,-0.264583 0.26459,1.058333 -0.26459,0.529167 1.32292,2.910417 0.79375,0.529166 0.26458,0.264584 1.85209,-0.529167 0.52916,0.264583 2.64584,0.264584 -0.26459,1.058333 0.79375,1.058334 -0.52916,0.264583 1.05833,-0.264583 0.52917,0.79375 -0.26459,0.529166 -0.26458,0.264584 0.26458,0.264583 0.52917,0.529167 1.05833,-0.264584 v 0.529167 l 0.79375,-0.264583 0.79375,-0.79375 2.11667,0.529166 0.26458,-0.264583 1.85209,0.264583 0.26458,-0.529166 0.52917,0.529166 2.11666,-0.529166 0.52917,-0.529167 1.5875,-0.529167 1.32292,-0.79375 0.79375,0.264584 0.79375,-0.264584 0.26458,0.264584 0.26458,-0.529167 1.85209,-0.529167 v -0.529167 h 1.32291 l 2.38125,-2.910416 0.79375,0.79375 -0.26458,0.79375 -1.05833,0.79375 0.79375,0.79375 v 1.322917 l -1.32292,0.79375 -1.32292,0.529166 -0.79375,1.058334 3.96875,-1.5875 -0.26458,3.175 0.26458,0.264583 1.05834,-0.264583 z m 0,-11.1125 -0.26459,1.058333 -1.32291,-0.264583 -1.05834,0.264583 -0.52916,-0.79375 -3.70417,1.5875 -2.91042,-3.96875 -0.26458,0.79375 -0.26458,-0.529167 1.32291,-0.79375 0.79375,-1.322916 1.32292,0.264583 1.05833,-0.529167 -0.26458,1.322917 0.52917,-0.529167 1.05833,0.529167 0.79375,-0.79375 h 0.52917 l -0.26459,1.058333 0.26459,-0.264583 0.79375,0.264583 -0.26459,0.529167 h 0.52917 l 0.26458,0.529167 h 0.26459 l 0.26458,0.529166 h 0.52917 v 0.79375 h 0.79375 z m -2.64584,-21.960418 0.52917,-0.264583 0.79375,1.5875 -1.32292,0.529167 v -0.264584 h -1.32291 v 0.529167 l -1.85209,-0.79375 -1.5875,-1.058333 -0.26458,0.529166 h -0.79375 l -0.26458,-0.529166 -0.52917,0.529166 -1.05833,-0.264583 v -0.264583 l -0.26459,-0.264584 h -1.05833 l -0.79375,-0.264583 0.26458,-0.264583 -0.52916,-0.79375 0.26458,-0.529167 -0.79375,-0.264583 -0.26458,-1.058334 -1.32292,-0.264583 -0.52917,-0.529167 0.26459,-0.529166 h -0.52917 l -0.52917,-1.322917 -0.52916,-0.264583 h -0.79375 l -0.26459,-1.5875 1.5875,0.529166 h 1.5875 l 1.05834,-0.264583 0.52916,-1.058333 -1.05833,-0.264584 v -0.529166 l -1.32292,0.79375 -0.26458,-1.058334 -2.11667,-2.645833 h -0.52916 l 0.26458,-0.79375 -0.52917,-2.116668 0.52917,-0.26458 h -0.79375 l 0.52917,-0.26459 -0.26459,-1.32291 0.79375,-1.05834 3.175,-1.5875 v -0.52916 h 0.52917 l 0.79375,0.52916 2.11667,3.175 1.32291,0.26459 v 0.79375 l 1.05834,1.05833 v 0.79375 l 0.52916,1.322918 1.32292,1.058333 -0.79375,1.5875 0.26458,0.79375 0.52917,0.264584 -0.52917,1.5875 0.26459,1.058333 h 0.79375 l 0.79375,1.322917 -0.26459,0.529166 0.26459,0.79375 0.52916,0.529167 0.52917,-0.264583 0.26458,0.264583 -0.52916,0.264583 1.05833,0.529167 v 0.264583 l -0.52917,0.529167 z m 14.02292,-1.5875 -1.05833,-0.264583 -1.5875,-1.058333 -1.05834,-1.852084 -1.05833,-0.79375 v -1.322916 l -2.11667,-1.058334 0.79375,-3.175 2.11667,1.058334 1.32292,2.116666 1.5875,0.264584 0.52916,1.322916 1.05834,1.058334 -0.26459,2.910416 z m -65.0875,-37.306251 0.26458,0.26458 h -0.26458 z"
         id="path3037" />
      <path
         style="fill:#ece3b4;stroke:#000000;stroke-width:0.05291667;stroke-linejoin:round"
         inkscape:connector-curvature="0"
         d="m -226.74796,-63.891668 1.05834,-0.264583 1.32291,0.264583 0.26459,-1.058333 v -0.264584 h -0.79375 v -0.79375 h -0.52917 l -0.26458,-0.529166 h -0.26459 l -0.26458,-0.529167 h -0.52917 l 0.26459,-0.529167 -0.79375,-0.264583 -0.26459,0.264583 0.26459,-1.058333 h -0.52917 l -0.79375,0.79375 -1.05833,-0.529167 -0.52917,0.529167 0.26458,-1.322917 -1.05833,0.529167 -1.32292,-0.264583 -0.79375,1.322916 -1.32291,0.79375 0.26458,0.529167 0.26458,-0.79375 2.91042,3.96875 3.70417,-1.5875 z m -30.1625,-14.552084 v -1.322916 h 0.79375 l 0.52917,-0.529167 h 0.52917 v -0.529167 h 0.79375 l -0.52917,-0.79375 0.26458,-1.058333 0.52917,-0.264583 2.38125,1.058333 v -0.79375 l 0.79375,-0.264583 -0.79375,-0.79375 1.5875,-1.058334 -0.52917,-0.79375 0.79375,-0.529167 -1.05833,-0.79375 -0.26458,-0.79375 -0.26459,0.264584 -0.26458,-0.79375 1.32292,-1.322917 h 1.32291 l 1.5875,-0.79375 -0.52916,-0.264583 -0.26459,-0.529167 h 0.52917 l -1.32292,-1.322917 v -0.529166 l -1.32291,-0.79375 -1.32292,-0.264584 -0.79375,-0.79375 -0.79375,-0.79375 0.26458,-1.852083 -0.79375,-0.529167 -0.26458,-2.116671 3.175,0.529171 0.52917,-0.529171 1.32291,0.793754 0.79375,-1.058334 1.5875,0.26458 -0.52916,-1.32291 0.52916,-0.26459 -1.05833,-2.38125 -0.26458,-2.91041 1.32291,-3.175 -0.52916,1.05833 -1.05834,-0.79375 h -2.11666 l -1.85209,-0.52917 -0.26458,2.38125 -0.79375,0.26459 -0.26458,-0.52917 h -0.52917 l 0.26458,-0.79375 -0.79375,-0.52917 -0.79375,1.32292 -1.32291,-1.5875 0.26458,-0.79375 -1.5875,-0.79375 -1.5875,0.52917 -0.52917,0.52916 v -1.05833 l -1.05833,0.79375 h -1.85208 l 1.5875,-1.05833 0.26458,-0.79375 -0.52917,-0.26459 -1.5875,0.26459 -0.79375,0.26458 v -0.52917 l -3.96875,0.26459 -1.05833,-0.26459 -0.26458,-2.38125 -1.85209,-0.52916 -1.32291,0.52916 -1.32292,-0.26458 0.52917,-0.52917 2.91041,-0.52916 1.85209,-1.5875 h 1.05833 l 0.52917,-1.05834 -0.79375,-0.52916 -0.26459,0.26458 -0.79375,-0.26458 -3.70416,-2.64584 0.26458,-0.52916 2.11667,-1.05834 v -0.79375 -1.05833 l -0.79375,-0.26458 -0.52917,0.52916 -0.26458,-2.11666 -0.26459,0.26458 -0.52916,0.26458 v -0.52916 l -1.32292,-0.26459 -1.85209,0.52917 -0.79375,1.32292 h -0.52916 v 0.52916 h 0.79375 l -1.05834,1.85209 -0.52916,0.52916 0.52916,0.79375 -1.5875,2.11667 0.52917,1.85208 -0.52917,0.26459 -0.79375,0.79375 -1.5875,-0.26459 -1.5875,0.79375 -0.79375,-0.26458 -0.79375,1.05833 -1.05833,0.26459 -0.79375,1.05833 0.26458,1.05833 -0.79375,0.26459 -1.32291,0.52916 -2.11667,-1.32291 0.26458,-1.05834 h 0.26459 l 0.79375,-1.5875 h 0.79375 l 0.52916,-0.79375 -0.79375,-0.26458 -0.52916,-1.5875 0.26458,-0.52917 h 1.05833 l 0.26459,-1.05833 -0.26459,-0.52917 0.26459,-0.52916 -0.26459,-0.26459 0.26459,-1.05833 0.52916,-0.26458 0.26459,-0.79375 0.26458,0.26458 h 0.52917 l 0.79375,-0.79375 h 0.52916 l 1.5875,-1.05833 -0.52916,-1.32292 1.5875,0.52917 0.52916,1.05833 0.79375,-0.52917 v -0.52916 l -0.52916,-0.26459 0.52916,-1.05833 -0.26458,-0.52917 1.05833,-1.05833 0.26459,0.26458 2.91041,-2.38125 h 0.79375 l 0.79375,-0.52916 -1.32291,-0.26459 -0.26459,-0.52916 v -0.79375 l -0.52916,-0.26459 1.32291,-1.5875 -0.52916,-0.79375 0.79375,-0.26458 0.26458,-1.5875 -0.79375,-0.52917 h -3.70417 l -0.79375,-0.79375 -1.5875,2.38125 -1.32291,1.32292 0.52916,0.26458 -2.11666,3.43959 -2.11667,3.96875 -2.11667,2.64583 v 1.85208 l -1.05833,0.52917 0.26458,2.91042 0.79375,1.05833 -0.26458,0.52917 v 0.52916 h -1.85208 l -0.79375,0.79375 -0.26459,3.175 -1.05833,0.26459 -0.79375,-0.52917 -0.26458,-0.79375 -0.52917,0.52917 -0.52917,-0.52917 -0.79375,0.52917 -0.79375,-0.26459 0.26459,0.52917 -0.79375,0.79375 h -0.79375 l -1.05834,1.5875 -1.32291,-0.26458 v 0.52916 0.52917 l 1.32291,0.79375 0.79375,1.85208 2.11667,-0.52916 -0.52917,1.5875 v 0.52916 h 1.32292 l 0.52917,0.79375 2.11666,1.5875 1.32292,-0.79375 1.32292,0.26459 v 1.85208 l 0.52916,0.52917 1.32292,-0.79375 0.52917,0.26458 1.5875,-0.52917 0.26458,-0.52916 1.32292,1.85208 1.05833,-0.52917 1.05833,0.52917 0.79375,1.5875 v 0.79375 l 0.79375,0.529168 v 0.79375 l 3.70417,1.322917 0.52917,-0.793751 -0.26459,-1.852084 0.52917,-0.52917 -0.26458,-1.32291 0.26458,-1.05834 -0.26458,-3.70416 -0.52917,-0.79375 0.79375,-0.79375 0.26458,0.26458 1.05834,0.52917 0.79375,-0.26459 v 0.79375 l 1.32292,1.85209 0.79375,0.79375 h 1.05833 l 3.70417,1.5875 0.52916,1.05833 0.52917,-0.26458 0.52917,0.52916 -2.38125,0.79375 -2.91042,2.645838 -1.32292,0.264583 -0.26458,0.529167 0.52917,1.852083 v 1.322917 l -0.52917,1.058333 -1.32292,0.264584 -0.26458,0.264583 v 1.058333 l -1.32292,-1.058333 -0.79375,0.264583 -4.23333,-1.058333 -1.32292,0.529167 -0.79375,-1.5875 h -0.52917 -0.79375 l -1.05833,1.852083 v 0.79375 l -0.26458,0.264583 h 0.26458 l -0.79375,2.910417 0.26458,1.058333 1.32292,2.116667 -0.52917,2.645834 1.05834,1.322916 3.175,-1.322916 2.11666,-0.529167 0.79375,-0.79375 1.85209,-0.264583 1.85208,-2.645834 0.26458,-1.322917 2.91042,0.529167 0.26459,0.79375 1.32291,0.79375 v 0.264583 l 1.32292,1.587501 h 0.79375 l 0.79375,1.058333 0.26458,1.5875 1.5875,0.79375 v 0.264583 l 0.52917,0.264584 0.26458,-0.529167 h 1.05834 l 1.5875,2.116667 -0.52917,1.5875 0.79375,0.264583 2.38125,-0.529167 z m 70.11459,0.264584 1.5875,-1.058334 h -0.79375 l -0.26459,-0.79375 -0.52916,0.264584 v -1.852084 l 0.52916,-1.058333 -0.79375,-0.264583 -0.52916,-0.79375 1.85208,0.529166 0.52917,-0.264583 -1.85209,-3.704167 -0.26458,-1.322917 -0.52917,0.529167 -0.79375,0.264583 -0.26458,-0.264583 -1.5875,2.116667 -0.52917,-0.264584 v 1.322917 l -0.26458,0.79375 1.05833,0.264584 1.05834,1.322916 -1.85209,1.322917 v 1.058333 l 2.11667,0.529167 0.52917,1.058333 h 1.05833 z m -39.95209,-6.879167 1.32292,-0.529167 -0.79375,-1.5875 -0.52917,0.264583 -1.5875,-1.058333 0.52917,-0.529167 v -0.264583 l -1.05833,-0.529167 0.52916,-0.264583 -0.26458,-0.264583 -0.52917,0.264583 -0.52916,-0.529167 -0.26459,-0.79375 0.26459,-0.529166 -0.79375,-1.322917 h -0.79375 l -0.26459,-1.058333 0.52917,-1.5875 -0.52917,-0.264584 -0.26458,-0.79375 0.79375,-1.5875 -1.32292,-1.058333 -0.52916,-1.322918 v -0.79375 l -1.05834,-1.05833 V -103.05 l -1.32291,-0.26459 -2.11667,-3.175 -0.79375,-0.52916 h -0.52917 v 0.52916 l -3.175,1.5875 -0.79375,1.05834 0.26459,1.32291 -0.52917,0.26459 h 0.79375 l -0.52917,0.26458 0.52917,2.116668 -0.26458,0.79375 h 0.52916 l 2.11667,2.645833 0.26458,1.058334 1.32292,-0.79375 v 0.529166 l 1.05833,0.264584 -0.52916,1.058333 -1.05834,0.264583 h -1.5875 l -1.5875,-0.529166 0.26459,1.5875 h 0.79375 l 0.52916,0.264583 0.52917,1.322917 h 0.52917 l -0.26459,0.529166 0.52917,0.529167 1.32292,0.264583 0.26458,1.058334 0.79375,0.264583 -0.26458,0.529167 0.52916,0.79375 -0.26458,0.264583 0.79375,0.264583 h 1.05833 l 0.26459,0.264584 v 0.264583 l 1.05833,0.264583 0.52917,-0.529166 0.26458,0.529166 h 0.79375 l 0.26458,-0.529166 1.5875,1.058333 1.85209,0.79375 v -0.529167 h 1.32291 z m 14.02292,-3.439584 0.26458,-0.79375 0.26459,-2.910416 -1.05834,-1.058334 -0.52916,-1.322916 -1.5875,-0.264584 -1.32292,-2.116666 -2.11667,-1.058334 -0.79375,3.175 2.11667,1.058334 v 1.322916 l 1.05833,0.79375 1.05834,1.852084 1.5875,1.058333 z m 8.73125,-4.233333 0.79375,-1.5875 0.52917,0.264583 0.79375,0.79375 0.26458,-0.264583 2.38125,0.529167 v -0.529167 h 1.85208 l 0.26459,-0.79375 h 1.32291 l 0.52917,-0.529167 1.05833,0.529167 -0.26458,-1.058333 0.52917,-0.264584 v -0.79375 l -0.79375,-1.322916 2.91041,-1.852084 0.26459,0.529167 0.52916,-0.264584 0.26459,-1.322914 -2.38125,-2.91042 h -0.79375 l 0.26458,0.52917 0.26458,-0.52917 -0.26458,0.79375 h -0.52917 l -0.26458,2.38125 -0.52917,0.529168 -0.52916,-0.793748 h -0.79375 l -1.05834,-1.05834 0.52917,-0.26458 -0.26458,-0.26458 -0.26459,0.26458 -0.79375,-0.52917 -1.05833,0.26459 0.52917,0.26458 -0.26459,-0.26458 0.26459,0.79375 -0.26459,0.52916 h -0.52916 l -0.26459,0.79375 -1.05833,-1.05833 -0.52917,0.26458 -0.52916,-1.32291 -1.05834,0.26458 -1.5875,-1.5875 -0.52916,1.05833 -2.11667,-0.52916 0.79375,2.11666 -0.79375,0.52917 -0.79375,-0.52917 -0.79375,0.79375 v -0.52916 l -1.5875,-0.79375 -0.52917,0.52916 0.52917,0.79375 -1.05833,0.529171 v 0.529167 l -1.85209,-1.058338 -1.5875,-0.52916 -0.26458,-0.52917 -0.52917,0.52917 -0.79375,-0.79375 -1.05833,0.52916 0.26458,1.058338 -0.52916,0.529166 2.91041,1.322917 1.5875,-0.79375 1.5875,0.264583 v 3.439584 l 1.5875,-0.264583 0.52917,0.79375 1.32292,1.322916 1.5875,-0.79375 0.52916,0.79375 v -0.529166 l 0.52917,-0.264584 0.52917,0.79375 z m -116.41667,-6.879167 1.5875,1.058333 -0.26458,1.852084 v 2.910417 l 0.79375,0.529166 2.64583,2.910417 1.32292,0.264583 1.05833,1.058334 h 1.85208 l 0.52917,-0.529167 2.91042,1.5875 0.79375,-0.79375 1.85208,0.79375 1.05833,-0.529167 0.79375,-1.5875 1.05834,0.264584 0.52916,-0.529167 0.52917,0.264583 1.05833,-0.529166 1.5875,1.058333 2.11667,-0.529167 0.52917,2.116667 1.85208,-0.264583 2.11667,-1.322917 1.05833,-2.645833 -1.32292,-1.322917 1.32292,-1.322917 -0.26458,-1.058333 0.52916,-0.529167 -0.26458,-0.264583 -0.79375,-0.529167 h -0.79375 l -0.26458,0.529167 -1.5875,0.529167 -2.11667,-1.852084 h -0.79375 l -2.38125,-1.058333 -0.26458,-0.529167 -1.85209,-1.058331 0.26459,-0.52917 0.26458,-1.05833 -3.175,-1.5875 -0.79375,-1.32292 -1.32292,-1.32292 -0.26458,-1.32291 -1.85208,-1.05834 -0.79375,0.52917 h -1.5875 l -1.5875,1.05833 -2.38125,0.79375 -1.32292,1.5875 -1.5875,0.52917 -0.52917,1.5875 -1.32291,1.32292 -0.26459,0.79375 -0.26458,0.26458 z m 42.59792,-26.193751 v 0.26458 h 0.26458 z"
         id="path3039" />
      <path
         style="fill:#b6f2dc;stroke:#000000;stroke-width:0.05291667;stroke-linejoin:round"
         inkscape:connector-curvature="0"
         d="m -272.52087,-94.318752 v -1.322917 l -0.52917,-1.852083 0.26458,-0.529167 1.32292,-0.264583 2.91042,-2.645838 2.38125,-0.79375 -0.52917,-0.52916 -0.52917,0.26458 -0.52916,-1.05833 -3.70417,-1.5875 h -1.05833 l -0.79375,-0.79375 -1.32292,-1.85209 v -0.79375 l -0.79375,0.26459 -1.05834,-0.52917 -0.26458,-0.26458 -0.79375,0.79375 0.52917,0.79375 0.26458,3.70416 -0.26458,1.05834 0.26458,1.32291 -0.52917,0.52917 0.26459,1.852084 -0.52917,0.793751 1.5875,2.910416 1.5875,1.852084 1.32292,-0.264584 z"
         id="path3041" />
      <path
         style="fill:none;stroke:#000000;stroke-width:0.05291667;stroke-linecap:round;stroke-linejoin:round"
         inkscape:connector-curvature="0"
         d="m -257.96879,-111.51667 1.5875,-1.05833 v -3.43959 l -0.52917,-0.26458 0.79375,-1.05833 -0.52916,-1.05834 -0.79375,0.26459 -0.52917,-0.79375 -0.52917,0.26458 -0.79375,-0.79375 v -0.26458 l 0.79375,-1.05834 1.32292,-0.79375 -0.52917,-0.52916 1.32292,-0.52917 0.79375,0.79375 1.05833,-0.52917 -0.26458,-0.52916 0.52917,-0.52917 0.52916,0.52917 -0.52916,-1.5875 0.79375,-2.11667 -0.26459,-1.05833 0.52917,-0.52917 -0.26458,-1.85208 0.26458,-1.5875 -1.05833,-1.05834 m -11.1125,-0.79375 -0.26459,1.05834 h 0.52917 l 0.26458,1.05833 -0.79375,1.32292 -1.05833,-0.26459 -0.26458,0.26459 h -0.52917 l -0.26458,-0.26459 0.52916,-0.26458 -0.79375,-0.26458 v -0.52917 0.52917 h -0.79375 l -0.26458,1.05833 -0.52917,-0.26458 -0.52916,0.26458 -1.5875,1.05833 -0.26459,1.32292 m 33.07292,1.85208 -0.52917,0.26459 -2.38125,-0.52917 -0.26458,0.26458 v 0.79375 l -0.52917,0.52917 0.79375,0.26458 -0.26458,0.52917 0.26458,1.85208 0.26459,0.26459 h 1.32291 v 1.05833 l 0.52917,0.26458 -0.79375,0.52917 v 2.11667 l -1.32292,-0.26459 v 1.5875 l 0.52917,0.52917 1.05833,1.32292 -0.79375,1.05833 h 0.79375 l -0.79375,1.05833 0.52917,0.52917 1.05833,-1.05833 h 1.05834 l 1.32291,0.79375 0.26459,-0.52917 2.11666,1.85208 1.05834,-0.26458 -0.52917,1.32292 1.85208,1.32291 1.05834,-2.38125 -0.26459,-0.26458 -0.52916,-0.26458 0.26458,-0.26459 -0.52917,-0.26458 1.5875,-0.79375 0.26459,-1.5875 2.91041,1.32292 0.26459,-0.79375 0.52916,-0.79375 -1.32291,-1.05834 -0.26459,-0.79375 h -1.05833 l -0.26458,-2.38125 -2.11667,-0.52916 v -1.32292 l -1.32292,-1.5875 v -0.52917 h 1.32292 v -0.52916 l 0.52917,-0.52917 -0.79375,-1.5875 m 15.08125,-0.79375 -1.05834,0.79375 v 1.05833 l 1.32292,2.38125 -0.52917,0.79375 -0.26458,1.32292 -2.38125,-1.05833 -0.26458,2.38125 h -1.85209 v 1.32291 h -0.26458 v 0.26459 l 0.52917,0.52916 h -4.7625 l -1.05834,-0.52916 -0.52916,-0.79375 -0.26459,1.32291 m -13.75833,-2.64583 0.26458,0.79375 v -0.79375 h 0.26459 -0.52917 m 37.30625,1.32292 -2.38125,1.5875 0.26458,1.85208 h -1.05833 l -1.32292,0.79375 -0.52916,0.52917 v 0.79375 l 0.79375,0.52916 -2.64584,1.05834 -0.52916,-0.26459 V -109.4 l -0.79375,1.5875 h -0.52917 l -0.79375,0.52916 0.26458,0.79375 -2.38125,-0.52916 -1.05833,-0.79375 -0.52917,0.26458 v 0.79375 l -1.05833,1.32292 -1.05833,-0.79375 -0.52917,1.05833 -0.26458,-0.79375 -0.52917,0.79375 h -2.11667 l 0.52917,1.32292 0.26458,1.05833 h -1.05833 l 1.5875,2.64583 v 0.793754 l 0.52917,0.529167 1.85208,0.529167 0.79375,-0.79375 1.32292,-0.264584 m 16.13958,-11.906254 h -0.79375 l -0.26458,1.5875 -0.79375,-0.52916 -0.79375,0.79375 -0.79375,-0.26459 -0.79375,1.32292 0.26458,0.79375 -0.52917,-0.26458 v 0.52916 l 0.26459,1.05834 h 0.52916 0.79375 l 0.52917,0.52916 0.26458,0.79375 -0.52916,0.52917 -0.26459,0.79375 m -35.98333,-7.9375 0.79375,1.05833 -1.05833,0.26459 0.52916,2.38125 -0.26458,0.26458 1.85208,0.52917 m -3.175,2.11666 v -0.26458 l -0.26458,-0.26458 -1.32292,-0.26459 h -0.52916 l 0.79375,-2.38125 v -0.79375 h -1.05834 l -1.5875,-1.5875 -0.79375,0.26459 m 19.05,-2.38125 v 0.79375 l 1.5875,1.85208 0.26459,-0.26458 0.26458,0.26458 h 1.05833 l -0.26458,1.32292 -1.05833,0.26458 -0.52917,1.5875 1.5875,0.26458 1.05833,1.32292 m 1.32292,5.02708 -0.79375,0.793754 v 0.79375 l -1.05833,0.264584 0.52916,1.322917 v 0.529166 l -1.05833,0.529167 0.52917,0.79375 -0.52917,0.79375 -1.32292,-1.322917 -2.38125,0.264584 -1.05833,1.322916 -1.32292,0.264584 0.26459,1.058333 m 7.40833,-6.614584 -0.79375,-1.058334 -1.5875,-0.26458 -2.64583,-2.11667 -0.52917,0.26458 0.52917,0.79375 -0.79375,0.52917 0.26458,0.52917 1.32292,1.587498 h -1.05834 l 0.26459,0.529166 -0.52917,-0.79375 -0.79375,0.79375 -0.79375,-0.529166 h -2.11667 m 12.43542,0.79375 1.05833,0.264583 m -0.79375,3.175 v 0.264584 l -0.79375,-0.529167 h -1.5875 l 0.26459,0.79375 h -0.52917 l 0.52917,1.322917 -0.26459,0.79375 0.52917,0.79375 h -1.32292 v -0.264584 -0.529166 l -0.52916,-0.529167 -0.26459,0.79375 -2.64583,-0.264583 -0.26458,1.058333 0.52916,1.322917 -1.05833,1.322916 0.26458,1.5875 m -14.02291,-6.085416 -3.175,1.852083 -1.5875,0.529167 -1.05834,-0.264584 -0.79375,0.529167 m 35.71875,3.175 -1.05833,-1.322917 m -23.01875,1.5875 -2.38125,1.852084 -1.85208,0.529167 -0.26459,-1.058334 1.05834,-0.264583 0.26458,-0.79375 -1.05833,-0.264584 0.79375,-0.264583 -2.38125,0.529167 -0.26459,0.529166 0.79375,2.381251 -1.5875,1.852083 0.52917,0.79375 -1.05833,0.264583 -3.175,1.5875 -0.52917,-1.322916 -0.52917,0.264583 -0.26458,0.79375 0.26458,-0.79375 h 0.26459 l 0.52916,1.5875 -0.52916,0.264583 h 1.32291 l 0.26459,1.322917 0.52916,1.058333 0.52917,-0.264583 1.32292,-0.79375 0.26458,0.529167 0.52917,0.264583 v 0.264583 l 1.85208,1.058334 v 1.058333 l 1.32292,-0.529167 0.79375,0.79375 1.5875,-1.322916 -0.79375,2.645833 1.05833,-1.058333 0.52917,1.852083 -0.79375,1.322917 0.79375,1.058333 v 0.79375 h 0.52916 l 0.79375,1.322917 0.26459,0.264583 m -7.40834,-19.314584 -0.52916,-0.529166 -0.52917,0.264583 -0.79375,1.322917 -1.05833,0.264583 -0.26459,-1.058333 -2.11666,0.264583 -0.52917,1.5875 -0.79375,-0.264583 -0.52917,0.529167 -2.11666,2.116666 v 0.529167 l 0.79375,0.264583 1.32291,-0.79375 1.5875,1.322917 m 56.09167,-3.704167 -0.79375,-1.058333 -2.64583,-1.5875 v 1.852083 l 0.26458,0.529167 0.52917,0.264583 -0.52917,0.529167 h -1.32292 l -0.26458,0.529167 -1.05833,-0.79375 v -0.529167 l -1.05834,0.529167 m -27.51666,0.529166 0.26458,-0.79375 -1.32292,-1.058333 m 0.26459,1.322917 0.52916,0.79375 -0.52916,-0.79375 m -24.60625,2.116666 -1.5875,1.322917 h -0.79375 l -0.79375,-0.529167 m -6.87917,3.704167 0.52917,2.116667 -0.26459,0.79375 0.52917,0.264583 -0.79375,1.058333 0.79375,0.264584 v 0.529166 l 0.79375,-0.264583 0.26458,0.529167 2.38125,-0.79375 h 1.05834 l 0.26458,-0.79375 1.32292,-0.79375 0.79375,0.79375 1.05833,-0.264584 h 1.05833 l 0.79375,0.264584 1.32292,-1.058334 0.52917,1.058334 -0.79375,0.79375 1.05833,0.264583 0.26458,0.529167 2.11667,-1.322917 -0.26458,-1.058333 1.85208,-1.5875 v -0.529167 m 19.57917,1.322917 h -0.26459 l -0.52916,0.79375 0.52916,0.264583 0.26459,0.529167 v 1.322916 l -3.96875,1.058334 v 0.79375 l -1.05834,0.529167 2.91042,-1.322917 v 0.79375 l -0.52917,0.264583 -0.26458,1.322917 m 2.64583,-5.291667 h -0.52916 l -0.26459,0.529167 -1.85208,-0.529167 -0.52917,-0.79375 0.26459,-0.79375 -0.26459,-0.264583 -1.05833,0.529166 v 1.322917 l -0.79375,0.264583 -1.5875,2.116667 0.52917,0.264584 -0.52917,-0.264584 -1.32292,1.058334 -2.64583,1.058333 0.79375,-0.264583 0.52917,0.79375 1.5875,-0.79375 0.26458,0.529166 -1.05833,0.79375 0.52916,0.79375 m -51.06458,-14.022917 0.26458,0.79375 1.05833,0.529167 v 1.852083 l 0.79375,1.058334 0.26459,1.058333 -0.52917,1.058333 -0.79375,1.058334 -0.26458,1.322916 -1.05834,1.322917 m 97.63126,-6.614583 -1.05834,1.058333 1.5875,1.058333 v 3.704167 1.852084 l 4.49792,-1.587501 0.52917,0.529167 2.64583,-0.264583 m -7.67292,-0.529167 -1.05833,-0.264583 -1.85208,0.529166 0.26458,0.793751 -2.11667,1.322916 -0.52916,0.264584 -1.85209,-1.058334 -1.05833,0.264584 -1.05833,-1.058334 -1.32292,-0.79375 -1.05833,-1.5875 m -50.27084,2.116667 -1.05833,1.322917 -0.79375,0.264583 0.52917,2.645833 h 1.05833 v -1.058333 l 2.38125,-0.529167 v 0.529167 l 0.52917,0.79375 h -0.26459 l 0.26459,0.79375 1.85208,-0.264583 1.5875,3.704166 0.52917,-0.529166 1.05833,0.529166 0.26458,-0.529166 1.05834,0.264583 -0.52917,-0.79375 1.5875,-1.058333 -0.26458,-1.322917 0.26458,1.058333 1.85208,-1.852083 0.26459,1.322917 0.79375,-0.264584 0.26458,0.79375 0.52917,-0.264583 -0.26459,-0.79375 m 48.41875,-3.439583 v 0.529166 l 0.79375,4.233334 1.05834,1.058333 1.85208,0.264583 0.26458,0.79375 -0.52916,1.058334 -1.32292,1.058333 0.26458,1.5875 m -2.38125,-10.054167 -0.26458,-0.264583 h -1.32292 l 0.26459,0.79375 v 2.910417 l -0.52917,1.058333 h -0.79375 l 0.26458,-0.264583 h -0.79375 v -0.79375 h -0.52916 l 0.26458,1.058333 0.79375,1.058333 -1.05833,1.058334 h 1.05833 m -31.22083,-7.14375 -0.26459,0.264583 0.52917,1.058333 -0.79375,-0.79375 -0.52917,2.116667 -0.79375,0.264583 h 0.79375 l 0.52917,0.79375 -0.26458,0.264584 -0.79375,-0.264584 -0.52917,0.529167 -1.85208,1.058333 m 16.13958,-0.79375 4.49792,1.058334 -0.52917,1.058333 h -0.52917 l -0.52916,0.529167 h -0.79375 l -0.26459,0.264583 -0.79375,-0.264583 v -0.529167 h -0.52916 l -1.32292,-0.529167 -0.79375,-0.264583 -0.26458,-0.79375 m 14.2875,-6.085417 -1.05834,0.529167 0.26459,0.79375 1.32291,1.058333 -0.52916,0.529167 1.05833,1.058333 -0.26458,0.529167 0.52916,0.529167 -0.26458,0.264583 h 0.52917 l 0.52916,0.79375 0.26459,0.529167 -2.64584,1.322916 m -54.23958,-6.614583 -0.26458,-0.529167 -1.05834,0.529167 0.26459,1.058333 -1.05834,0.264584 0.26459,3.704166 h -1.05834 v 1.058334 l -0.79375,-0.79375 h -0.79375 l -1.32291,1.322916 m 38.62916,-2.645833 -1.32291,0.79375 h -0.26459 v 0.264583 h -0.26458 v -0.529166 l -0.26458,0.529166 -0.52917,-0.529166 -0.79375,0.264583 0.26458,0.79375 -0.79375,0.264583 -0.52916,1.322917 0.26458,0.529167 -0.26458,0.529166 0.26458,0.264584 -0.26458,1.058333 0.79375,1.058333 -0.26459,1.058334 0.52917,0.264583 v 0.79375 l 0.79375,-1.058333 0.26458,1.058333 0.79375,0.264584 m -2.38125,-7.143751 -2.11666,0.79375 -0.79375,-1.322916 m -2.64584,1.058333 v 0.264583 l 0.26459,0.264584 0.26458,-0.529167 0.26458,0.264583 0.52917,1.058334 -0.52917,0.79375 m 28.575,-1.058334 -1.32291,-1.852083 0.26458,-1.5875 -0.52917,-0.79375 h 0.26459 v -0.79375 l -1.32292,0.264583 v 0.529167 l -1.32292,-0.79375 -0.26458,0.264583 0.26458,3.96875 0.52917,0.529167 1.05833,0.529167 0.26459,-0.529167 0.79375,0.264583 0.52916,0.529167 m -43.92083,-1.322917 -0.26458,0.529167 -1.85209,0.79375 -2.64583,0.79375 0.79375,1.058333 -0.52917,2.116667 0.26459,0.529167 h 1.05833 v 0.79375 l -0.52917,0.529167 h -1.32291 m 35.18958,-3.968751 -0.79375,-0.79375 -0.52917,-1.5875 -0.26458,1.322917 -0.79375,-0.264583 v -0.79375 l -0.79375,0.264583 v -2.38125 l -0.52917,-0.79375 m 10.58334,5.027083 v -0.529166 h -0.52917 l 0.52917,-2.38125 m -13.49375,6.35 1.05833,-2.38125 1.32292,-0.79375 v -1.5875 l 1.05833,-0.529167 m -64.55834,-67.468752 -1.32291,-0.26458 -0.79375,0.79375 -0.26459,-0.52917 -0.79375,-0.79375 -0.26458,-1.32292 -1.05833,0.52917 -0.79375,-0.52917 v -0.52916 m 12.43542,10.05416 0.26458,1.05834 0.79375,1.5875 -0.79375,2.64583 -2.91042,2.11667 -1.32292,-0.52917 v 0.79375 l -0.52916,-0.52917 h -1.05834 l -0.26458,1.85209 -1.05833,0.52916 0.26458,0.79375 -0.52917,2.91042 0.26459,0.79375 1.85208,0.52917 m 1.05833,-7.67292 -0.79375,-1.05833 -2.38125,-0.79375 m -10.58333,3.175 -1.5875,1.5875 -0.26458,1.5875 -1.05834,1.05833 -3.43958,0.52917 m 17.19792,1.05833 -1.32292,0.26458 -1.5875,-0.52916 0.26458,1.05833 -0.52916,0.52917 -0.52917,-0.79375 -2.38125,-0.52917 -1.05833,-1.05833 0.26458,-0.26459 v -0.79375 l 0.52917,-0.52916 -0.52917,-0.26459 v -0.79375 l -0.52917,-1.32291 m 27.25209,2.38125 v 1.32291 h 1.05833 l 0.79375,0.79375 -0.52916,0.79375 -1.05834,0.26459 v 0.79375 l 2.38125,3.43958 -0.26458,0.52917 h -0.79375 l -0.52917,1.32291 0.52917,0.26459 -0.26458,1.05833 -1.05834,0.793751 v 0.529167 l 0.79375,0.264583 0.79375,-0.79375 -0.26458,1.322917 0.52917,1.058333 1.5875,1.322917 v 1.058333 l 1.32291,-0.264583 1.32292,0.529167 0.79375,-0.264584 m -7.14375,-14.816671 v 0.52917 l -0.52917,0.79375 -1.85208,-1.32292 -2.38125,2.64584 h -1.05833 l -0.26459,-0.52917 -0.79375,-0.26458 -1.32291,0.26458 -0.26459,-0.79375 -0.52916,0.26458 -0.26459,0.52917 -1.32291,-0.52917 0.26458,0.79375 -0.52917,1.32292 -1.05833,0.52917 v 0.79375 m 16.13958,-3.70417 1.5875,1.5875 -1.05833,2.11667 0.79375,1.05833 0.52917,-0.79375 -0.26459,0.26458 0.52917,0.52917 -0.26458,0.26458 0.26458,0.52917 -0.26458,0.79375 0.52916,0.26458 0.52917,-0.52916 h 0.52917 l -0.79375,1.05833 -1.32292,0.52917 v 0.52916 m 54.76875,6.614588 0.52917,-1.058333 0.79375,-0.529167 -0.26459,-0.529167 -2.64583,-2.116666 h -0.79375 l -2.38125,-1.587501 v -0.793754 l -1.5875,-1.5875 0.52917,-0.26458 v -0.52917 m 1.85208,8.202088 -1.32292,-1.5875 0.52917,-0.264583 0.26458,-0.529167 -0.52916,-1.058333 -2.11667,-0.529167 -1.05833,-1.852088 0.26458,-0.26458 m -24.34167,4.762501 -1.32291,-0.79375 -2.11667,-0.264583 -2.11667,1.322917 m -21.43125,-3.439584 -2.11666,0.79375 -3.96875,-0.79375 -0.79375,0.529167 -0.26459,1.058333 h -0.79375 l -1.5875,1.852084 h -1.05833 l -0.79375,1.058333 -1.05833,-0.264583 -1.5875,0.264583 m 16.66875,-0.529167 -1.85209,1.058334 v 1.058333 l -0.79375,0.264583 -0.79375,-0.529166 -0.26458,1.058333 1.85208,1.058333 1.85209,2.645834 0.79375,0.529166 0.52916,0.529167 h 1.5875 l 0.52917,-0.79375 h 0.79375 v -0.264583 m -22.48959,-0.264584 -0.26458,-0.264583 -1.05833,-2.38125 0.79375,-0.529167 m 15.08125,-0.264583 -1.05833,-0.529167 -0.26459,1.058334 -1.32291,0.529166 -0.26459,-0.264583 h -1.85208 l -0.79375,1.322917 -1.05833,0.264583 -1.05834,0.264583 -1.32291,1.5875 -0.26459,1.058334 -0.79375,0.264583 m 14.55209,-1.322917 -0.79375,0.264584 0.26458,1.058333 h -0.52917 l -0.79375,1.058333 -1.05833,1.058334 -3.175,-1.058334 -0.26458,0.793751 -1.32292,1.058333 -0.52917,1.058333 0.79375,0.529167 -0.52916,0.79375"
         id="path3043" />
      <path
         sodipodi:nodetypes="cccccccccccccccccccccccccccccccccccccccccccccccccccccccccccccccccccccccccccccccccccccccccccccc"
         style="fill:#eeeeee;stroke:#000000;stroke-width:0.05291667;stroke-linejoin:round"
         inkscape:connector-curvature="0"
         d="m -297.92088,-114.1625 -0.79375,-0.26459 -0.26458,1.05834 0.79375,-0.52917 1.32292,0.26458 v -1.32291 l 1.85208,0.52916 0.52917,-0.52916 -0.79375,-0.26459 v -0.79375 h -0.79375 l -0.26459,0.52917 -0.79375,-0.26458 -0.52916,0.52916 0.52916,0.79375 z m -12.7,30.427082 0.79375,1.322916 -0.26458,-0.264583 0.26458,-1.322917 -0.52916,0.264584 -2.64584,-0.264584 z m 20.37292,0.79375 0.26458,0.529166 -0.79375,1.058334 1.05834,-1.058334 0.79375,0.79375 v 0.79375 l 0.52916,0.264584 -0.26458,-0.264584 v -0.79375 l -1.05833,-0.79375 0.52916,-0.529166 -0.79375,-0.264584 v -1.5875 l -1.05833,-1.058333 v 1.058333 l 0.52917,0.264584 v 1.058333 z m 46.56667,25.664584 h -2.64583 0.79375 v 0.529166 l 0.52916,-0.264583 0.52917,0.264583 -1.32292,1.058334 v 0.264583 h 0.52917 l 0.79375,-0.79375 0.26458,0.529167 v -0.79375 l 0.52917,0.79375 v -0.79375 h 0.26458 l 0.26459,0.79375 0.52916,-2.116667 -0.79375,0.529167 -0.26458,-0.529167 z m -10.31875,-15.610418 h -0.52917 v 0.529167 l 0.52917,-0.264583 z m -21.16667,0 h -1.5875 l 1.85208,0.264584 v 0.529166 l 0.52917,-0.529166 z m 15.875,-6.879166 h -0.52916 l 0.52916,0.264583 z m 19.84375,-23.547922 h -0.26458 l 0.26458,0.52917 z m -35.71875,-11.64166 -0.26458,-0.79375 -0.26459,1.05833 0.52917,0.26458 -0.26458,-0.26458 z m 32.01459,59.795832 -1.32292,0.264584 0.52917,-0.264584 -0.26459,0.529167 h 1.32292 v 0.529167 l 0.52917,-0.79375 z"
         id="path3045" />
      <path
         style="fill:none;fill-opacity:1;stroke:#f6bad3;stroke-width:0.21166667;stroke-linecap:butt;stroke-linejoin:miter;stroke-miterlimit:4;stroke-dasharray:none;stroke-opacity:1"
         d="m -198.18375,-62.31291 -0.51727,-0.517268 -0.79819,-0.27201 -0.26756,0.530645 -1.06129,-0.530645 -0.52173,-0.530646 -0.26309,-3.9687 0.26309,-0.263091 1.31993,0.793739 0.009,-0.526187 1.311,-0.267552 0.009,0.798198 -0.27201,0.0045 0.53065,0.784823 -0.25864,1.587479 1.31101,1.855031 z"
         id="path3061"
         inkscape:connector-curvature="0" />
      <path
         style="fill:none;stroke:#000000;stroke-width:0.05771898;stroke-linecap:butt;stroke-linejoin:miter;stroke-miterlimit:4;stroke-dasharray:none;stroke-opacity:1"
         d="m -197.24971,-62.836695 -0.89596,0.592733"
         id="path3831"
         inkscape:connector-curvature="0" />
      <path
         style="fill:#f6bad3;fill-opacity:1;stroke:#000000;stroke-width:0.02645833;stroke-linecap:butt;stroke-linejoin:miter;stroke-miterlimit:4;stroke-dasharray:none;stroke-opacity:1"
         d="m -206.12114,-93.27767 0.009,-0.517268 0.53065,-0.263094 0.52619,0.789282 1.06575,0.539564 0.78036,-1.600858 -1.31101,-1.583018 0.52619,-0.263094 0.26309,-0.526188 -0.52619,-1.052375 -2.1315,-0.539562 -1.04791,-1.846119 0.25863,-0.26309 -0.79374,-0.5351 -0.78036,0.78482 -0.009,-0.52173 -1.58301,-0.78928 -0.53065,0.5351 0.52173,0.78037 -1.05238,0.544019 -0.004,0.517271 -1.84612,-1.05683 -1.5964,-0.53065 -0.25417,-0.51727 -0.52619,0.52173 -0.80265,-0.7982 -1.04792,0.53956 0.25418,1.052379 -0.52173,0.530645 2.90294,1.319927 h 0.0178 l 1.5741,-0.789281 1.58748,0.267552 v 3.438051 l 1.58302,-0.267552 0.53511,0.79374 1.32438,1.319927 1.58748,-0.789281 z"
         id="path3833"
         inkscape:connector-curvature="0" />
    </g>
  </g>
</svg>
