<?xml version="1.0" encoding="UTF-8" standalone="no"?>
<!-- Created with Inkscape (http://www.inkscape.org/) -->

<svg
   xmlns:dc="http://purl.org/dc/elements/1.1/"
   xmlns:cc="http://creativecommons.org/ns#"
   xmlns:rdf="http://www.w3.org/1999/02/22-rdf-syntax-ns#"
   xmlns:svg="http://www.w3.org/2000/svg"
   xmlns="http://www.w3.org/2000/svg"
   xmlns:sodipodi="http://sodipodi.sourceforge.net/DTD/sodipodi-0.dtd"
   xmlns:inkscape="http://www.inkscape.org/namespaces/inkscape"
   width="285.18008mm"
   height="456.19312mm"
   viewBox="0 0 285.18008 456.19312"
   version="1.1"
   id="svg7005"
   inkscape:version="0.92.4 (5da689c313, 2019-01-14)"
   sodipodi:docname="part_nagano.svg">
  <defs
     id="defs6999" />
  <sodipodi:namedview
     id="base"
     pagecolor="#ffffff"
     bordercolor="#666666"
     borderopacity="1.0"
     inkscape:pageopacity="0.0"
     inkscape:pageshadow="2"
     inkscape:zoom="0.35"
     inkscape:cx="58.922954"
     inkscape:cy="796.38292"
     inkscape:document-units="mm"
     inkscape:current-layer="layer1"
     showgrid="false"
     fit-margin-top="0"
     fit-margin-left="0"
     fit-margin-right="0"
     fit-margin-bottom="0"
     inkscape:window-width="1511"
     inkscape:window-height="1582"
     inkscape:window-x="1513"
     inkscape:window-y="409"
     inkscape:window-maximized="0" />
  <metadata
     id="metadata7002">
    <rdf:RDF>
      <cc:Work
         rdf:about="">
        <dc:format>image/svg+xml</dc:format>
        <dc:type
           rdf:resource="http://purl.org/dc/dcmitype/StillImage" />
        <dc:title></dc:title>
      </cc:Work>
    </rdf:RDF>
  </metadata>
  <g
     inkscape:label="レイヤー 1"
     inkscape:groupmode="layer"
     id="layer1"
     transform="translate(36.000746,96.650122)">
    <g
       id="g6698"
       transform="matrix(2.9923539,0,0,2.9923539,1917.269,-564.89304)">
      <path
         style="fill:#f6bad3;stroke:#000000;stroke-width:0.05291667;stroke-linejoin:round"
         inkscape:connector-curvature="0"
         d="m -609.33546,302.02709 0.52917,-0.79375 h 0.26458 l 1.32292,-1.05833 1.32291,0.26458 0.52917,-0.79375 v -0.79375 l 0.79375,-0.79375 1.5875,-1.32292 1.05833,0.26459 0.52917,0.52916 0.79375,-0.26458 -0.26458,-1.05833 1.05833,-0.79375 2.11667,-0.52917 0.79375,-2.64583 -1.05834,-0.52917 v -0.52917 l 0.26459,-0.79375 -1.32292,-0.52916 v -1.05834 -1.05833 l -0.79375,-1.5875 h -1.05833 l -0.79375,-1.05833 -0.79375,0.26458 -2.11667,2.11667 -0.52917,-1.05834 -2.64583,-1.85208 -0.26458,0.52917 -0.26459,1.05833 -1.5875,2.11667 0.26459,0.52916 -0.79375,1.05834 -0.52917,0.26458 -0.52917,-0.52917 -1.05833,-0.26458 -0.52917,-0.79375 -0.26458,-1.5875 -1.5875,-0.52917 -0.26458,-0.52916 -0.52917,-0.26459 -0.26458,-1.05833 0.79375,0.26458 v -0.79375 h -0.52917 -0.79375 v -0.79375 l 1.05833,-1.85208 -2.11666,-1.5875 h -0.79375 l -0.52917,-1.05833 -1.05833,-0.79375 0.79375,-1.85209 -0.52917,-1.05833 0.52917,-0.79375 -0.26459,-1.5875 -0.79375,-0.79375 -0.52916,-0.79375 -1.5875,1.85208 -1.32292,0.52917 -0.52917,0.52917 -1.32291,0.52916 -1.05834,1.05834 0.26459,1.05833 -1.85209,1.5875 0.26459,1.05833 0.52916,0.26459 1.05834,2.64583 1.85208,0.79375 -1.32292,1.85208 0.26459,0.52917 v 0.79375 l 1.32291,1.32292 0.52917,-0.79375 0.26458,0.52916 -0.26458,1.85209 0.79375,1.32291 0.52917,0.26459 1.05833,-0.79375 1.5875,0.52916 1.32292,1.05834 2.11666,1.05833 0.26459,0.79375 h 0.79375 l 0.79375,0.52917 -0.26459,0.52916 0.79375,1.32292 h 1.5875 l -0.26458,1.05833 -1.85208,1.85209 h -1.5875 -1.32292 l -0.52917,0.79375 1.05834,0.26458 v 0.26458 l 0.26458,1.5875 0.79375,-0.52916 0.52917,0.26458 1.05833,1.05833 -0.26458,0.79375 v 1.05834 l 1.5875,0.26458 0.79375,-1.85208 z m 12.43542,-24.07708 1.05833,-1.05834 1.05833,0.79375 0.79375,-1.5875 0.79375,-1.32291 -0.26458,-1.85209 0.79375,-0.79375 0.26458,-0.26458 -0.79375,-1.5875 -1.05833,-0.79375 v -0.79375 -1.05833 l -0.79375,-1.5875 v -0.26459 l 3.43958,-2.91041 0.26459,-0.26459 -0.26459,-0.52916 -1.5875,-1.5875 h -0.52916 l -1.5875,-0.52917 v -2.38125 l 0.26458,-1.32292 -0.26458,-1.05833 0.79375,-1.05833 -0.79375,-0.79375 0.26458,-0.52917 -0.79375,-3.70417 0.52917,-1.05833 0.52916,-0.79375 0.52917,0.52917 1.85208,-0.52917 v -0.52917 l -0.79375,0.26459 0.26459,-0.52917 -1.5875,-0.79375 -0.79375,-1.05833 0.52916,-0.26459 h 0.52917 1.32292 l 0.26458,-0.79375 2.11667,0.26459 4.7625,0.79375 2.64583,-0.26459 0.79375,0.26459 0.26459,-1.5875 -1.05834,-1.85209 0.26459,-0.26458 -0.52917,-2.38125 v -0.26458 l -1.32292,-1.5875 v -1.5875 h -0.26458 -0.79375 l 0.52917,-0.52917 v -1.32292 l 1.32291,-1.05833 h 0.52917 l 5.02708,-3.70417 h 1.05834 l 1.85208,-0.26458 0.79375,-1.05833 1.05833,1.05833 h 1.85209 3.43958 l 0.26458,-0.79375 h 0.26459 l 0.52916,1.05833 1.05834,0.26459 0.26458,-0.52917 1.5875,-0.26458 -0.79375,-1.85209 -0.26458,-0.26458 0.79375,-0.52917 h 0.26458 l -0.26458,-1.05833 h -0.79375 l -0.52917,-1.05833 -0.26458,-1.05834 -0.52917,-0.52916 0.26458,-1.5875 -0.52916,-1.05834 -1.32292,-0.26458 -1.5875,0.26458 -0.79375,-0.52917 -1.05833,0.26459 -1.05834,-1.32292 -0.52916,0.26458 -0.79375,-0.79375 -0.52917,1.32292 0.26458,-2.11667 h -0.52916 v -0.52916 l -0.26459,-1.32292 1.05834,-1.85208 -0.52917,0.79375 -0.52917,-0.26459 0.26459,0.52917 h -0.26459 v -0.79375 l -0.26458,0.79375 h -1.05833 l 1.5875,-2.91042 v -0.52916 l 0.79375,-0.26459 0.26458,-1.5875 0.52917,-0.26458 h -0.79375 l -0.26459,1.05833 -2.11666,-0.26458 0.26458,-0.52917 h -0.26458 v -0.79375 h -0.79375 l -2.91042,-1.32291 v -2.64584 l -0.26458,-1.85208 0.52916,-1.5875 -0.26458,-1.05833 0.79375,-0.79375 -0.26458,-0.79375 1.05833,-0.79375 V 195.4 l -0.26458,-0.79375 -0.26459,-0.52916 0.52917,-1.32292 1.05833,-0.52917 v -0.79375 l -0.52916,-0.26458 -2.64584,-1.5875 -0.79375,-1.32292 -0.79375,0.26459 -1.5875,-0.26459 -1.05833,-2.64583 -1.05833,-0.52917 h -2.11667 l 0.26458,-2.38125 1.05834,-0.26458 0.52916,-0.26458 1.05834,-0.26459 1.05833,0.79375 -0.52917,0.52917 0.79375,1.05833 0.52917,0.26459 0.79375,-0.79375 1.05833,0.52916 1.05834,-0.26458 h 0.26458 l -0.79375,-1.85208 0.26458,-1.05834 -0.52916,-1.05833 0.52916,-1.32292 -0.79375,-0.79375 0.52917,-0.26458 0.79375,-1.32292 v -0.52916 l -0.52917,-0.26459 v -2.11666 h -0.79375 l 0.79375,-1.32292 -0.79375,-0.52917 v -0.52916 l 0.52917,0.26458 0.52917,-1.05833 -0.26459,-0.52917 0.26459,-0.79375 1.32291,0.79375 2.38125,-0.52917 0.26459,-0.52916 -1.32292,-1.05834 -0.26458,-0.79375 -1.05834,-0.52916 h 0.52917 l -0.26458,-0.79375 -0.26459,0.52916 V 163.65 l 0.79375,-0.26458 v -0.52917 l 1.85209,-1.85208 2.11666,-0.26458 v -0.79375 l 0.52917,-1.05834 1.32292,-2.11666 h -1.5875 l -0.52917,0.52916 h -2.38125 l -2.38125,1.5875 -0.79375,0.26459 h -0.79375 l -1.05833,1.5875 0.26458,0.26458 -0.79375,1.05833 -0.79375,2.64584 -1.05833,0.79375 -0.79375,-0.26459 h -0.79375 l -0.79375,0.52917 -1.05834,1.85208 0.52917,0.79375 -0.52917,1.5875 0.52917,1.05834 -1.05833,1.05833 -0.52917,0.26458 v 0.26459 h 0.26458 v 0.52916 l 0.26459,1.05834 -0.26459,0.26458 0.26459,2.11667 h 1.32291 v 1.32291 l 0.26459,0.79375 -0.79375,0.79375 v 0.79375 l -1.32292,0.52917 -0.52917,-0.79375 -0.26458,1.32292 -0.79375,1.05833 -1.32292,-0.26458 -0.79375,1.05833 -1.5875,-0.26458 -1.32292,-1.05834 -2.64583,-1.32291 0.26458,-0.52917 -0.79375,-0.79375 -0.52916,-1.32292 0.52916,-1.05833 -1.85208,0.52917 -0.26458,-1.85209 0.52916,-0.79375 -0.52916,-1.05833 -0.52917,-0.79375 0.26458,-0.26458 -1.05833,1.5875 v 0.79375 l -1.5875,0.79375 v -0.79375 h -1.05833 l -0.52917,-0.79375 -1.05833,-0.52917 -0.52917,-0.26458 -0.52917,0.79375 -1.05833,1.32291 -0.79375,1.5875 v 1.05834 l -1.85208,2.91041 -1.05834,2.91042 -0.79375,0.52917 0.26459,1.05833 -0.52917,1.5875 0.79375,0.26458 1.32292,-0.79375 1.32291,-0.26458 0.52917,0.26458 0.52917,-0.26458 0.79375,0.79375 0.52916,-0.26458 1.05834,0.52916 -0.79375,1.5875 v 3.43959 h -0.26459 l -0.52916,0.26458 -0.79375,-0.52917 -0.79375,-0.26458 -0.79375,0.79375 h -0.79375 l -0.79375,-0.26458 v -0.79375 l -1.05834,-0.79375 0.52917,-1.32292 -0.79375,-1.32292 -2.38125,1.32292 h -0.26458 v 1.05833 h -2.11667 l -0.26458,0.52917 h -0.79375 v -1.5875 l -1.05834,-0.79375 -0.52916,-0.79375 -1.85209,-0.26458 -0.52916,-0.79375 -0.52917,0.52916 0.26458,1.05834 -0.79375,1.85208 -0.26458,0.79375 0.52917,2.11667 h -1.32292 l -0.79375,0.52916 -0.26458,0.26459 -1.32292,0.79375 -0.52917,1.05833 -0.26458,1.5875 1.85208,0.26458 -0.52916,0.52917 0.26458,0.79375 -0.79375,0.52917 -1.32292,-0.26459 -0.52916,0.52917 v 0.79375 0.52917 l -1.05834,0.26458 0.26459,2.64583 -0.79375,0.26459 -0.79375,2.38125 -1.5875,0.52916 -0.26459,1.32292 -1.05833,1.05833 -0.26458,1.5875 2.11666,0.52917 1.05834,1.5875 0.26458,0.26458 0.52917,0.26459 0.52916,3.175 -0.26458,1.05833 -1.32292,0.79375 -1.32291,2.11667 -1.32292,1.85208 -0.52917,1.05834 h -0.52916 v 0.79375 l 0.52916,1.05833 0.79375,0.52917 v 1.5875 l -0.26458,0.52916 -1.32292,0.79375 -0.26458,0.79375 -0.79375,0.52917 0.26458,0.79375 -0.52916,1.5875 1.05833,1.32292 0.52917,0.52916 1.5875,1.05834 h 1.05833 v 1.32291 l -1.05833,1.5875 v 1.05834 0.26458 l 1.05833,0.52917 1.32292,-0.52917 1.85208,1.05833 0.79375,0.26459 0.52917,-0.52917 1.32291,0.52917 h 0.26459 l 2.11666,-3.175 v -1.5875 l 1.32292,-1.5875 1.5875,-1.05834 0.79375,-2.11666 1.32292,-1.5875 2.11666,-1.5875 1.05834,-1.32292 2.11666,-1.05833 0.52917,0.26458 0.26458,1.05833 -1.05833,2.38125 0.52917,0.52917 -0.79375,0.79375 0.52916,-0.26458 0.26459,0.26458 0.52916,0.79375 -1.05833,0.79375 -3.96875,4.7625 h -0.79375 v 0.26458 l -0.79375,6.08542 0.26458,0.26458 -0.79375,1.32292 0.26459,2.11667 v 0.52916 l 0.52916,1.05834 -0.26458,1.32291 0.79375,1.5875 -0.52917,0.79375 -0.26458,1.5875 0.52917,0.52917 -0.26459,0.79375 0.52917,1.05833 0.52917,0.79375 0.26458,0.52917 h 2.38125 l 1.32292,1.85208 2.38125,0.52917 1.32291,-1.05833 -0.79375,0.79375 v 0.52916 l 1.5875,0.26459 0.79375,-0.52917 v 0.79375 l 0.26459,1.5875 -6.08542,0.26458 -0.52917,-0.52916 -0.52916,0.52916 v -1.05833 h -0.79375 l -1.5875,-1.32292 -1.05834,-0.52916 v 0.26458 l 0.26459,2.11667 -0.52917,1.05833 v 1.05833 l 0.79375,0.79375 2.38125,1.32292 0.52917,-0.26458 1.05833,1.05833 0.79375,-0.26458 0.26458,-0.52917 1.85209,-0.26458 2.38125,0.52916 0.26458,0.52917 -0.52917,0.79375 1.85209,-0.79375 v 0.52917 l 0.52916,0.26458 v 0.52917 l 1.05834,-0.26459 1.05833,0.52917 h 0.79375 l 0.52917,0.52917 0.52916,-0.52917 0.26459,-2.11667 1.05833,-0.26458 1.05833,0.52917 v 1.32291 l 1.5875,2.91042 0.26459,1.5875 -0.26459,0.79375 0.52917,1.32292 1.05833,0.52916 0.26459,1.05834 0.79375,0.26458 z m -14.02292,-23.28334 -2.64583,-0.52916 1.5875,-0.52917 v -0.52917 l 0.79375,0.52917 0.52916,-0.26458 0.26459,-0.79375 -1.05834,-0.26459 -0.26458,-0.26458 0.52917,-1.05833 0.79375,0.52916 -0.26459,-0.79375 v -0.26458 l -1.32291,-0.26458 -1.5875,0.79375 -1.32292,-0.52917 -0.26458,0.79375 -0.26459,1.05833 0.79375,1.5875 -1.5875,-0.79375 -0.79375,0.26459 0.26459,-0.79375 -0.79375,-1.05834 0.79375,-1.85208 -0.52917,-1.05833 -1.05833,-0.26459 -0.26459,-1.5875 1.32292,-1.85208 0.79375,-0.26458 1.05833,-2.38125 0.79375,-0.52917 1.05834,-0.79375 -0.52917,-0.52917 0.26458,-0.52916 1.85209,-1.05834 0.52916,-1.5875 0.79375,-0.26458 v 0.79375 l 2.11667,0.79375 1.85208,-0.52917 -1.05833,2.91042 1.5875,0.52917 0.52917,-0.26459 h 1.05833 l -0.26458,0.26459 0.26458,0.79375 h 0.52917 v 2.38125 l -0.26459,0.79375 h -0.52916 l 1.5875,1.32291 1.05833,-0.26458 0.26458,-0.79375 h 0.52917 l 0.26458,1.05833 -0.52916,1.32292 -1.05834,1.32292 -0.79375,-0.26459 -0.52916,0.26459 -0.79375,1.32291 -1.32292,1.05834 -1.85208,0.79375 -0.26459,1.05833 -0.79375,0.79375 -1.05833,-0.79375 z m 8.46667,-20.37291 0.52916,-2.64584 0.26459,0.26459 0.79375,-0.26459 0.52916,0.52917 -0.52916,-1.85208 -0.26459,-0.52917 v 1.05833 l -0.52916,-0.79375 0.26458,-0.79375 2.91042,-0.79375 v -1.05833 -2.64583 l -0.79375,-0.79375 0.79375,-0.79375 1.5875,0.52916 0.52916,0.52917 2.38125,-0.79375 1.5875,0.26458 1.05834,-1.05833 -0.26459,-1.05833 1.05834,-0.26459 -0.26458,-2.38125 0.52916,-0.52917 0.79375,-0.79375 0.79375,0.79375 h 0.52917 l 0.52917,-2.91041 v -0.26459 l 0.52916,0.52917 -0.26458,1.05833 h 1.32292 v -0.52916 0.52916 h 0.52916 l 0.26459,-1.05833 0.79375,-0.52917 v 2.11667 l 0.26458,0.52917 v 0.79375 l -0.26458,0.26458 -0.52917,0.26459 0.52917,1.32291 -2.11667,1.85209 -0.52917,1.32291 -1.32291,4.7625 0.26458,1.32292 0.52917,1.05833 0.79375,0.79375 v 1.32292 l -0.79375,1.5875 -1.05834,0.52917 -1.85208,-0.79375 -0.26458,-0.79375 -0.79376,-0.26459 0.26459,-0.26458 -1.85209,0.52917 -0.52916,-0.26459 -0.79375,-1.32291 -1.5875,0.26458 0.52916,0.79375 h -0.52916 l 0.52916,0.52917 -1.5875,0.52916 h -0.79375 v 1.05834 h -0.79375 l 0.26459,0.79375 -2.11667,1.85208 -0.79375,0.52917 -0.79375,-1.32292 z m 0.79375,-17.99167 -0.79375,-0.26459 -0.52917,-1.5875 1.05833,-3.175 -1.85208,-0.52916 h -1.05833 l -1.5875,1.05833 -1.32292,-0.79375 v -1.05833 l -0.79375,-0.26459 -0.26458,-0.79375 -0.26459,-0.26458 -1.5875,1.5875 h -0.26458 l -1.05833,0.26458 -0.26459,-0.79375 0.26459,-0.79375 -0.52917,-0.52916 0.26458,-0.26459 h -0.52916 l -0.52917,0.79375 0.26458,1.05834 -0.79375,-0.52917 0.52917,2.11667 v 0.26458 l -0.26458,-0.26458 -1.05834,0.52916 -1.05833,-1.32291 -0.26458,-0.52917 -1.05834,-0.79375 -1.5875,1.05833 -0.52916,-0.79375 h -2.11667 l -0.52917,-0.52916 -1.05833,0.52916 -1.05833,-1.32291 0.26458,-0.26459 1.85208,-0.26458 0.79375,-0.52917 h 0.52917 l 0.52917,-1.32291 -0.52917,-0.52917 0.52917,-0.52917 0.52916,-0.26458 v 0.79375 l 1.5875,-0.26458 1.05834,0.79375 0.79375,-0.26459 h 0.79375 v -0.52916 l 0.79375,-0.26459 v -0.26458 l -0.26459,-1.85208 h 1.5875 l 0.52917,0.79375 0.26458,-0.52917 1.05834,-0.79375 V 201.75 l 0.79375,0.26459 -0.26459,0.26458 1.05834,1.32292 0.79375,0.26458 1.85208,-1.5875 2.38125,-0.52917 0.52917,-0.52916 1.85208,0.26458 0.26458,0.79375 0.52917,0.26458 -0.26458,0.26459 1.5875,0.52916 v 0.79375 l 0.79375,0.79375 0.26458,1.05834 -0.52917,0.26458 v 2.38125 l 2.38125,1.05833 0.26459,1.85209 -0.52917,1.32291 -1.05833,0.52917 v 0.79375 l -1.05834,1.32292 -0.26458,-0.52917 z m 3.175,-10.58334 0.52916,-0.79375 1.85209,-0.79375 0.26458,-0.52916 -0.79375,-0.52917 1.05833,-0.26458 0.26459,-1.05834 1.32291,-0.52916 0.26459,-0.52917 1.85208,1.5875 v 1.32292 l 0.79375,0.52916 0.52917,1.32292 v 0.79375 l -2.38125,0.52917 -2.91042,1.05833 z m 24.07708,23.01876 v 0.52916 h 0.52917 l -0.26458,-0.79375 z"
         id="path6633" />
      <path
         style="fill:#ece3b4;stroke:#000000;stroke-width:0.05291667;stroke-linejoin:round"
         inkscape:connector-curvature="0"
         d="m -626.26879,306.26042 h 0.26458 l 1.5875,-0.79375 1.05833,-0.79375 0.26459,-0.26458 0.26458,-1.5875 1.5875,-1.5875 0.52917,-0.26458 0.26458,0.52916 0.52917,-1.05833 1.85208,-0.26458 v -0.52917 l -0.52917,-1.32292 0.26459,-0.52916 0.52916,-0.79375 -2.11666,-2.64584 v -1.32291 h -0.26459 l -0.52916,0.52916 h -0.52917 l 0.52917,0.26459 v 0.52916 l -0.79375,0.26459 -0.52917,0.79375 -0.79375,0.52916 0.26458,0.52917 -1.32291,-0.79375 -0.79375,-1.05833 -0.52917,1.05833 -0.52917,0.26458 -0.26458,-0.52916 -0.26458,0.79375 -0.79375,0.52916 -1.32292,0.26459 v 1.85208 l -0.79375,1.05833 1.85208,0.79375 1.5875,-0.26458 0.52917,1.32292 -0.52917,1.5875 -0.52916,1.32291 0.26458,0.52917 -0.52917,1.05833 h -0.52916 l 0.26458,0.26459 z m -5.02709,-23.28333 0.26459,-1.5875 0.79375,-0.26458 1.5875,-0.26459 0.26458,-1.05833 0.52917,-0.52917 -0.26459,-1.05833 1.85209,-1.5875 -0.26459,-1.05833 1.05834,-1.05834 -0.26459,-0.79375 -1.85208,-0.79375 -0.52917,-1.32291 h -0.79375 l -0.52916,-1.05834 -0.79375,0.26459 -1.5875,1.05833 -0.79375,-0.52917 -1.05834,-0.52916 v -0.79375 l -0.79375,-0.52917 -2.11666,-0.52917 -0.52917,-0.52916 -1.85208,-0.52917 -1.32292,0.79375 1.5875,1.32292 0.79375,1.32291 -0.52917,1.05834 -0.79375,0.26458 -0.52916,1.32292 -0.26459,0.79375 0.26459,0.79375 1.32291,1.32291 0.79375,-0.26458 1.32292,0.26458 -0.52917,1.32292 0.52917,0.52917 0.26458,1.32291 0.79375,0.52917 1.05834,0.79375 0.52916,-0.26458 1.5875,1.85208 z m 15.875,-1.5875 1.32292,-3.175 1.32292,-0.52917 0.52916,-0.26458 1.5875,0.79375 1.85209,-1.05833 0.79375,1.32291 1.05833,0.52917 0.52917,0.79375 0.52916,-1.05833 -1.85208,-1.85209 0.26458,-0.52916 0.52917,-0.52917 -0.79375,-1.05833 -2.11667,0.52916 -1.05833,-0.26458 -0.26458,-0.26458 -0.52917,0.52916 -1.05833,-0.79375 -1.05834,-0.79375 0.26459,-1.32291 h -0.52917 l 0.52917,-0.52917 h 0.52916 l 0.52917,-0.79375 v -0.26458 l 1.5875,0.26458 0.52917,-1.5875 0.79375,0.52917 0.52916,-0.79375 v -0.52917 l 0.26459,-0.26458 v -0.52917 l -1.85209,0.79375 0.52917,-0.79375 -0.26458,-0.52917 -2.38125,-0.52916 -1.85209,0.26458 -0.26458,0.52917 -0.79375,0.26458 -1.05833,-1.05833 -0.52917,0.26458 -2.38125,-1.32292 -0.26458,2.11667 -0.52917,0.79375 -0.26458,2.38125 0.52916,0.79375 0.79375,0.79375 0.26459,1.5875 -0.52917,0.79375 0.52917,1.05833 -0.79375,1.85209 1.05833,0.79375 0.52917,1.05833 h 0.79375 z m -15.875,-15.34583 0.52917,-0.79375 -0.79375,-0.79375 1.05833,-1.5875 1.85209,0.79375 0.52916,1.05833 2.91042,1.5875 1.32292,-1.05833 v -1.05834 l 1.05833,-1.32291 0.52917,-0.52917 1.05833,-0.26458 1.05833,-1.32292 v -0.26458 l -0.26458,-0.79375 1.5875,-1.32292 -0.26458,-0.52917 -0.52917,-0.79375 -0.52917,-1.05833 0.26459,-0.79375 -0.52917,-0.52917 0.26458,-1.5875 0.52917,-0.79375 -0.79375,-1.5875 0.26458,-1.32291 -0.52916,-1.05834 -1.32292,0.79375 -0.26458,0.79375 -0.79375,0.26459 -0.52917,-0.26459 -0.26458,-0.79375 -2.11667,-2.11666 -1.5875,-2.11667 0.52917,-3.43958 h -0.26459 l -1.32291,-0.52917 -0.52917,0.52917 -0.79375,-0.26459 -1.85208,-1.05833 -1.32292,0.52917 -1.05833,-0.52917 -0.52917,1.5875 -1.85208,1.32292 -1.32292,0.52916 -0.26458,1.32292 -0.52917,0.52917 -0.52917,1.5875 -1.32291,0.26458 -0.52917,0.52917 -1.05833,1.5875 -0.26459,1.5875 1.85209,1.85208 1.32291,0.26458 3.175,1.32292 0.26459,0.79375 0.52916,1.85208 0.79375,0.79375 0.79375,-1.5875 v -0.52916 l 0.52917,0.26458 v 0.79375 l -0.52917,1.05833 v 1.32292 h 1.05834 v 0.79375 l -2.11667,-0.52917 -0.26458,0.79375 0.52916,0.26459 0.26459,0.79375 -1.05834,0.52916 v 0.26459 l -1.05833,0.26458 -0.26458,0.52917 -2.11667,-0.26459 0.52917,1.32292 v 0.79375 l 0.79375,0.26458 1.5875,-1.05833 0.79375,0.52917 v 1.32291 l 0.79375,1.05834 z m 37.83542,-8.99584 1.05833,-2.11666 0.79375,-2.38125 1.05834,-0.79375 1.5875,1.32291 0.79375,0.79375 1.5875,-2.11666 1.5875,-1.85209 0.79375,-1.5875 0.26458,-1.05833 1.05834,-0.79375 v -0.52917 l -4.23334,-0.79375 -1.85208,1.05834 v 0.52916 l -1.85208,0.26459 -0.52917,1.05833 -0.26459,-0.26458 -0.79375,-0.26459 0.26459,-0.26458 h -0.26459 l -1.85208,0.52917 -0.52917,-0.52917 -0.52916,0.79375 -0.52917,1.05833 0.79375,3.70417 -0.26458,0.52917 0.79375,0.79375 -0.79375,1.05833 0.26458,1.05833 -0.26458,1.32292 v 2.38125 l 1.5875,0.52917 -1.05834,-0.79375 0.52917,-1.05834 0.79375,-1.05833 z m -14.55208,-4.49791 1.85208,-0.79375 1.32292,-1.05834 0.79375,-1.32291 0.52916,-0.26459 0.79375,0.26459 1.05834,-1.32292 0.52916,-1.32292 -0.26458,-1.05833 h -0.52917 l -0.26458,0.79375 -1.05833,0.26458 -1.5875,-1.32291 h 0.52916 l 0.26459,-0.79375 v -2.38125 h -0.52917 l -0.26458,-0.79375 0.26458,-0.26459 h -1.05833 l -0.52917,0.26459 -1.5875,-0.52917 1.05833,-2.91042 -1.85208,0.52917 -2.11667,-0.79375 v -0.79375 l -0.79375,0.26458 -0.52916,1.5875 -1.85209,1.05834 -0.26458,0.52916 0.52917,0.52917 -1.05834,0.79375 -0.79375,0.52917 -1.05833,2.38125 -0.79375,0.26458 -1.32292,1.85208 0.26459,1.5875 1.05833,0.26459 0.52917,1.05833 0.79375,0.26458 0.52916,-1.05833 0.52917,-0.26458 2.91042,1.5875 1.32291,0.26458 v 0.26458 h 2.38125 l 0.26459,1.05834 h 0.26458 z m 28.04583,-12.17084 2.64584,-0.26458 1.32291,-1.32292 0.26459,-1.05833 0.79375,0.26458 0.52916,1.05834 h 0.26459 v -0.26459 l 0.26458,-1.05833 0.52917,-0.52917 0.79375,-1.05833 3.175,-0.26458 1.32291,-1.05834 v -0.79375 l 2.91042,0.26459 0.26458,0.26458 1.05834,-0.52917 0.26458,-0.79375 -0.52917,-0.79375 0.26459,-0.26458 -0.79375,-1.05833 -2.11667,-0.26459 -0.79375,-1.5875 -0.79375,-1.05833 h -3.43958 -1.85209 l -1.05833,-1.05833 -0.79375,1.05833 -1.85208,0.26458 h -1.05834 l -5.02708,3.70417 h -0.52917 l -1.32291,1.05833 v 1.32292 l -0.52917,0.52917 h 0.79375 0.26458 v 1.5875 l 1.32292,1.5875 v 0.26458 l 0.52917,2.38125 h 1.5875 z m -20.6375,-2.64583 2.11667,-1.85208 -0.26459,-0.79375 h 0.79375 v -1.05834 h 0.79375 l 1.5875,-0.52916 -0.52916,-0.52917 h 0.52916 l -0.52916,-0.79375 1.5875,-0.26458 0.79375,1.32291 0.52916,0.26459 1.85209,-0.52917 -0.26459,0.26458 0.79376,0.26459 0.26458,0.79375 1.85208,0.79375 1.05834,-0.52917 0.79375,-1.5875 v -1.32292 l -0.79375,-0.79375 -0.52917,-1.05833 -0.26458,-1.32292 1.32291,-4.7625 0.52917,-1.32291 2.11667,-1.85209 -0.52917,-1.32291 0.52917,-0.26459 0.26458,-0.26458 v -0.79375 l -0.26458,-0.52917 v -2.11667 l -0.79375,0.52917 -0.26459,1.05833 h -0.52916 v -0.52916 0.52916 h -1.32292 l 0.26458,-1.05833 -0.52916,-0.52917 v 0.26459 l -0.52917,2.91041 h -0.52917 l -0.79375,-0.79375 -0.79375,0.79375 -0.52916,0.52917 0.26458,2.38125 -1.05834,0.26459 0.26459,1.05833 -1.05834,1.05833 -1.5875,-0.26458 -2.38125,0.79375 -0.52916,-0.52917 -1.5875,-0.52916 -0.79375,0.79375 0.79375,0.79375 v 2.64583 1.05833 l -2.91042,0.79375 -0.26458,0.79375 0.52916,0.79375 v -1.05833 l 0.26459,0.52917 0.52916,1.85208 -0.52916,-0.52917 -0.79375,0.26459 -0.26459,-0.26459 -0.52916,2.64584 0.26458,2.64583 0.79375,1.32292 z m 26.19375,-8.99583 0.26459,-0.26459 0.26458,0.79375 h -0.52917 z m 7.40834,-9.78959 0.79375,-0.26458 2.11666,-0.79375 0.79375,-1.05834 -0.52916,-0.79375 0.52916,-0.79375 -0.26458,-2.38125 0.52917,-1.32291 -0.52917,-1.05834 -0.26458,-2.11666 -0.26459,-0.52917 -2.11666,-0.79375 h -1.5875 l -1.05834,0.26458 h -1.05833 l -1.05833,1.32292 -1.32292,-0.26458 -0.79375,-0.26459 -0.26458,-0.26458 -0.52917,0.26458 -0.26458,1.5875 -0.79375,0.26459 v 0.52916 l -1.5875,2.91042 h 1.05833 l 0.26458,-0.79375 v 0.79375 h 0.26459 l -0.26459,-0.52917 0.52917,0.26459 0.52917,-0.79375 -1.05834,1.85208 0.26459,1.32292 v 0.52916 h 0.52916 l -0.26458,2.11667 0.52917,-1.32292 0.79375,0.79375 0.52916,-0.26458 1.05834,1.32292 1.05833,-0.26459 0.79375,0.52917 1.5875,-0.26458 z m -46.30209,-7.40833 -0.52917,-2.11667 0.79375,0.52917 -0.26458,-1.05834 0.52917,-0.79375 h 0.52916 l -1.32291,-2.38125 1.5875,-1.05833 0.52916,-1.32292 -0.79375,-0.26458 -0.26458,0.52917 -0.52917,-0.79375 h -1.5875 l 0.26459,1.85208 v 0.26458 l -0.79375,0.26459 v 0.52916 h -0.79375 l 0.26458,5.02709 1.05833,1.32291 1.05834,-0.52916 0.26458,0.26458 z m 41.80417,-24.87084 h -0.26458 l -0.79375,-0.79375 v -1.05833 h -0.26459 l 1.85209,-1.05833 2.11666,-0.52917 0.52917,0.52917 0.79375,-1.05834 1.05833,0.79375 0.52917,-0.52916 0.26458,-0.79375 1.32292,-0.26459 v -0.79375 l -1.05833,-1.85208 0.26458,-3.175 -0.79375,-1.32292 h -1.5875 -1.32292 l -1.5875,-1.05833 h -0.26458 l -0.79375,0.26458 -0.52917,1.5875 -0.79375,-0.26458 -1.5875,0.79375 v -0.26458 l -0.26458,-0.52917 -2.91042,-0.79375 -0.79375,-0.52917 -1.32291,1.5875 -0.52917,0.26459 V 176.35 l -0.79375,1.32292 -0.52917,0.26458 0.79375,0.79375 -0.52916,1.32292 0.52916,1.05833 -0.26458,1.05834 0.79375,1.85208 2.11667,0.26458 0.79375,0.52917 1.5875,0.26458 0.26458,0.79375 h 1.05833 l 1.5875,0.79375 z m -13.49375,-1.05833 1.05833,-1.32292 -0.79375,-1.05833 0.52917,-0.52917 -1.05833,-0.79375 -1.05834,0.26459 -0.52916,0.26458 -1.05834,0.26458 -0.26458,2.38125 h 2.11667 z m -4.7625,-4.23333 0.26458,-1.32292 0.52917,0.79375 1.32292,-0.52917 V 179.525 l 0.79375,-0.79375 -0.26459,-0.79375 v -1.32291 h -1.32291 l -0.26459,-2.11667 0.26459,-0.26458 -0.26459,-1.05834 v -0.52916 h -0.26458 v -0.26459 l -0.26458,-1.05833 -1.05834,-1.32292 -1.32292,0.26459 h -1.05833 l -0.26458,-0.52917 -0.79375,1.32292 -0.52917,0.26458 -1.05833,0.26458 -1.05834,0.52917 -3.175,-0.52917 -1.32291,0.79375 -0.26459,0.26459 -0.26458,0.26458 0.52917,0.79375 0.52916,1.05833 -0.52916,0.79375 0.26458,1.85209 1.85208,-0.52917 -0.52916,1.05833 0.52916,1.32292 0.79375,0.79375 -0.26458,0.52917 2.64583,1.32291 1.32292,1.05834 1.5875,0.26458 0.79375,-1.05833 1.32292,0.26458 z m -6.35,22.75416 -1.85209,0.79375 -0.52916,0.79375 2.64583,2.11667 2.91042,-1.05833 2.38125,-0.52917 v -0.79375 l -0.52917,-1.32292 -0.79375,-0.52916 v -1.32292 l -1.85208,-1.5875 -0.26459,0.52917 -1.32291,0.52916 -0.26459,1.05834 -1.05833,0.26458 0.79375,0.52917 z"
         id="path6635" />
      <path
         style="fill:#b6f2dc;stroke:#000000;stroke-width:0.05291667;stroke-linejoin:round"
         inkscape:connector-curvature="0"
         d="m -631.56046,308.11251 0.79375,-0.79375 v -0.52917 l 0.79375,-0.26458 1.05833,-0.52917 0.26459,0.26458 h 0.79375 0.79375 0.52916 l 0.52917,-1.05833 -0.26458,-0.52917 0.52916,-1.32291 0.52917,-1.5875 -0.52917,-1.32292 -1.5875,0.26458 -1.85208,-0.79375 0.79375,-1.05833 v -1.85208 l 1.32292,-0.26459 0.79375,-0.52916 0.26458,-0.79375 0.26458,0.52916 0.52917,-0.26458 0.52917,-1.05833 0.79375,1.05833 1.32291,0.79375 -0.26458,-0.52917 0.79375,-0.52916 0.52917,-0.79375 0.79375,-0.26459 v -0.52916 l -0.52917,-0.26459 h 0.52917 l 0.52916,-0.52916 h 0.26459 v 1.32291 l 2.11666,2.64584 -0.52916,0.79375 -0.26459,0.52916 0.52917,1.32292 v 0.52917 l -1.85208,0.26458 -0.52917,1.05833 -0.26458,-0.52916 -0.52917,0.26458 -1.5875,1.5875 -0.26458,1.5875 -0.26459,0.26458 -1.05833,0.79375 -1.5875,0.79375 h -0.26458 v 0.52917 l 1.5875,0.52917 1.05833,-0.26459 0.52917,0.26459 v 0.52916 l 0.52916,0.79375 1.05834,-0.26458 2.11666,-0.79375 1.05834,0.26458 0.79375,-0.79375 1.5875,0.26459 0.79375,-1.32292 v -1.05833 l 0.26458,-0.52917 0.52917,-0.26458 v -1.05834 l 0.26458,-0.79375 -1.05833,-1.05833 -0.52917,-0.26458 -0.79375,0.52916 -0.26458,-1.5875 v -0.26458 l -1.05834,-0.26458 0.52917,-0.79375 h 1.32292 1.5875 l 1.85208,-1.85209 0.26458,-1.05833 h -1.5875 l -0.79375,-1.32292 0.26459,-0.52916 -0.79375,-0.52917 h -0.79375 l -0.26459,-0.79375 -2.11666,-1.05833 -1.32292,-1.05834 -1.5875,-0.52916 -1.05833,0.79375 -0.52917,-0.26459 -0.79375,-1.32291 0.26458,-1.85209 -0.26458,-0.52916 -0.52917,0.79375 -1.32291,-1.32292 v -0.79375 l -0.26459,-0.52917 1.32292,-1.85208 -1.85208,-0.79375 -1.05834,-2.64583 -0.52916,-0.26459 -0.52917,0.52917 -0.26458,1.05833 -1.5875,0.26459 -0.79375,0.26458 -0.26459,1.5875 h -0.79375 l -0.52916,0.79375 0.52916,2.11667 -0.52916,0.79375 -0.52917,-0.26459 -1.5875,1.85209 1.32292,1.32291 0.79375,1.5875 0.52916,0.26459 v 0.79375 l -1.32291,0.52916 -2.64584,-0.52916 0.26459,0.79375 1.32291,0.79375 0.26459,3.70416 -1.32292,1.05834 -0.52917,0.52916 -1.32291,0.52917 0.26458,1.85208 0.52917,-0.26458 0.26458,0.79375 -1.05833,0.52917 v 0.79375 l -0.79375,1.05833 0.26458,0.26458 0.26458,0.79375 1.5875,1.32292 v 1.32292 l 0.26459,0.79375 2.11666,-0.79375 1.5875,-0.26459 z m 34.925,-21.96042 0.52917,-1.85208 -1.5875,-0.52917 0.26458,-1.05833 v -0.26459 l -0.52917,-0.26458 0.26459,-0.26458 1.32291,-1.85209 -0.52916,-0.52916 -0.79375,-0.26459 0.52916,-0.79375 0.26459,-0.52916 -0.79375,-0.52917 -0.79375,-0.26458 -0.26459,-1.05834 -1.05833,-0.52916 -0.52917,-1.32292 0.26459,-0.79375 -0.26459,-1.5875 -1.5875,-2.91042 v -1.32291 l -1.05833,-0.52917 -1.05833,0.26458 -0.26459,2.11667 -0.52916,0.52917 -0.52917,-0.52917 h -0.79375 l -1.05833,-0.52917 -1.05834,0.26459 v -0.52917 l -0.52916,-0.26458 -0.26459,0.26458 v 0.52917 l -0.52916,0.79375 -0.79375,-0.52917 -0.52917,1.5875 -1.5875,-0.26458 v 0.26458 l -0.52917,0.79375 h -0.52916 l -0.52917,0.52917 h 0.52917 l -0.26459,1.32291 1.05834,0.79375 1.05833,0.79375 0.52917,-0.52916 0.26458,0.26458 1.05833,0.26458 2.11667,-0.52916 0.79375,1.05833 -0.52917,0.52917 -0.26458,0.52916 1.85208,1.85209 -0.52916,1.05833 -0.52917,-0.79375 -1.05833,-0.52917 -0.79375,-1.32291 -1.85209,1.05833 -1.5875,-0.79375 -0.52916,0.26458 -1.32292,0.52917 -1.32292,3.175 -1.05833,1.85208 v 0.79375 h 0.79375 0.52917 v 0.79375 l -0.79375,-0.26458 0.26458,1.05833 0.52917,0.26459 0.26458,0.52916 1.5875,0.52917 0.26458,1.5875 0.52917,0.79375 1.05833,0.26458 0.52917,0.52917 0.52917,-0.26458 0.79375,-1.05834 -0.26459,-0.52916 1.5875,-2.11667 0.26459,-1.05833 0.26458,-0.52917 2.64583,1.85208 0.52917,1.05834 2.11667,-2.11667 0.79375,-0.26458 0.79375,1.05833 h 1.05833 l 0.79375,1.5875 h 0.79375 l 0.79375,-0.52917 h 0.79375 l 0.26458,-0.79375 z m -26.9875,-12.7 1.32292,-0.52917 1.5875,-1.85208 0.26458,-2.38125 0.52917,-0.79375 0.26458,-2.11667 -0.79375,-0.79375 v -1.05833 l 0.52917,-1.05833 -0.26459,-2.11667 -1.05833,1.32292 -1.05833,0.26458 -0.52917,0.52917 -1.05833,1.32291 v 1.05834 l -1.32292,1.05833 -2.91042,-1.5875 -0.52916,-1.05833 -1.85209,-0.79375 -1.05833,1.5875 0.79375,0.79375 -0.52917,0.79375 -2.91041,0.79375 -0.79375,-1.05834 v -1.32291 l -0.79375,-0.52917 -1.5875,1.05833 -0.79375,-0.26458 v -0.79375 l -0.52917,-1.32292 2.11667,0.26459 0.26458,-0.52917 1.05833,-0.26458 v -0.26459 l 1.05834,-0.52916 -0.26459,-0.79375 -0.52916,-0.26459 0.26458,-0.79375 2.11667,0.52917 v -0.79375 h -1.05834 v -1.32292 l 0.52917,-1.05833 v -0.79375 l -0.52917,-0.26458 v 0.52916 l -0.79375,1.5875 -0.79375,-0.79375 -0.52916,-1.85208 -0.26459,-0.79375 -3.175,-1.32292 -1.32291,-0.26458 -1.85209,-1.85208 -1.32291,0.52916 -1.32292,-1.32291 -1.5875,0.26458 -2.38125,0.79375 -1.05833,1.05833 0.26458,0.26459 -0.26458,2.11666 -0.52917,0.52917 -1.5875,0.26458 -0.52917,2.11667 v 0.26458 l 0.52917,0.26459 0.26458,0.79375 1.05834,-0.26459 0.52916,0.52917 1.5875,-0.26458 h 0.52917 l 0.26458,1.32291 -0.26458,0.26459 0.26458,0.26458 2.64584,0.52917 0.26458,1.05833 0.79375,-0.52917 0.52917,0.26459 0.52916,1.32291 1.32292,2.38125 v 0.79375 l 0.79375,0.79375 v 0.79375 l 0.79375,0.52917 1.32292,-0.79375 1.85208,0.52917 0.52917,0.52916 2.11666,0.52917 0.79375,0.52917 v 0.79375 l 1.05834,0.52916 0.79375,0.52917 1.5875,-1.05833 0.79375,-0.26459 0.52916,1.05834 h 0.79375 l 0.52917,1.32291 1.85208,0.79375 0.26459,0.79375 1.32291,-0.52916 z m 13.75833,-11.90625 v -0.79375 l -0.79375,0.52917 -1.5875,-0.26459 v -0.52916 l 0.79375,-0.79375 -1.32291,1.05833 -2.38125,-0.52917 -1.32292,-1.85208 h -2.38125 l -1.5875,1.32292 0.26458,0.79375 1.05834,0.52916 1.5875,1.32292 h 0.79375 v 1.05833 l 0.52916,-0.52916 0.52917,0.52916 6.08542,-0.26458 z m 48.94792,-10.58333 1.32292,-1.32292 h 1.5875 l 0.52917,-2.38125 -1.05834,-1.85208 -0.26458,-0.26459 -0.52917,-0.52916 v -1.32292 l -1.5875,-0.52917 -0.52916,-1.5875 h -1.32292 v -0.26458 l -1.5875,-1.05833 h -0.26458 l 0.79375,-1.85209 v -1.5875 l -1.05834,-1.85208 -0.26458,-0.26458 -2.91042,-0.26459 v 0.79375 l -1.32291,1.05834 -3.175,0.26458 -0.79375,1.05833 -0.52917,0.52917 -0.26458,1.05833 v 0.26459 h -0.26459 l -0.52916,-1.05834 -0.79375,-0.26458 -0.26459,1.05833 -1.32291,1.32292 -2.64584,0.26458 -1.32291,0.52917 h -1.5875 l -0.26459,0.26458 1.05834,1.85209 -0.26459,1.5875 1.85209,0.52916 1.5875,0.52917 2.11666,1.05833 0.26459,0.52917 -0.52917,1.5875 0.26458,1.05833 0.26459,0.79375 0.26458,-0.52916 0.79375,0.79375 h 1.32292 l 0.26458,-0.79375 0.26458,-0.52917 0.79375,-0.79375 1.32292,0.52917 1.85208,-0.26459 1.32292,0.52917 0.52917,-0.52917 0.52916,-0.26458 0.79375,0.79375 h 0.52917 l -0.52917,1.5875 0.26459,1.05833 0.52916,0.52917 0.26459,0.26458 2.91041,-0.52916 0.79375,0.52916 0.79375,-1.85208 z m -59.79583,-2.64584 v -0.52916 l -0.26459,-2.11667 0.79375,-1.32292 -0.26458,-0.26458 0.79375,-6.08542 v -0.26458 h 0.79375 l 3.96875,-4.7625 1.05833,-0.79375 -0.52916,-0.79375 -0.26459,-0.26458 -0.52916,0.26458 0.79375,-0.79375 -0.52917,-0.52917 1.05833,-2.38125 -0.26458,-1.05833 -0.52917,-0.26458 -2.11666,1.05833 -1.05834,1.32292 -2.11666,1.5875 -1.32292,1.5875 -0.79375,2.11666 -1.5875,1.05834 -1.32292,1.5875 v 1.5875 l -2.11666,3.175 -0.52917,3.43958 1.5875,2.11667 2.11667,2.11666 0.26458,0.79375 0.52917,0.26459 0.79375,-0.26459 0.26458,-0.79375 z m 33.60208,-3.175 4.23334,0.79375 0.52916,-1.32291 -0.79375,-0.26459 -2.64583,0.26459 -4.7625,-0.79375 -2.11667,-0.26459 -0.26458,0.79375 h -1.32292 -0.52917 l -0.52916,0.26459 0.79375,1.05833 1.5875,0.79375 -0.26459,0.52917 0.79375,-0.26459 v 0.52917 h 0.26459 l -0.26459,0.26458 0.79375,0.26459 0.26459,0.26458 0.52917,-1.05833 1.85208,-0.26459 v -0.52916 z m -14.55208,-28.83958 1.85208,-1.32292 0.26458,0.52917 1.05834,-1.32292 v -0.79375 l 1.05833,-0.52917 0.52917,-1.32291 -0.26459,-1.85209 -2.38125,-1.05833 v -2.38125 l 0.52917,-0.26458 -0.26458,-1.05834 -0.79375,-0.79375 v -0.79375 l -1.5875,-0.52916 0.26458,-0.26459 -0.52917,-0.26458 -0.26458,-0.79375 -1.85208,-0.26458 -0.52917,0.52916 -2.38125,0.52917 -1.85208,1.5875 -0.79375,-0.26458 -1.05834,-1.32292 0.26459,-0.26458 -0.79375,-0.26459 v 0.52917 l -1.05834,0.79375 0.79375,0.26458 -0.52916,1.32292 -1.5875,1.05833 1.32291,2.38125 -0.26458,0.26459 0.52917,0.52916 -0.26459,0.79375 0.26459,0.79375 1.05833,-0.26458 h 0.26458 l 1.5875,-1.5875 0.26459,0.26458 0.26458,0.79375 0.79375,0.26459 v 1.05833 l 1.32292,0.79375 1.5875,-1.05833 h 1.05833 l 1.85208,0.52916 -1.05833,3.175 0.52917,1.5875 z m -14.02292,-5.55625 -0.26458,-5.02709 -0.79375,0.26459 -1.05834,-0.79375 -1.5875,0.26458 v -0.79375 l -0.52916,0.26458 -0.52917,0.52917 0.52917,0.52917 -0.52917,1.32291 h -0.52917 l -0.79375,0.52917 -1.85208,0.26458 -0.26458,0.26459 1.05833,1.32291 1.05833,-0.52916 0.52917,0.52916 h 2.11667 l 0.52916,0.79375 1.5875,-1.05833 1.05834,0.79375 z m 4.49792,-17.99167 h 0.79375 l 0.79375,-0.79375 0.79375,0.26458 0.79375,0.52917 0.52916,-0.26458 h 0.26459 V 189.05 l 0.79375,-1.5875 -1.05834,-0.52916 -0.52916,0.26458 -0.79375,-0.79375 -0.52917,0.26458 -0.52917,-0.26458 -1.32291,0.26458 -1.32292,0.79375 -0.79375,-0.26458 0.52917,-1.5875 -0.26459,-1.05833 0.79375,-0.52917 1.05834,-2.91042 1.85208,-2.91041 v -1.05834 l 0.79375,-1.5875 1.05833,-1.32291 0.52917,-0.79375 1.05833,-1.32292 -0.26458,-1.32292 1.05833,-1.85208 v -0.79375 l -1.05833,-0.26458 v -0.26459 -0.52916 l -1.5875,-0.52917 h -1.5875 l -0.52917,0.52917 -0.79375,-0.79375 -1.85208,-0.52917 -1.5875,0.79375 -1.85208,-0.52917 -0.52917,0.79375 0.79375,0.52917 -0.79375,0.79375 0.52917,1.05833 0.52916,0.52917 -0.26458,0.79375 -0.79375,0.79375 -0.52917,1.05833 -1.32291,1.85209 v 0.79375 l -2.64584,1.85208 -0.79375,1.05833 -1.05833,0.52917 h -0.26458 l -0.52917,1.05833 0.26458,1.5875 -0.52916,2.38125 0.52916,0.79375 -0.26458,0.79375 h 0.26458 l 0.26459,1.85209 0.52916,0.79375 1.85209,0.26458 0.52916,0.79375 1.05834,0.79375 v 1.5875 h 0.79375 l 0.26458,-0.52917 h 2.11667 v -1.05833 h 0.26458 l 2.38125,-1.32292 0.79375,1.32292 -0.52917,1.32292 1.05834,0.79375 v 0.79375 z m 39.6875,-6.08542 h -1.32292 l -1.5875,-0.79375 h -1.05833 l -0.26458,-0.79375 -1.5875,-0.26458 -0.79375,-0.52917 -2.11667,-0.26458 h -0.26458 l -1.05834,0.26458 -1.05833,-0.52916 -0.79375,0.79375 -0.52917,-0.26459 -1.05833,1.32292 1.05833,2.64583 1.5875,0.26459 0.79375,-0.26459 0.79375,1.32292 2.64584,1.5875 0.52916,0.26458 0.79375,-0.26458 0.26459,-1.85208 1.32291,-0.79375 0.79375,0.26458 1.32292,-0.26458 1.05833,-0.52917 z m 7.14375,-4.7625 1.32292,-0.52916 1.05833,-0.26459 1.32292,-0.52916 -0.52917,-1.32292 v -0.79375 l -1.05833,-0.52917 -0.26459,-0.52916 1.32292,-1.5875 0.26458,-1.05834 -1.05833,-1.05833 0.79375,-0.79375 v -1.05833 -1.05834 L -561.71046,170 l -1.85208,-0.26458 -1.32292,-1.05833 h -0.79375 l -0.26458,-0.79375 V 166.825 l -0.26458,-0.26458 -1.32292,0.26458 -0.52917,-0.79375 0.26459,-0.79375 -0.52917,-0.26458 v -1.5875 l 0.26458,-3.43958 -0.79375,-0.79375 -0.52916,-1.05834 -0.26459,-0.79375 h -1.85208 l -0.79375,-0.79375 -0.26458,0.26459 -1.32292,2.11666 -0.52917,1.05834 v 0.79375 l -2.11666,0.26458 -1.85209,1.85208 v 0.52917 l -0.79375,0.26458 v 2.38125 l 0.26459,-0.52916 0.26458,0.79375 h -0.52917 l 1.05834,0.52916 0.26458,0.79375 1.32292,1.05834 -0.26459,0.52916 -2.38125,0.52917 -1.32291,-0.79375 -0.26459,0.79375 0.26459,0.52917 -0.52917,1.05833 -0.52917,-0.26458 v 0.52916 l 0.79375,0.52917 -0.79375,1.32292 h 0.79375 v 2.11666 l 0.52917,0.26459 0.52917,-0.26459 1.32291,-1.5875 0.79375,0.52917 2.91042,0.79375 0.26458,0.52917 v 0.26458 l 1.5875,-0.79375 0.79375,0.26458 0.52917,-1.5875 0.79375,-0.26458 h 0.26458 l 1.5875,1.05833 h 1.32292 1.5875 l 0.79375,1.32292 -0.26458,3.175 1.05833,1.85208 z m -51.06459,66.93959 -0.52916,1.05833 -0.79375,-0.26458 -0.79375,1.85208 0.79375,1.05834 -0.26459,0.79375 0.79375,-0.26459 1.5875,0.79375 -0.79375,-1.5875 0.26459,-1.05833 0.26458,-0.79375 1.32292,0.52917 1.5875,-0.79375 -2.91042,-1.5875 z m 4.7625,1.85208 0.26459,0.79375 -0.79375,-0.52916 -0.52917,1.05833 0.26458,0.26458 1.05834,0.26459 -0.26459,0.79375 -0.52916,0.26458 -0.79375,-0.52917 v 0.52917 l -1.5875,0.52917 2.64583,0.52916 0.79375,-1.05833 1.05833,0.79375 0.79375,-0.79375 0.26459,-1.05833 0.26458,-0.79375 h -0.26458 l -0.26459,-1.05834 z"
         id="path6637" />
      <path
         style="fill:none;stroke:#000000;stroke-width:0.05291667;stroke-linecap:round;stroke-linejoin:round"
         inkscape:connector-curvature="0"
         d="m -581.55421,173.43959 h -0.52916 v -0.52917 l -0.79375,-0.26458 -0.52917,0.52916 v 2.11667 h -2.11667 l -0.52916,-1.32292 -0.52917,0.26459 -0.79375,-0.52917 0.26458,-1.05833 -0.79375,-0.26459 -0.79375,0.26459 m 2.38125,9.525 v -1.5875 l -1.32291,-0.26459 m -0.52917,4.7625 -1.85208,3.96875 1.5875,1.05834 0.79375,1.32291 0.79375,1.05834 0.26458,2.11666 0.79375,0.52917 -0.79375,0.79375 0.26458,0.52917 1.5875,1.05833 2.91042,-1.32292 h 0.79375 l 1.32292,1.05834 m -31.48542,-4.49792 -0.26459,1.32292 -1.32291,3.175 0.52916,0.26458 v 0.52917 l 0.52917,1.05833 1.05833,-0.26458 0.52917,-0.52917 0.79375,1.32292 -0.26458,0.79375 -1.05834,0.26458 0.52917,1.05833 -0.26458,0.26459 m 24.07708,-5.55625 -1.32291,1.5875 -1.05834,-0.26459 -0.26458,0.79375 -0.52917,1.05834 -1.05833,-0.26459 -0.52917,0.52917 -0.79375,-0.52917 -0.52917,0.79375 -1.32291,-0.52916 v 1.05833 m 0,-1.05833 -0.79375,-2.38125 -1.32292,-0.52917 v -1.05833 l -2.64583,0.26458 -1.32292,1.32292 -1.32292,0.26458 -0.52916,-0.52917 -2.38125,0.26459 -0.26459,1.85208 -0.79375,1.05833 v 0.79375 0.52917 l 0.52917,0.26458 m 6.08542,3.96875 -0.52917,0.26459 m 18.78542,0 -1.05833,0.26458 -1.85209,0.26458 -0.79375,0.79375 -0.26458,1.32292 -1.05833,0.26458 -1.32292,1.85209 h -0.79375 l 0.52917,1.32291 1.32291,0.52917 -0.26458,0.26458 0.26458,0.52917 -0.52916,1.5875 -1.05834,0.79375 m -36.5125,-7.67292 -1.5875,-1.05833 -1.32292,0.52917 0.26459,1.32291 -1.05834,2.91042 0.79375,0.79375 0.52917,0.26458 0.52917,0.79375 v 1.85209 l -0.52917,1.5875 0.26458,1.32291 1.85209,1.05834 2.11666,-0.26458 0.52917,-0.52917 0.26458,1.05833 0.26459,1.05834 -0.79375,1.32291 h 0.52916 l 1.5875,0.26459 0.26459,-0.52917 h 0.79375 0.26458 l -0.26458,0.26458 2.11666,0.52917 1.5875,-0.52917 1.85209,-0.26458 1.85208,-2.91042 v -0.52917 l 2.38125,-1.5875 -0.79375,-1.05833 h -0.79375 v -0.52917 h -0.79375 l 0.79375,-1.32291 -0.26458,-0.26459 0.26458,-1.5875 h 0.79375 l 0.79375,-1.05833 h 0.79375 m 31.22084,-2.91042 -1.5875,2.38125 -1.85209,1.05834 0.26459,-0.52917 -1.05834,0.52917 v -0.52917 l -0.26458,0.79375 -0.79375,1.85208 0.52917,0.79375 h -0.26459 -1.05833 l -0.26458,0.79375 1.5875,2.11667 1.85208,0.52917 0.79375,1.32292 v -0.52917 l 1.05833,0.26458 1.05834,-0.52917 1.85208,-1.05833 -0.52917,-0.52917 0.26459,-0.79375 m -52.38751,-4.23333 -0.52916,0.26458 -0.79375,2.11667 -2.38125,-0.26458 m 49.74167,3.43958 -0.26459,0.52917 -0.52916,0.52916 V 217.625 l -0.26459,-0.26458 -1.85208,0.52917 m -15.08125,6.08542 -2.64584,-2.64584 0.26459,-0.79375 -0.52917,-0.79375 -0.26458,-1.05833 0.79375,-2.38125 m 0.26458,12.96458 h -0.52917 l -1.5875,-1.05833 -0.79375,1.85208 -0.52916,2.11667 -0.52917,2.91042 -0.26458,0.79375 h -0.52917 v 1.32291 l -0.52917,0.52917 v 0.26458 m 2.38125,-7.9375 -4.23333,-1.05833 -0.79375,1.05833 v -1.85208 h -1.32292 l -0.52916,1.5875 -0.79375,0.52917 0.26458,-1.5875 -0.52917,-0.26459 -0.79375,0.79375 0.52917,0.26459 -0.26458,0.52916 -1.5875,1.32292 m 29.10417,1.85208 -0.52917,-0.26458 h -1.05833 m -6.87917,0.26458 -0.52917,1.32292 -0.79375,0.26458 -0.52917,2.64584 -0.79375,1.32291 -0.52916,0.52917 0.26458,0.26458 v 1.5875 l -1.32292,0.26459 v 0.52916 h -0.52916 l 0.26458,0.26459 -0.52917,0.52916 -0.52916,0.79375 -0.26459,0.79375 2.64584,2.11667 -0.52917,0.79375 1.05833,0.52917 0.52917,1.32291 m -5.55625,-10.84791 -0.79375,2.11666 -0.52917,0.52917 -0.79375,-0.52917 -1.05833,0.79375 m 5.02708,3.175 -1.32291,0.52917 -0.52917,0.79375 m -15.61042,7.67292 v 0.52916 l -0.52916,0.26459 v 1.85208 l -1.5875,1.85208 m 16.13958,9.26042 v -2.64583 l -1.05833,-1.32292 -0.26459,-1.32292 -1.05833,-0.52916 -3.175,-0.79375 -0.52917,1.05833 h -0.52916 v -0.52917 l -0.26459,-0.26458 m 21.16667,-88.10625 -1.05833,1.32291 1.05833,0.26459 -0.26458,0.79375 -1.32292,0.26458 v 0.79375 l -0.52916,0.79375 -1.85209,0.79375 -0.26458,1.32292 h -0.26459 l -2.11666,0.79375 v 0.26458 h -2.64584 m 29.63334,38.62917 -0.79375,-1.32292 -0.79375,-0.52917 -0.26458,-0.79375 0.26458,-0.52916 0.26458,-0.26459 -0.26458,-0.26458 -1.5875,0.26458 -0.52917,-0.79375 -0.26458,0.26459 0.26458,-1.05834 -1.05833,-4.23333 0.79375,-1.05833 m -19.05,24.60625 1.5875,-1.5875 1.05833,-1.5875 0.52917,-5.02708 v -0.79375 l 1.05833,-2.11667 -0.79375,-1.05833 -0.26458,-1.85209 v -0.52917 m -7.9375,13.75834 -0.52917,-0.26458 -0.79375,-1.5875 -0.79375,-0.26459 v -1.05833 l -0.26458,-0.52917 m 30.42708,5.55625 -2.38125,-1.32291 -1.05833,0.26458 -1.05833,-0.26458 -0.79375,1.05833 -0.26459,-0.52917 -1.32291,0.26459 -0.79375,-1.85209 -0.79375,1.32292 v 0.26458 l -3.70417,3.175 -1.32292,0.52917 -0.79375,-0.52917 -0.26458,1.32292 -0.79375,0.52917 m -21.43125,7.14375 v 0.26458 l -1.32292,1.32292 -1.05833,-0.79375 -0.52917,0.26458 v 0.52917 h -0.26458 l -0.52917,-0.26459 -0.79375,0.52917 -2.38125,-1.32292 -1.5875,1.85209 h -0.79375 l -0.79375,0.79375 m -5.55625,11.1125 h -0.79375 l -1.5875,-1.85209 h -1.32292 l -0.26458,-0.52916 -2.64583,-0.26459 -1.32292,0.79375 -1.32292,1.85209 -2.38125,-0.26459 -0.52916,-0.26458 m 18.52083,13.22917 -1.05833,0.26458 -1.05834,-0.26458 v -0.79375 l -1.5875,-0.26459 -0.52916,1.05834 -1.85209,-0.52917 m 7.40834,5.82083 -1.85209,-1.32291 -1.32291,-0.26459 v -0.52916 l -2.38125,-0.52917 -0.79375,-0.79375 m 48.68333,-100.54167 -0.79375,-1.05833 1.05834,-1.5875 -1.85209,-0.26459 -1.05833,0.26459 -1.05833,-0.26459 0.26458,-1.5875 -0.52917,-0.79375 0.52917,-0.26458 0.79375,-1.5875 -1.05833,-1.32292 h -0.79375 l -0.26459,-0.26458 1.05834,-2.91042 1.5875,-1.5875 -1.85209,0.26459 m 0,7.67291 v -0.52916 l -0.26458,-0.26459 -1.05833,1.32292 -0.79375,-0.26458 m -34.66042,12.43541 h -2.38125 l -1.32292,0.26459 v -0.52917 l -1.5875,-0.52917 -0.26458,-0.52916 h -1.05834 l 0.52917,0.52916 -1.85208,-1.32291 -3.70417,-0.52917 m 9.525,8.73125 -0.26458,0.26458 0.26458,0.79375 m 11.64167,14.55209 -2.11667,1.85208 0.52917,0.26458 -0.52917,0.26459 0.26458,0.79375 v 1.32291 l -1.85208,-1.05833 -0.52917,-0.52917 h -0.79375 l 0.26459,-0.52916 -0.52917,-1.5875 -1.85208,0.26458 -0.26459,0.79375 -0.52916,-0.26458 v 0.79375 l -0.26459,2.11666 0.52917,0.26459 0.26458,1.05833 m 9.525,0 v 0.52917 l -1.05833,-0.79375 -2.11667,0.52916 0.79375,2.38125 m -12.96458,18.78542 -0.52917,-0.26458 -2.11666,1.32292 -1.05834,-0.26459 -0.52916,-0.79375 -0.79375,0.26459 m 0.26458,7.40833 -0.79375,-0.26458 v -0.52917 l -0.52917,-0.52917 v -0.52916 l -0.79375,0.26458 -1.85208,-1.05833 m 59.00209,4.7625 -3.70417,-0.52917 -0.79375,-0.52917 -0.26458,-0.26458 -1.32292,-0.26458 -0.79375,-0.52917 -1.85208,-0.52917 m 12.43541,5.55625 h -1.85208 l -1.05833,0.52917 -1.32292,-0.52917 h -4.49792 v -0.79375 l -1.5875,-1.32291 -1.5875,-0.52917 -0.52916,-0.26458 v -0.79375 h -0.79375 m 4.49791,3.70416 -1.32291,0.26459 -0.26459,0.52916 -0.79375,-0.26458 -0.26458,0.79375 -0.26458,-0.26458 -0.26459,-0.52917 -0.79375,0.26458 0.26459,0.79375 h 0.79375 l -0.79375,0.79375 -1.05834,0.52917 -0.26458,0.79375 1.05833,2.64583 v 0.52917 m -63.76458,15.34583 v 0.52917 h -0.52917 l -0.26458,0.52917 -0.52917,0.52916 h -1.5875 l -0.26458,-0.52916 -1.32292,-0.26459 m 34.925,10.05417 1.32292,-1.32292 1.05833,-2.11666 -0.26458,-2.38125 m -3.175,15.08125 -0.52917,-0.52917 -1.32292,-1.5875 -0.52916,0.52917 -1.32292,-0.26459 -1.05833,0.26459 -1.85209,-1.85209 -0.79375,-0.26458 m 7.67292,3.175 1.32292,-4.7625 m -16.40417,10.58333 -0.79375,1.05834 -1.32292,0.79375 -0.79375,1.32291 h 0.79375 v 0.79375 l 0.26459,0.26459 m 5.02708,-4.23334 -0.26458,0.52917 0.26458,0.52917 -0.52917,0.79375 v 0.79375 m -8.20208,3.96875 h -1.05833 l -1.32292,-1.32292 -0.79375,-1.05833 v -1.5875 l -0.52917,-0.79375 m 2.91042,7.67291 -0.79375,2.11667 -0.52917,0.52917 v 0.79375 l -0.79375,-0.52917 -0.79375,0.52917 h -0.52916 v -1.85209 l 0.52916,-1.05833 -1.5875,-0.26458 -0.52916,-0.79375 h -0.79375 l -1.05834,-0.26459 m 18.25625,0.26459 -0.26458,0.26458 m -11.90625,6.87917 0.26458,-1.32292 -0.79375,-1.85208"
         id="path6639" />
      <path
         sodipodi:nodetypes="cccccccccccccccccccccccccccccccccccccccccccccccccccccccccccccccccccccccccccccccccccccccccccccccccccccccccccccc"
         style="fill:#eeeeee;stroke:#000000;stroke-width:0.05291667;stroke-linejoin:round"
         inkscape:connector-curvature="0"
         d="m -604.04379,194.60625 -0.52917,0.52917 -1.32292,-0.52917 -1.05833,0.79375 -0.52917,-0.26458 0.52917,0.52917 0.79375,-0.79375 1.5875,0.26458 z m -25.13542,34.92501 0.52917,0.26458 -0.26459,0.52917 0.26459,-0.52917 0.79375,1.05833 1.32291,0.52917 -1.32291,0.79375 -0.52917,2.11667 0.79375,-1.85209 1.5875,-1.05833 -1.85208,-0.79375 -1.32292,-1.5875 z m 27.51667,7.40833 -1.85209,1.05833 1.5875,1.85209 2.38125,-1.5875 -0.79375,-1.5875 z m -20.10834,-37.57084 h -1.05833 l 0.79375,0.26459 -1.05833,0.79375 z m 3.96875,-3.96875 -0.26458,-0.26458 -0.26458,0.26458 v 1.05834 l 0.52916,0.52916 z m 1.32292,-4.23333 -0.26458,-0.26458 h -0.79375 v 1.32291 z m 25.4,42.33334 v -0.26459 l -0.79375,0.52917 z m 7.14375,-33.33751 -0.26458,-0.26458 v 0.52917 z m -17.99167,58.73751 -0.26458,2.38125 0.79375,-1.32292 -0.26458,-0.26458 0.26458,-0.52917 -0.26458,-1.32292 h -0.26459 z m -6.61458,16.13958 0.79375,-0.26458 0.52917,1.05833 h 0.79375 v 0.52917 -0.52917 h -0.52917 l -1.05833,-1.05833 0.26458,-1.05834 z m -27.51667,-16.66875 -1.05833,-0.26458 0.52917,0.52916 1.32291,-0.26458 1.32292,-0.79375 v -0.52917 l -0.26458,-0.26458 -0.52917,0.79375 z m -14.02291,-1.85208 h 0.26458 l -0.26458,0.52916 0.79375,-0.52916 0.79375,0.52916 0.52916,-0.26458 h -0.26458 l 0.26458,-0.79375 0.26459,-0.26458 h -0.52917 l -0.26458,0.79375 h -0.52917 l -0.52917,-1.32292 v 0.79375 h -1.05833 0.79375 z m 56.88541,-83.87292 -0.26458,1.05833 1.5875,0.79375 v -1.05833 h 0.52917 l 0.26458,-0.52917 -0.79375,-0.26458 -0.52917,0.79375 -0.26458,-0.79375 z m -1.32291,7.67291 -0.26459,-0.26458 v 0.26458 z"
         id="path6641" />
    </g>
  </g>
</svg>
