<?xml version="1.0" encoding="UTF-8" standalone="no"?>
<!-- Created with Inkscape (http://www.inkscape.org/) -->

<svg
   xmlns:dc="http://purl.org/dc/elements/1.1/"
   xmlns:cc="http://creativecommons.org/ns#"
   xmlns:rdf="http://www.w3.org/1999/02/22-rdf-syntax-ns#"
   xmlns:svg="http://www.w3.org/2000/svg"
   xmlns="http://www.w3.org/2000/svg"
   xmlns:xlink="http://www.w3.org/1999/xlink"
   xmlns:sodipodi="http://sodipodi.sourceforge.net/DTD/sodipodi-0.dtd"
   xmlns:inkscape="http://www.inkscape.org/namespaces/inkscape"
   width="204.82057mm"
   height="102.16224mm"
   viewBox="0 0 204.82057 102.16224"
   version="1.1"
   id="svg7005"
   inkscape:version="0.92.4 (5da689c313, 2019-01-14)"
   sodipodi:docname="dist_tokyo.svg">
  <defs
     id="defs6999" />
  <sodipodi:namedview
     id="base"
     pagecolor="#ffffff"
     bordercolor="#666666"
     borderopacity="1.0"
     inkscape:pageopacity="0.0"
     inkscape:pageshadow="2"
     inkscape:zoom="0.35"
     inkscape:cx="240.17177"
     inkscape:cy="598.505"
     inkscape:document-units="mm"
     inkscape:current-layer="layer1"
     showgrid="false"
     fit-margin-top="0"
     fit-margin-left="0"
     fit-margin-right="0"
     fit-margin-bottom="0"
     inkscape:window-width="1511"
     inkscape:window-height="1582"
     inkscape:window-x="1513"
     inkscape:window-y="409"
     inkscape:window-maximized="0" />
  <metadata
     id="metadata7002">
    <rdf:RDF>
      <cc:Work
         rdf:about="">
        <dc:format>image/svg+xml</dc:format>
        <dc:type
           rdf:resource="http://purl.org/dc/dcmitype/StillImage" />
        <dc:title></dc:title>
      </cc:Work>
    </rdf:RDF>
  </metadata>
  <g
     inkscape:label="レイヤー 1"
     inkscape:groupmode="layer"
     id="layer1"
     transform="translate(83.956164,-205.02555)">
    <g
       id="g72"
       style="stroke-width:0.25;stroke-miterlimit:4;stroke-dasharray:none"
       transform="matrix(0.26458333,0,0,0.26458333,-83.956164,205.02555)">
      <a
         xlink:href="http://ja.wikipedia.org/wiki/茨城県"
         id="a74"
         style="stroke-width:0.25;stroke-miterlimit:4;stroke-dasharray:none">
        <g
           id="use76"
           style="stroke-width:0.25;stroke-miterlimit:4;stroke-dasharray:none">
          <path
             d="M 0,0"
             inkscape:connector-curvature="0"
             id="_x30_8000"
             style="fill:#eeeeee;stroke-width:0.25;stroke-miterlimit:4;stroke-dasharray:none" />
        </g>
      </a>
      <a
         xlink:href="http://ja.wikipedia.org/wiki/埼玉県"
         id="a78"
         style="stroke-width:0.25;stroke-miterlimit:4;stroke-dasharray:none">
        <g
           id="use80"
           style="stroke-width:0.25;stroke-miterlimit:4;stroke-dasharray:none" />
      </a>
      <a
         xlink:href="http://ja.wikipedia.org/wiki/千葉県"
         id="a82"
         style="stroke-width:0.25;stroke-miterlimit:4;stroke-dasharray:none">
        <g
           id="use84"
           style="stroke-width:0.25;stroke-miterlimit:4;stroke-dasharray:none" />
      </a>
      <a
         xlink:href="http://ja.wikipedia.org/wiki/神奈川県"
         id="a86"
         style="stroke-width:0.25;stroke-miterlimit:4;stroke-dasharray:none">
        <g
           id="use88"
           style="stroke-width:0.25;stroke-miterlimit:4;stroke-dasharray:none" />
      </a>
      <a
         xlink:href="http://ja.wikipedia.org/wiki/山梨県"
         id="a90"
         style="stroke-width:0.25;stroke-miterlimit:4;stroke-dasharray:none">
        <g
           id="use92"
           style="stroke-width:0.25;stroke-miterlimit:4;stroke-dasharray:none" />
      </a>
      <a
         xlink:href="http://ja.wikipedia.org/wiki/千代田区"
         id="a94"
         style="stroke-width:0.25;stroke-miterlimit:4;stroke-dasharray:none">
        <g
           id="use96"
           style="stroke-width:0.25;stroke-miterlimit:4;stroke-dasharray:none">
          <path
             d="m 636,223 7,5 8,1 9,-12 -2,-6 11,-8 -9,-8 -2,5 -17,-3 -11,13 v 7 z"
             inkscape:connector-curvature="0"
             id="_x31_3101"
             style="fill:#dcb6f2;stroke:#000000;stroke-width:0.25;stroke-linejoin:round;stroke-miterlimit:4;stroke-dasharray:none" />
        </g>
      </a>
      <a
         xlink:href="http://ja.wikipedia.org/wiki/中央区"
         id="a98"
         style="stroke-width:0.25;stroke-miterlimit:4;stroke-dasharray:none">
        <g
           id="use100"
           style="stroke-width:0.25;stroke-miterlimit:4;stroke-dasharray:none">
          <path
             d="m 656,245 7,7 12,-10 -2,-18 4,-10 -2,-4 -1,-4 v -1 l -5,-2 -11,8 2,6 -9,12 3,3 -2,6 5,4 z"
             inkscape:connector-curvature="0"
             id="_x31_3102"
             style="fill:#dcb6f2;stroke:#000000;stroke-width:0.25;stroke-linejoin:round;stroke-miterlimit:4;stroke-dasharray:none" />
        </g>
      </a>
      <a
         xlink:href="http://ja.wikipedia.org/wiki/港区"
         id="a102"
         style="stroke-width:0.25;stroke-miterlimit:4;stroke-dasharray:none">
        <g
           id="use104"
           style="stroke-width:0.25;stroke-miterlimit:4;stroke-dasharray:none">
          <path
             d="m 614,232 2,7 8,2 v 9 l -3,5 -1,6 h 6 l 3,3 4,8 17,-1 2,-3 v -6 l -5,-1 1,-4 5,2 -1,-8 1,-6 h 3 l 1,-3 -5,-4 2,-6 -3,-3 -8,-1 -7,-5 -6,-6 -8,2 -3,6 z m 47,40 8,-6 -4,-6 -4,3 3,-2 2,3 -7,5 z"
             inkscape:connector-curvature="0"
             id="_x31_3103"
             style="fill:#dcb6f2;stroke:#000000;stroke-width:0.25;stroke-linejoin:round;stroke-miterlimit:4;stroke-dasharray:none" />
        </g>
      </a>
      <a
         xlink:href="http://ja.wikipedia.org/wiki/新宿区"
         id="a106"
         style="stroke-width:0.25;stroke-miterlimit:4;stroke-dasharray:none">
        <g
           id="use108"
           style="stroke-width:0.25;stroke-miterlimit:4;stroke-dasharray:none">
          <path
             d="m 641,197 -2,-5 -8,1 -8,-5 -12,-1 -1,-9 -16,1 -5,-7 -3,10 4,1 2,5 1,2 9,-1 -5,4 -3,14 1,7 2,3 9,-7 5,1 7,7 -2,6 3,1 3,-6 8,-2 v -7 z"
             inkscape:connector-curvature="0"
             id="_x31_3104"
             style="fill:#dcb6f2;stroke:#000000;stroke-width:0.25;stroke-linejoin:round;stroke-miterlimit:4;stroke-dasharray:none" />
        </g>
      </a>
      <a
         xlink:href="http://ja.wikipedia.org/wiki/文京区"
         id="a110"
         style="stroke-width:0.25;stroke-miterlimit:4;stroke-dasharray:none">
        <g
           id="use112"
           style="stroke-width:0.25;stroke-miterlimit:4;stroke-dasharray:none">
          <path
             d="m 658,184 -4,-5 v -8 l -1,-2 -7,-2 -2,2 -4,-3 -6,6 v 4 l -9,-1 v 6 l -5,2 1,4 2,1 8,5 8,-1 2,5 17,3 2,-5 1,-3 -4,-1 -2,-8 z"
             inkscape:connector-curvature="0"
             id="_x31_3105"
             style="fill:#dcb6f2;stroke:#000000;stroke-width:0.25;stroke-linejoin:round;stroke-miterlimit:4;stroke-dasharray:none" />
        </g>
      </a>
      <a
         xlink:href="http://ja.wikipedia.org/wiki/台東区"
         id="a114"
         style="stroke-width:0.25;stroke-miterlimit:4;stroke-dasharray:none">
        <g
           id="use116"
           style="stroke-width:0.25;stroke-miterlimit:4;stroke-dasharray:none">
          <path
             d="m 669,203 5,2 14,-23 2,-9 -14,-3 -9,6 -13,-5 v 8 l 4,5 -3,-1 2,8 4,1 -1,3 z"
             inkscape:connector-curvature="0"
             id="_x31_3106"
             style="fill:#dcb6f2;stroke:#000000;stroke-width:0.25;stroke-linejoin:round;stroke-miterlimit:4;stroke-dasharray:none" />
        </g>
      </a>
      <a
         xlink:href="http://ja.wikipedia.org/wiki/墨田区"
         id="a118"
         style="stroke-width:0.25;stroke-miterlimit:4;stroke-dasharray:none">
        <g
           id="use120"
           style="stroke-width:0.25;stroke-miterlimit:4;stroke-dasharray:none">
          <path
             d="m 674,206 1,4 15,2 2,-5 6,-1 -1,-14 13,5 3,-7 -5,-5 7,-4 -17,-22 -4,4 -4,10 -2,9 -14,23 z"
             inkscape:connector-curvature="0"
             id="_x31_3107"
             style="fill:#dcb6f2;stroke:#000000;stroke-width:0.25;stroke-linejoin:round;stroke-miterlimit:4;stroke-dasharray:none" />
        </g>
      </a>
      <a
         xlink:href="http://ja.wikipedia.org/wiki/江東区"
         id="a122"
         style="stroke-width:0.25;stroke-miterlimit:4;stroke-dasharray:none">
        <g
           id="use124"
           style="stroke-width:0.25;stroke-miterlimit:4;stroke-dasharray:none">
          <path
             d="m 663,252 10,16 4,-2 5,7 3,-4 -2,-9 5,-1 v -3 l 21,-4 v 9 l -10,3 15,-2 1,-19 3,-3 1,-36 -9,-7 -13,-5 1,14 -6,1 -2,5 -15,-2 2,4 -4,10 2,18 z m 36,5 v 5 l 3,-1 v -3 l 6,-2 h -6 l 1,-2 z m 4,8 1,10 3,-1 3,8 4,-18 z m -34,1 -8,6 2,3 10,17 4,-7 -9,-14 3,-2 z m 3,4 7,11 2,-4 -6,-9 z"
             inkscape:connector-curvature="0"
             id="_x31_3108"
             style="fill:#dcb6f2;stroke:#000000;stroke-width:0.25;stroke-linejoin:round;stroke-miterlimit:4;stroke-dasharray:none" />
        </g>
      </a>
      <a
         xlink:href="http://ja.wikipedia.org/wiki/品川区"
         id="a126"
         style="stroke-width:0.25;stroke-miterlimit:4;stroke-dasharray:none">
        <g
           id="use128"
           style="stroke-width:0.25;stroke-miterlimit:4;stroke-dasharray:none">
          <path
             d="m 609,293 9,1 3,8 7,-3 2,7 13,-3 6,1 v 4 h 5 v -9 l 4,2 5,-3 -11,-19 v -11 l -2,3 -17,1 -4,-8 -3,-3 h -6 l 1,-6 h -1 l -4,4 2,8 -15,4 6,2 -6,8 v 6 z m 54,-18 -2,-3 -2,-3 h -1 l 2,7 z"
             inkscape:connector-curvature="0"
             id="_x31_3109"
             style="fill:#dcb6f2;stroke:#000000;stroke-width:0.25;stroke-linejoin:round;stroke-miterlimit:4;stroke-dasharray:none" />
        </g>
      </a>
      <a
         xlink:href="http://ja.wikipedia.org/wiki/目黒区"
         id="a130"
         style="stroke-width:0.25;stroke-miterlimit:4;stroke-dasharray:none">
        <g
           id="use132"
           style="stroke-width:0.25;stroke-miterlimit:4;stroke-dasharray:none">
          <path
             d="m 603,287 v -6 l 6,-8 -6,-2 15,-4 -2,-8 4,-4 -7,-1 -17,-18 -9,-2 7,11 2,12 -5,13 -14,-6 4,13 -3,9 h 11 l 2,7 v -3 l 4,-1 v -7 z"
             inkscape:connector-curvature="0"
             id="_x31_3110"
             style="fill:#dcb6f2;stroke:#000000;stroke-width:0.25;stroke-linejoin:round;stroke-miterlimit:4;stroke-dasharray:none" />
        </g>
      </a>
      <a
         xlink:href="http://ja.wikipedia.org/wiki/大田区"
         id="a134"
         style="stroke-width:0.25;stroke-miterlimit:4;stroke-dasharray:none">
        <g
           id="use136"
           style="stroke-width:0.25;stroke-miterlimit:4;stroke-dasharray:none">
          <path
             d="m 663,298 -5,3 -4,-2 v 9 h -5 v -4 l -6,-1 -13,3 -2,-7 -7,3 -3,-8 -9,-1 -6,-6 -8,-5 v 7 l -4,1 v 3 l -2,8 -6,-6 -7,-1 -6,4 4,2 -2,3 9,3 11,24 17,9 -4,8 4,7 11,-2 7,-5 5,3 5,-4 14,1 31,20 8,-16 -18,-29 -11,1 -6,8 -4,-4 -4,2 -8,-7 v -4 h -16 l 31,-3 4,-4 v 4 h 12 l 3,-2 -4,-6 -10,3 6,-7 z m -22,23 4,4 5,-2 -3,-6 z m 9,0 7,6 6,-9 h -12 z"
             inkscape:connector-curvature="0"
             id="_x31_3111"
             style="fill:#dcb6f2;stroke:#000000;stroke-width:0.25;stroke-linejoin:round;stroke-miterlimit:4;stroke-dasharray:none" />
        </g>
      </a>
      <a
         xlink:href="http://ja.wikipedia.org/wiki/世田谷区"
         id="a138"
         style="stroke-width:0.25;stroke-miterlimit:4;stroke-dasharray:none">
        <g
           id="use140"
           style="stroke-width:0.25;stroke-miterlimit:4;stroke-dasharray:none">
          <path
             d="m 522,273 v 4 h 5 l 17,4 19,15 9,7 2,-3 -4,-2 6,-4 7,1 6,6 2,-8 -2,-7 h -11 l 3,-9 -4,-13 14,6 5,-13 -2,-12 -7,-11 -4,-8 h -6 l -18,6 -11,-5 -10,-5 4,6 h -6 l -2,-8 -9,-3 h -2 -5 l 2,7 -4,1 5,4 v 3 l -2,2 5,12 v 5 h -4 l -2,5 7,13 z"
             inkscape:connector-curvature="0"
             id="_x31_3112"
             style="fill:#dcb6f2;stroke:#000000;stroke-width:0.25;stroke-linejoin:round;stroke-miterlimit:4;stroke-dasharray:none" />
        </g>
      </a>
      <a
         xlink:href="http://ja.wikipedia.org/wiki/渋谷区"
         id="a142"
         style="stroke-width:0.25;stroke-miterlimit:4;stroke-dasharray:none">
        <g
           id="use144"
           style="stroke-width:0.25;stroke-miterlimit:4;stroke-dasharray:none">
          <path
             d="m 587,234 9,2 17,18 7,1 h 1 l 3,-5 v -9 l -8,-2 -2,-7 5,-7 -3,-1 2,-6 -7,-7 -5,-1 -9,7 -2,-3 -1,-7 -15,15 -2,4 h 6 z"
             inkscape:connector-curvature="0"
             id="_x31_3113"
             style="fill:#dcb6f2;stroke:#000000;stroke-width:0.25;stroke-linejoin:round;stroke-miterlimit:4;stroke-dasharray:none" />
        </g>
      </a>
      <a
         xlink:href="http://ja.wikipedia.org/wiki/中野区"
         id="a146"
         style="stroke-width:0.25;stroke-miterlimit:4;stroke-dasharray:none">
        <g
           id="use148"
           style="stroke-width:0.25;stroke-miterlimit:4;stroke-dasharray:none">
          <path
             d="m 581,208 -6,4 4,10 15,-15 3,-14 5,-4 -9,1 -1,-2 -2,-5 -4,-1 3,-10 v -1 l -5,-3 -9,8 h -12 l -9,-9 h -4 l -2,5 6,12 15,7 h 5 l 2,13 5,1 z"
             inkscape:connector-curvature="0"
             id="_x31_3114"
             style="fill:#dcb6f2;stroke:#000000;stroke-width:0.25;stroke-linejoin:round;stroke-miterlimit:4;stroke-dasharray:none" />
        </g>
      </a>
      <a
         xlink:href="http://ja.wikipedia.org/wiki/杉並区"
         id="a150"
         style="stroke-width:0.25;stroke-miterlimit:4;stroke-dasharray:none">
        <g
           id="use152"
           style="stroke-width:0.25;stroke-miterlimit:4;stroke-dasharray:none">
          <path
             d="m 579,222 -4,-10 6,-4 v -3 l -5,-1 -2,-13 h -5 l -15,-7 -6,-12 -15,3 -8,8 -5,-2 -1,8 7,6 -7,11 6,4 -3,2 3,5 9,3 2,8 h 6 l -4,-6 10,5 11,5 18,-6 z"
             inkscape:connector-curvature="0"
             id="_x31_3115"
             style="fill:#dcb6f2;stroke:#000000;stroke-width:0.25;stroke-linejoin:round;stroke-miterlimit:4;stroke-dasharray:none" />
        </g>
      </a>
      <a
         xlink:href="http://ja.wikipedia.org/wiki/豊島区"
         id="a154"
         style="stroke-width:0.25;stroke-miterlimit:4;stroke-dasharray:none">
        <g
           id="use156"
           style="stroke-width:0.25;stroke-miterlimit:4;stroke-dasharray:none">
          <path
             d="m 646,167 -8,-7 -6,1 -1,-4 -4,1 -2,4 -4,-5 h -7 l -5,9 -4,-6 -5,-1 -9,4 -1,6 -1,2 v 1 l 5,7 16,-1 1,9 12,1 -2,-1 -1,-4 5,-2 v -6 l 9,1 v -4 l 6,-6 4,3 z"
             inkscape:connector-curvature="0"
             id="_x31_3116"
             style="fill:#dcb6f2;stroke:#000000;stroke-width:0.25;stroke-linejoin:round;stroke-miterlimit:4;stroke-dasharray:none" />
        </g>
      </a>
      <a
         xlink:href="http://ja.wikipedia.org/wiki/北区"
         id="a158"
         style="stroke-width:0.25;stroke-miterlimit:4;stroke-dasharray:none">
        <g
           id="use160"
           style="stroke-width:0.25;stroke-miterlimit:4;stroke-dasharray:none">
          <path
             d="m 646,167 7,2 3,-3 4,-2 -2,-3 -14,-9 1,-3 5,-1 -7,-4 8,-6 v -4 l -10,3 -8,-5 2,-8 v -7 h -10 l -3,-3 -11,-1 -7,-6 h -1 l -5,11 5,4 5,-1 3,16 7,6 5,9 -2,5 4,5 2,-4 4,-1 1,4 6,-1 z"
             inkscape:connector-curvature="0"
             id="_x31_3117"
             style="fill:#dcb6f2;stroke:#000000;stroke-width:0.25;stroke-linejoin:round;stroke-miterlimit:4;stroke-dasharray:none" />
        </g>
      </a>
      <a
         xlink:href="http://ja.wikipedia.org/wiki/荒川区"
         id="a162"
         style="stroke-width:0.25;stroke-miterlimit:4;stroke-dasharray:none">
        <g
           id="use164"
           style="stroke-width:0.25;stroke-miterlimit:4;stroke-dasharray:none">
          <path
             d="m 654,171 13,5 9,-6 14,3 4,-10 -17,-2 -3,-5 2,-4 -5,-3 -21,-1 -5,1 -1,3 14,9 2,3 -4,2 -3,3 z"
             inkscape:connector-curvature="0"
             id="_x31_3118"
             style="fill:#dcb6f2;stroke:#000000;stroke-width:0.25;stroke-linejoin:round;stroke-miterlimit:4;stroke-dasharray:none" />
        </g>
      </a>
      <a
         xlink:href="http://ja.wikipedia.org/wiki/板橋区"
         id="a166"
         style="stroke-width:0.25;stroke-miterlimit:4;stroke-dasharray:none">
        <g
           id="use168"
           style="stroke-width:0.25;stroke-miterlimit:4;stroke-dasharray:none">
          <path
             d="m 623,152 -5,-9 -7,-6 -3,-16 -5,1 -5,-4 5,-11 -29,-2 -9,3 h -4 l -3,6 -10,10 v 1 l 8,10 6,-2 20,3 4,9 -1,13 6,1 v 4 l 9,-4 5,1 4,6 5,-9 h 7 z"
             inkscape:connector-curvature="0"
             id="_x31_3119"
             style="fill:#dcb6f2;stroke:#000000;stroke-width:0.25;stroke-linejoin:round;stroke-miterlimit:4;stroke-dasharray:none" />
        </g>
      </a>
      <a
         xlink:href="http://ja.wikipedia.org/wiki/練馬区"
         id="a170"
         style="stroke-width:0.25;stroke-miterlimit:4;stroke-dasharray:none">
        <g
           id="use172"
           style="stroke-width:0.25;stroke-miterlimit:4;stroke-dasharray:none">
          <path
             d="m 503,180 16,9 1,-8 5,2 8,-8 15,-3 2,-5 h 4 l 9,9 h 12 l 9,-8 5,3 1,-2 1,-6 v -4 l -6,-1 1,-13 -4,-9 -20,-3 -6,2 -8,-10 -1,11 -4,1 -2,-4 -13,2 5,-5 -6,-3 v -1 h -2 -4 l -5,7 -9,5 v 2 l -6,2 5,11 z"
             inkscape:connector-curvature="0"
             id="_x31_3120"
             style="fill:#dcb6f2;stroke:#000000;stroke-width:0.25;stroke-linejoin:round;stroke-miterlimit:4;stroke-dasharray:none" />
        </g>
      </a>
      <a
         xlink:href="http://ja.wikipedia.org/wiki/足立区"
         id="a174"
         style="stroke-width:0.25;stroke-miterlimit:4;stroke-dasharray:none">
        <g
           id="use176"
           style="stroke-width:0.25;stroke-miterlimit:4;stroke-dasharray:none">
          <path
             d="m 694,143 h 4 l 2,4 1,-6 4,4 2,-6 4,1 6,-6 10,3 -10,-20 1,-9 -7,-4 -9,7 -4,-7 3,-10 -3,-3 v 3 l -4,3 -13,3 -13,-1 -10,-10 -10,4 -4,4 8,14 -4,7 h -6 l -7,6 -2,8 8,5 10,-3 v 4 l -8,6 7,4 21,1 5,3 -2,4 3,5 17,2 4,-4 -5,-11 z"
             inkscape:connector-curvature="0"
             id="_x31_3121"
             style="fill:#dcb6f2;stroke:#000000;stroke-width:0.25;stroke-linejoin:round;stroke-miterlimit:4;stroke-dasharray:none" />
        </g>
      </a>
      <a
         xlink:href="http://ja.wikipedia.org/wiki/葛飾区"
         id="a178"
         style="stroke-width:0.25;stroke-miterlimit:4;stroke-dasharray:none">
        <g
           id="use180"
           style="stroke-width:0.25;stroke-miterlimit:4;stroke-dasharray:none">
          <path
             d="m 715,181 7,8 6,-3 6,2 4,-24 h 3 l 7,-8 -4,-4 7,-1 -8,-16 2,-4 9,-6 v -4 l -13,2 -4,-6 4,-6 -2,-3 -12,2 -2,4 -7,-6 -1,9 10,20 -10,-3 -6,6 -4,-1 -2,6 -4,-4 -1,6 -2,-4 h -4 l -1,5 5,11 z"
             inkscape:connector-curvature="0"
             id="_x31_3122"
             style="fill:#dcb6f2;stroke:#000000;stroke-width:0.25;stroke-linejoin:round;stroke-miterlimit:4;stroke-dasharray:none" />
        </g>
      </a>
      <a
         xlink:href="http://ja.wikipedia.org/wiki/江戸川区"
         id="a182"
         style="stroke-width:0.25;stroke-miterlimit:4;stroke-dasharray:none">
        <g
           id="use184"
           style="stroke-width:0.25;stroke-miterlimit:4;stroke-dasharray:none">
          <path
             d="m 710,197 9,7 -1,36 h 4 l -1,14 8,3 10,-1 8,-5 3,-10 -1,-15 -1,-1 1,-6 16,-5 9,-13 -2,-9 -12,-13 -3,-6 3,-13 -8,-8 -1,-1 -7,1 4,4 -7,8 h -3 l -4,24 -6,-2 -6,3 -7,-8 -7,4 5,5 z m 11,63 v -3 l 6,1 v 3 l 1,-2 -6,-3 z m 7,1 2,-2 5,2 -1,2 1,-2 -4,-2 z"
             inkscape:connector-curvature="0"
             id="_x31_3123"
             style="fill:#dcb6f2;stroke:#000000;stroke-width:0.25;stroke-linejoin:round;stroke-miterlimit:4;stroke-dasharray:none" />
        </g>
      </a>
      <a
         xlink:href="http://ja.wikipedia.org/wiki/八王子市"
         id="a186"
         style="stroke-width:0.25;stroke-miterlimit:4;stroke-dasharray:none">
        <g
           id="use188"
           style="stroke-width:0.25;stroke-miterlimit:4;stroke-dasharray:none">
          <path
             d="m 246,281 8,7 9,5 4,-3 6,2 3,-7 7,-9 7,-3 5,2 v 5 l 11,-1 6,3 11,-3 6,2 v -9 l 4,13 5,2 7,3 5,-4 16,10 1,-6 5,-3 8,-12 8,-5 12,-6 -12,-14 -13,7 -16,-1 1,-3 -8,-1 -8,-10 v -4 l 11,-6 3,-19 3,-1 -3,-4 -27,-2 -3,-2 -4,-13 1,-3 -2,1 -8,-7 -3,5 -5,-2 -3,4 -1,-2 -6,2 -17,-3 -4,5 -10,-3 -5,2 -24,-8 -9,8 -5,21 -21,-1 -8,20 4,6 1,10 12,6 11,-8 12,5 1,10 5,7 -2,3 7,6 z"
             inkscape:connector-curvature="0"
             id="_x31_3201"
             style="fill:#f6bad3;stroke:#000000;stroke-width:0.25;stroke-linejoin:round;stroke-miterlimit:4;stroke-dasharray:none" />
        </g>
      </a>
      <a
         xlink:href="http://ja.wikipedia.org/wiki/立川市"
         id="a190"
         style="stroke-width:0.25;stroke-miterlimit:4;stroke-dasharray:none">
        <g
           id="use192"
           style="stroke-width:0.25;stroke-miterlimit:4;stroke-dasharray:none">
          <path
             d="m 365,208 25,8 3,-5 3,2 4,-4 1,-6 -5,-5 4,-1 5,-4 -6,-7 2,-1 -3,-1 4,-2 8,7 2,-10 -1,-1 -17,-6 h 3 l -9,-3 -15,-1 -9,-10 1,4 5,7 -6,-2 v 2 l -18,-6 -5,3 1,10 h 19 v 4 l 14,9 z"
             inkscape:connector-curvature="0"
             id="_x31_3202"
             style="fill:#f6bad3;stroke:#000000;stroke-width:0.25;stroke-linejoin:round;stroke-miterlimit:4;stroke-dasharray:none" />
        </g>
      </a>
      <a
         xlink:href="http://ja.wikipedia.org/wiki/武蔵野市"
         id="a194"
         style="stroke-width:0.25;stroke-miterlimit:4;stroke-dasharray:none">
        <g
           id="use196"
           style="stroke-width:0.25;stroke-miterlimit:4;stroke-dasharray:none">
          <path
             d="m 500,198 8,4 4,-3 7,7 7,-11 -7,-6 -16,-9 h -8 l -13,9 -6,-1 v -4 h -3 l -1,4 6,3 1,10 2,3 11,1 -1,-11 z"
             inkscape:connector-curvature="0"
             id="_x31_3203"
             style="fill:#f6bad3;stroke:#000000;stroke-width:0.25;stroke-linejoin:round;stroke-miterlimit:4;stroke-dasharray:none" />
        </g>
      </a>
      <a
         xlink:href="http://ja.wikipedia.org/wiki/三鷹市"
         id="a198"
         style="stroke-width:0.25;stroke-miterlimit:4;stroke-dasharray:none">
        <g
           id="use200"
           style="stroke-width:0.25;stroke-miterlimit:4;stroke-dasharray:none">
          <path
             d="m 523,217 h 2 l -3,-5 3,-2 -6,-4 -7,-7 -4,3 -8,-4 -9,-4 1,11 -11,-1 -2,-3 -1,10 -6,-2 2,6 1,3 -3,1 5,11 3,-1 5,5 2,-3 -2,-3 1,-10 12,-2 2,2 3,15 6,1 2,4 5,-5 -5,-8 10,4 -5,-4 4,-1 -2,-7 z"
             inkscape:connector-curvature="0"
             id="_x31_3204"
             style="fill:#f6bad3;stroke:#000000;stroke-width:0.25;stroke-linejoin:round;stroke-miterlimit:4;stroke-dasharray:none" />
        </g>
      </a>
      <a
         xlink:href="http://ja.wikipedia.org/wiki/青梅市"
         id="a202"
         style="stroke-width:0.25;stroke-miterlimit:4;stroke-dasharray:none">
        <g
           id="use204"
           style="stroke-width:0.25;stroke-miterlimit:4;stroke-dasharray:none">
          <path
             d="m 195,126 11,-7 12,-3 14,15 8,-1 8,5 13,2 6,6 h 24 l 6,6 -3,-20 5,-6 4,3 6,3 7,-2 3,-3 -5,-8 6,2 3,-6 -5,-3 -6,-17 v -4 -6 l -8,3 -2,-12 h -6 l -3,-3 -4,2 -3,-4 -4,1 -12,3 -14,-1 -2,-4 -6,4 -15,-9 h -4 l -3,5 -11,-1 -18,-8 h -1 l 2,7 9,10 -2,24 -22,14 1,9 -8,4 v 5 l 5,-4 3,2 v -4 l 5,6 h 3 v -5 z"
             inkscape:connector-curvature="0"
             id="_x31_3205"
             style="fill:#f6bad3;stroke:#000000;stroke-width:0.25;stroke-linejoin:round;stroke-miterlimit:4;stroke-dasharray:none" />
        </g>
      </a>
      <a
         xlink:href="http://ja.wikipedia.org/wiki/府中市"
         id="a206"
         style="stroke-width:0.25;stroke-miterlimit:4;stroke-dasharray:none">
        <g
           id="use208"
           style="stroke-width:0.25;stroke-miterlimit:4;stroke-dasharray:none">
          <path
             d="m 409,240 24,8 9,-3 13,3 7,-2 7,5 v -7 l -3,-2 4,-8 3,-8 -4,-9 1,-5 -3,-4 -3,3 v 2 l -6,-1 -5,3 2,-3 -4,2 -5,-5 -1,-5 -9,6 -9,1 v -3 l -2,-8 -3,7 -4,4 -3,14 2,2 -5,-2 -13,3 z"
             inkscape:connector-curvature="0"
             id="_x31_3206"
             style="fill:#f6bad3;stroke:#000000;stroke-width:0.25;stroke-linejoin:round;stroke-miterlimit:4;stroke-dasharray:none" />
        </g>
      </a>
      <a
         xlink:href="http://ja.wikipedia.org/wiki/昭島市"
         id="a210"
         style="stroke-width:0.25;stroke-miterlimit:4;stroke-dasharray:none">
        <g
           id="use212"
           style="stroke-width:0.25;stroke-miterlimit:4;stroke-dasharray:none">
          <path
             d="m 358,208 h 7 l 10,-19 -14,-9 v -4 h -19 l -2,3 -9,2 -1,3 -5,4 -1,3 4,13 3,2 z"
             inkscape:connector-curvature="0"
             id="_x31_3207"
             style="fill:#f6bad3;stroke:#000000;stroke-width:0.25;stroke-linejoin:round;stroke-miterlimit:4;stroke-dasharray:none" />
        </g>
      </a>
      <a
         xlink:href="http://ja.wikipedia.org/wiki/調布市"
         id="a214"
         style="stroke-width:0.25;stroke-miterlimit:4;stroke-dasharray:none">
        <g
           id="use216"
           style="stroke-width:0.25;stroke-miterlimit:4;stroke-dasharray:none">
          <path
             d="m 473,254 17,6 11,4 2,-14 7,-4 10,5 h 4 v -5 l -5,-12 2,-2 v -3 l -10,-4 5,8 -5,5 -2,-4 -6,-1 -3,-15 -2,-2 -12,2 -1,10 2,3 -2,3 -5,-5 -3,1 -5,-11 3,-1 -1,-3 -4,-3 -1,5 4,9 -3,8 -4,8 3,2 v 7 z"
             inkscape:connector-curvature="0"
             id="_x31_3208"
             style="fill:#f6bad3;stroke:#000000;stroke-width:0.25;stroke-linejoin:round;stroke-miterlimit:4;stroke-dasharray:none" />
        </g>
      </a>
      <a
         xlink:href="http://ja.wikipedia.org/wiki/町田市"
         id="a218"
         style="stroke-width:0.25;stroke-miterlimit:4;stroke-dasharray:none">
        <g
           id="use220"
           style="stroke-width:0.25;stroke-miterlimit:4;stroke-dasharray:none">
          <path
             d="m 449,305 -8,-5 -10,-7 -4,-8 -9,5 -4,-7 -2,3 -5,-1 -4,5 -5,-3 -4,1 -5,-5 -17,4 -5,3 -1,6 -16,-10 -5,4 -7,-3 -5,-2 -4,-13 v 9 l -6,-2 -11,3 -6,-3 -11,1 v -5 l -5,-2 -7,3 -7,9 11,-3 6,1 10,7 h 15 l 5,2 7,-3 17,6 23,13 6,1 3,8 h 5 l 5,13 4,2 9,13 9,4 6,9 3,6 -1,6 6,2 3,14 14,-1 -4,-3 -2,-4 7,-8 -1,-12 1,-3 -5,-7 v -15 l -9,-4 1,-6 5,-12 7,-2 3,1 -5,11 6,10 12,-10 1,-4 -10,-6 z"
             inkscape:connector-curvature="0"
             id="_x31_3209"
             style="fill:#f6bad3;stroke:#000000;stroke-width:0.25;stroke-linejoin:round;stroke-miterlimit:4;stroke-dasharray:none" />
        </g>
      </a>
      <a
         xlink:href="http://ja.wikipedia.org/wiki/小金井市"
         id="a222"
         style="stroke-width:0.25;stroke-miterlimit:4;stroke-dasharray:none">
        <g
           id="use224"
           style="stroke-width:0.25;stroke-miterlimit:4;stroke-dasharray:none">
          <path
             d="m 470,212 4,3 -2,-6 6,2 1,-10 -1,-10 -6,-3 1,-4 -2,-2 -11,3 -1,4 -9,-1 v 3 l -8,1 -1,6 6,2 -2,4 1,5 5,5 4,-2 -2,3 5,-3 6,1 v -2 l 3,-3 z"
             inkscape:connector-curvature="0"
             id="_x31_3210"
             style="fill:#f6bad3;stroke:#000000;stroke-width:0.25;stroke-linejoin:round;stroke-miterlimit:4;stroke-dasharray:none" />
        </g>
      </a>
      <a
         xlink:href="http://ja.wikipedia.org/wiki/小平市"
         id="a226"
         style="stroke-width:0.25;stroke-miterlimit:4;stroke-dasharray:none">
        <g
           id="use228"
           style="stroke-width:0.25;stroke-miterlimit:4;stroke-dasharray:none">
          <path
             d="m 412,179 20,7 v 4 l 3,2 3,-5 4,5 8,-1 v -3 l 9,1 1,-4 11,-3 -5,-11 2,-2 1,-6 h -2 l -3,-2 -1,3 v -3 3 h -4 l -1,-4 -2,10 v -10 l -4,-3 -6,4 -1,-3 -3,1 1,9 -6,-1 -1,-5 -9,-3 -11,6 -8,1 -11,6 h -3 l 17,6 z"
             inkscape:connector-curvature="0"
             id="_x31_3211"
             style="fill:#f6bad3;stroke:#000000;stroke-width:0.25;stroke-linejoin:round;stroke-miterlimit:4;stroke-dasharray:none" />
        </g>
      </a>
      <a
         xlink:href="http://ja.wikipedia.org/wiki/日野市"
         id="a230"
         style="stroke-width:0.25;stroke-miterlimit:4;stroke-dasharray:none">
        <g
           id="use232"
           style="stroke-width:0.25;stroke-miterlimit:4;stroke-dasharray:none">
          <path
             d="m 406,247 3,-7 -10,-12 -9,-12 -25,-8 h -7 l 3,4 -3,1 -3,19 -11,6 v 4 l 8,10 8,1 -1,3 16,1 13,-7 1,-2 8,5 6,-7 z"
             inkscape:connector-curvature="0"
             id="_x31_3212"
             style="fill:#f6bad3;stroke:#000000;stroke-width:0.25;stroke-linejoin:round;stroke-miterlimit:4;stroke-dasharray:none" />
        </g>
      </a>
      <a
         xlink:href="http://ja.wikipedia.org/wiki/東村山市"
         id="a234"
         style="stroke-width:0.25;stroke-miterlimit:4;stroke-dasharray:none">
        <g
           id="use236"
           style="stroke-width:0.25;stroke-miterlimit:4;stroke-dasharray:none">
          <path
             d="m 457,142 -6,-1 3,-3 -3,-8 -1,-2 1,-2 -1,-3 -5,2 -5,-1 -7,5 -25,8 -1,3 5,9 4,16 11,-6 9,3 1,5 6,1 -1,-9 7,-14 z"
             inkscape:connector-curvature="0"
             id="_x31_3213"
             style="fill:#f6bad3;stroke:#000000;stroke-width:0.25;stroke-linejoin:round;stroke-miterlimit:4;stroke-dasharray:none" />
        </g>
      </a>
      <a
         xlink:href="http://ja.wikipedia.org/wiki/国分寺市"
         id="a238"
         style="stroke-width:0.25;stroke-miterlimit:4;stroke-dasharray:none">
        <g
           id="use240"
           style="stroke-width:0.25;stroke-miterlimit:4;stroke-dasharray:none">
          <path
             d="m 422,207 3,-7 2,8 v 3 l 9,-1 9,-6 2,-4 -6,-2 1,-6 -4,-5 -3,5 -3,-2 v -4 l -20,-7 -2,10 -8,-7 -4,2 3,1 -2,1 6,7 -5,4 14,2 z"
             inkscape:connector-curvature="0"
             id="_x31_3214"
             style="fill:#f6bad3;stroke:#000000;stroke-width:0.25;stroke-linejoin:round;stroke-miterlimit:4;stroke-dasharray:none" />
        </g>
      </a>
      <a
         xlink:href="http://ja.wikipedia.org/wiki/国立市"
         id="a242"
         style="stroke-width:0.25;stroke-miterlimit:4;stroke-dasharray:none">
        <g
           id="use244"
           style="stroke-width:0.25;stroke-miterlimit:4;stroke-dasharray:none">
          <path
             d="m 422,207 -8,-8 -14,-2 -4,1 5,5 -1,6 -4,4 -3,-2 -3,5 9,12 13,-3 5,2 -2,-2 3,-14 z"
             inkscape:connector-curvature="0"
             id="_x31_3215"
             style="fill:#f6bad3;stroke:#000000;stroke-width:0.25;stroke-linejoin:round;stroke-miterlimit:4;stroke-dasharray:none" />
        </g>
      </a>
      <a
         xlink:href="http://ja.wikipedia.org/wiki/福生市"
         id="a246"
         style="stroke-width:0.25;stroke-miterlimit:4;stroke-dasharray:none">
        <g
           id="use248"
           style="stroke-width:0.25;stroke-miterlimit:4;stroke-dasharray:none">
          <path
             d="m 330,184 1,-3 9,-2 2,-3 -1,-10 5,-3 -4,-6 -4,-2 2,6 -5,-5 -3,1 1,-4 -14,-5 -8,8 4,13 7,5 1,15 2,-1 z"
             inkscape:connector-curvature="0"
             id="_x31_3218"
             style="fill:#f6bad3;stroke:#000000;stroke-width:0.25;stroke-linejoin:round;stroke-miterlimit:4;stroke-dasharray:none" />
        </g>
      </a>
      <a
         xlink:href="http://ja.wikipedia.org/wiki/狛江市"
         id="a250"
         style="stroke-width:0.25;stroke-miterlimit:4;stroke-dasharray:none">
        <g
           id="use252"
           style="stroke-width:0.25;stroke-miterlimit:4;stroke-dasharray:none">
          <path
             d="m 522,277 v -4 l 3,-4 -7,-13 2,-5 -10,-5 -7,4 -2,14 8,8 z"
             inkscape:connector-curvature="0"
             id="_x31_3219"
             style="fill:#f6bad3;stroke:#000000;stroke-width:0.25;stroke-linejoin:round;stroke-miterlimit:4;stroke-dasharray:none" />
        </g>
      </a>
      <a
         xlink:href="http://ja.wikipedia.org/wiki/東大和市"
         id="a254"
         style="stroke-width:0.25;stroke-miterlimit:4;stroke-dasharray:none">
        <g
           id="use256"
           style="stroke-width:0.25;stroke-miterlimit:4;stroke-dasharray:none">
          <path
             d="m 373,141 10,3 -1,10 3,1 3,14 9,3 11,-6 8,-1 -4,-16 -5,-9 1,-3 -2,-3 -14,4 -12,-3 -10,5 z"
             inkscape:connector-curvature="0"
             id="_x31_3220"
             style="fill:#f6bad3;stroke:#000000;stroke-width:0.25;stroke-linejoin:round;stroke-miterlimit:4;stroke-dasharray:none" />
        </g>
      </a>
      <a
         xlink:href="http://ja.wikipedia.org/wiki/清瀬市"
         id="a258"
         style="stroke-width:0.25;stroke-miterlimit:4;stroke-dasharray:none">
        <g
           id="use260"
           style="stroke-width:0.25;stroke-miterlimit:4;stroke-dasharray:none">
          <path
             d="m 466,138 4,-6 16,-7 1,-8 -5,-3 7,-11 -4,-4 -15,17 -6,1 -13,9 -1,2 1,2 3,8 -3,3 6,1 z"
             inkscape:connector-curvature="0"
             id="_x31_3221"
             style="fill:#f6bad3;stroke:#000000;stroke-width:0.25;stroke-linejoin:round;stroke-miterlimit:4;stroke-dasharray:none" />
        </g>
      </a>
      <a
         xlink:href="http://ja.wikipedia.org/wiki/東久留米市"
         id="a262"
         style="stroke-width:0.25;stroke-miterlimit:4;stroke-dasharray:none">
        <g
           id="use264"
           style="stroke-width:0.25;stroke-miterlimit:4;stroke-dasharray:none">
          <path
             d="m 487,148 2,-18 -23,8 -9,4 -8,3 -7,14 3,-1 1,3 6,-4 4,3 v 10 l 2,-10 1,4 h 4 v -3 3 l 1,-3 3,2 h 2 l -1,6 9,-7 -3,-3 4,-1 z"
             inkscape:connector-curvature="0"
             id="_x31_3222"
             style="fill:#f6bad3;stroke:#000000;stroke-width:0.25;stroke-linejoin:round;stroke-miterlimit:4;stroke-dasharray:none" />
        </g>
      </a>
      <a
         xlink:href="http://ja.wikipedia.org/wiki/武蔵村山市"
         id="a266"
         style="stroke-width:0.25;stroke-miterlimit:4;stroke-dasharray:none">
        <g
           id="use268"
           style="stroke-width:0.25;stroke-miterlimit:4;stroke-dasharray:none">
          <path
             d="m 365,162 -1,-4 9,10 15,1 -3,-14 -3,-1 1,-10 -10,-3 -3,-1 v -3 l -5,2 -4,-3 -1,-2 1,-1 -5,2 -4,-5 -10,27 4,6 18,6 v -2 l 6,2 z"
             inkscape:connector-curvature="0"
             id="_x31_3223"
             style="fill:#f6bad3;stroke:#000000;stroke-width:0.25;stroke-linejoin:round;stroke-miterlimit:4;stroke-dasharray:none" />
        </g>
      </a>
      <a
         xlink:href="http://ja.wikipedia.org/wiki/多摩市"
         id="a270"
         style="stroke-width:0.25;stroke-miterlimit:4;stroke-dasharray:none">
        <g
           id="use272"
           style="stroke-width:0.25;stroke-miterlimit:4;stroke-dasharray:none">
          <path
             d="m 414,283 3,-6 9,-6 v -5 l 5,-3 -2,-11 4,-4 -24,-8 -3,7 -3,-1 -6,7 -8,-5 -1,2 12,14 -12,6 -8,5 -8,12 17,-4 5,5 4,-1 5,3 4,-5 5,1 z"
             inkscape:connector-curvature="0"
             id="_x31_3224"
             style="fill:#f6bad3;stroke:#000000;stroke-width:0.25;stroke-linejoin:round;stroke-miterlimit:4;stroke-dasharray:none" />
        </g>
      </a>
      <a
         xlink:href="http://ja.wikipedia.org/wiki/稲城市"
         id="a274"
         style="stroke-width:0.25;stroke-miterlimit:4;stroke-dasharray:none">
        <g
           id="use276"
           style="stroke-width:0.25;stroke-miterlimit:4;stroke-dasharray:none">
          <path
             d="m 473,254 -4,-3 -7,-5 -7,2 -13,-3 -9,3 -4,4 2,11 -5,3 v 5 l 3,4 5,1 1,6 10,8 8,-1 -4,-11 13,-6 2,-1 2,-5 5,-2 -2,-5 z"
             inkscape:connector-curvature="0"
             id="_x31_3225"
             style="fill:#f6bad3;stroke:#000000;stroke-width:0.25;stroke-linejoin:round;stroke-miterlimit:4;stroke-dasharray:none" />
        </g>
      </a>
      <a
         xlink:href="http://ja.wikipedia.org/wiki/羽村市"
         id="a278"
         style="stroke-width:0.25;stroke-miterlimit:4;stroke-dasharray:none">
        <g
           id="use280"
           style="stroke-width:0.25;stroke-miterlimit:4;stroke-dasharray:none">
          <path
             d="m 333,153 -9,-21 -8,-5 -7,2 -6,-3 -4,-3 -5,6 3,20 11,3 3,4 8,-8 z"
             inkscape:connector-curvature="0"
             id="_x31_3227"
             style="fill:#f6bad3;stroke:#000000;stroke-width:0.25;stroke-linejoin:round;stroke-miterlimit:4;stroke-dasharray:none" />
        </g>
      </a>
      <a
         xlink:href="http://ja.wikipedia.org/wiki/あきる野市"
         id="a282"
         style="stroke-width:0.25;stroke-miterlimit:4;stroke-dasharray:none">
        <g
           id="use284"
           style="stroke-width:0.25;stroke-miterlimit:4;stroke-dasharray:none">
          <path
             d="m 311,156 -3,-4 -11,-3 -6,-6 h -24 l 4,5 12,3 1,9 4,2 -1,8 -15,-1 -15,-6 -13,-1 -9,-4 -2,-7 -15,-9 -9,-1 -1,-7 -13,-8 h -3 v 5 h -3 l -5,-6 v 4 l -3,-2 -5,4 -1,3 8,7 -5,3 v 3 l 7,2 11,15 1,30 5,4 v 12 l 21,1 5,-21 9,-8 24,8 5,-2 10,3 4,-5 17,3 6,-2 1,2 3,-4 5,2 3,-5 8,7 -1,-15 -7,-5 z"
             inkscape:connector-curvature="0"
             id="_x31_3228"
             style="fill:#f6bad3;stroke:#000000;stroke-width:0.25;stroke-linejoin:round;stroke-miterlimit:4;stroke-dasharray:none" />
        </g>
      </a>
      <a
         xlink:href="http://ja.wikipedia.org/wiki/西東京市"
         id="a286"
         style="stroke-width:0.25;stroke-miterlimit:4;stroke-dasharray:none">
        <g
           id="use288"
           style="stroke-width:0.25;stroke-miterlimit:4;stroke-dasharray:none">
          <path
             d="m 471,182 2,2 h 3 v 4 l 6,1 13,-9 h 8 l 3,-27 -5,-11 -5,3 -9,3 -9,10 -4,1 3,3 -9,7 -2,2 z"
             inkscape:connector-curvature="0"
             id="_x31_3229"
             style="fill:#f6bad3;stroke:#000000;stroke-width:0.25;stroke-linejoin:round;stroke-miterlimit:4;stroke-dasharray:none" />
        </g>
      </a>
      <a
         xlink:href="http://ja.wikipedia.org/wiki/瑞穂町"
         id="a290"
         style="stroke-width:0.25;stroke-miterlimit:4;stroke-dasharray:none">
        <g
           id="use292"
           style="stroke-width:0.25;stroke-miterlimit:4;stroke-dasharray:none">
          <path
             d="m 333,153 -1,4 3,-1 5,5 -2,-6 4,2 10,-27 4,5 5,-2 1,-3 -3,-5 -5,1 2,-1 -4,-6 2,-5 -15,-2 -3,-3 -13,3 -3,6 -6,-2 5,8 -3,3 8,5 z"
             inkscape:connector-curvature="0"
             id="_x31_3303"
             style="fill:#ece3b4;stroke:#000000;stroke-width:0.25;stroke-linejoin:round;stroke-miterlimit:4;stroke-dasharray:none" />
        </g>
      </a>
      <a
         xlink:href="http://ja.wikipedia.org/wiki/日の出町"
         id="a294"
         style="stroke-width:0.25;stroke-miterlimit:4;stroke-dasharray:none">
        <g
           id="use296"
           style="stroke-width:0.25;stroke-miterlimit:4;stroke-dasharray:none">
          <path
             d="m 267,143 -6,-6 -13,-2 -8,-5 -8,1 -14,-15 -12,3 -11,7 13,8 1,7 9,1 15,9 2,7 9,4 13,1 15,6 15,1 1,-8 -4,-2 -1,-9 -12,-3 z"
             inkscape:connector-curvature="0"
             id="_x31_3305"
             style="fill:#ece3b4;stroke:#000000;stroke-width:0.25;stroke-linejoin:round;stroke-miterlimit:4;stroke-dasharray:none" />
        </g>
      </a>
      <a
         xlink:href="http://ja.wikipedia.org/wiki/檜原村"
         id="a298"
         style="stroke-width:0.25;stroke-miterlimit:4;stroke-dasharray:none">
        <g
           id="use300"
           style="stroke-width:0.25;stroke-miterlimit:4;stroke-dasharray:none">
          <path
             d="m 202,210 v -12 l -5,-4 -1,-30 -11,-15 -7,-2 v -3 l 5,-3 -8,-7 -4,4 -20,-13 -6,3 -2,4 h -15 l -16,11 -9,2 -2,13 -9,-1 -12,6 1,2 10,17 34,21 9,2 7,4 h 11 l 19,17 17,6 6,-2 z"
             inkscape:connector-curvature="0"
             id="_x31_3307"
             style="fill:#b6f2dc;stroke:#000000;stroke-width:0.25;stroke-linejoin:round;stroke-miterlimit:4;stroke-dasharray:none" />
        </g>
      </a>
      <a
         xlink:href="http://ja.wikipedia.org/wiki/奥多摩町"
         id="a302"
         style="stroke-width:0.25;stroke-miterlimit:4;stroke-dasharray:none">
        <g
           id="use304"
           style="stroke-width:0.25;stroke-miterlimit:4;stroke-dasharray:none">
          <path
             d="m 175,134 1,-3 v -5 l 8,-4 -1,-9 22,-14 2,-24 -9,-10 -2,-7 -3,-6 -9,-6 -36,-4 -14,-7 -6,1 -3,2 -7,-2 -33,-24 -6,2 -7,12 -12,3 -5,-4 -9,5 -17,11 -2,7 1,5 4,5 -1,6 4,7 7,6 6,-1 v 22 l 4,15 8,9 -2,12 7,13 10,5 4,9 1,2 12,-6 9,1 2,-13 9,-2 16,-11 h 15 l 2,-4 6,-3 20,13 z"
             inkscape:connector-curvature="0"
             id="_x31_3308"
             style="fill:#ece3b4;stroke:#000000;stroke-width:0.25;stroke-linejoin:round;stroke-miterlimit:4;stroke-dasharray:none" />
        </g>
      </a>
    </g>
  </g>
</svg>
