<?xml version="1.0" encoding="UTF-8" standalone="no"?>
<!-- Created with Inkscape (http://www.inkscape.org/) -->

<svg
   xmlns:dc="http://purl.org/dc/elements/1.1/"
   xmlns:cc="http://creativecommons.org/ns#"
   xmlns:rdf="http://www.w3.org/1999/02/22-rdf-syntax-ns#"
   xmlns:svg="http://www.w3.org/2000/svg"
   xmlns="http://www.w3.org/2000/svg"
   xmlns:sodipodi="http://sodipodi.sourceforge.net/DTD/sodipodi-0.dtd"
   xmlns:inkscape="http://www.inkscape.org/namespaces/inkscape"
   width="194.17448mm"
   height="200.34267mm"
   viewBox="0 0 194.17448 200.34267"
   version="1.1"
   id="svg7005"
   inkscape:version="0.92.4 (5da689c313, 2019-01-14)"
   sodipodi:docname="dist_yamanashi.svg">
  <defs
     id="defs6999" />
  <sodipodi:namedview
     id="base"
     pagecolor="#ffffff"
     bordercolor="#666666"
     borderopacity="1.0"
     inkscape:pageopacity="0.0"
     inkscape:pageshadow="2"
     inkscape:zoom="0.35"
     inkscape:cx="891.58112"
     inkscape:cy="752.12608"
     inkscape:document-units="mm"
     inkscape:current-layer="layer1"
     showgrid="false"
     fit-margin-top="0"
     fit-margin-left="0"
     fit-margin-right="0"
     fit-margin-bottom="0"
     inkscape:window-width="1511"
     inkscape:window-height="1582"
     inkscape:window-x="1513"
     inkscape:window-y="409"
     inkscape:window-maximized="0" />
  <metadata
     id="metadata7002">
    <rdf:RDF>
      <cc:Work
         rdf:about="">
        <dc:format>image/svg+xml</dc:format>
        <dc:type
           rdf:resource="http://purl.org/dc/dcmitype/StillImage" />
        <dc:title></dc:title>
      </cc:Work>
    </rdf:RDF>
  </metadata>
  <g
     inkscape:label="レイヤー 1"
     inkscape:groupmode="layer"
     id="layer1"
     transform="translate(256.30822,-147.4907)">
    <g
       id="g5049"
       transform="matrix(1.5541885,0,0,1.5541885,198.12257,-253.61393)">
      <g
         transform="matrix(0.26458333,0,0,0.26458333,-296.33333,253.87291)"
         id="g4918"
         style="stroke:#000000;stroke-width:0.2;stroke-linejoin:round">
        <path
           id="path4908"
           d="m 287,385 34,-7 h 9 l 2,1 8,-6 h 1 l 6,-4 3,2 3,-2 v -2 l -17,-11 1,-3 3,-6 -2,-1 -15,-6 v -2 l 2,2 1,-1 v -8 l -1,1 v -2 -1 l 3,-3 2,-9 7,5 5,-2 h 3 l 2,-2 7,-4 v -2 l 5,-1 4,8 -1,3 4,4 2,4 4,3 h 3 l 8,-5 2,-1 -1,-5 3,-11 4,-5 6,-1 7,-5 2,-3 2,-7 h 4 l 7,-2 1,-2 4,-1 v -4 l -1,-3 4,-2 5,-1 25,-1 5,-1 3,3 11,-4 8,-9 v -3 -7 l -2,-1 1,-1 -3,-2 2,-3 2,-1 1,-6 1,-3 -3,-2 4,-3 -6,-4 v -6 l 2,-5 -5,-7 1,-2 3,-5 2,-2 1,-2 -12,-12 -4,-1 -3,1 -5,-2 -6,-1 -22,-13 -7,-11 v -2 l -2,2 -8,13 -10,1 -3,-5 -9,-4 -5,-5 -14,-4 -8,1 -16,7 -3,-2 -1,-5 -3,-5 -9,-3 -4,-7 v -3 l -2,-3 12,-1 3,1 8,-2 3,-2 1,-7 -2,-1 -2,-3 1,-3 -5,-2 3,-5 -4,-3 v -4 l 4,-2 v -2 l 2,-4 -1,-4 v -6 h -2 l -1,-4 -4,-1 -4,1 -4,1 -3,-2 h -1 l -5,2 -3,-4 -8,-4 -1,-10 -5,-5 h -8 l -5,-1 -2,1 -5,-3 -2,1 -3,-3 h -10 l -6,6 h -1 l -4,4 v 1 l -5,13 -7,-3 -2,-1 -4,2 -3,-1 -4,3 -3,-2 -4,2 -2,-1 -5,-4 v -8 l -1,-2 4,-9 h -5 l -6,-6 -4,1 -3,4 -6,-4 -3,1 -2,-2 -7,3 h -5 l -10,-5 -3,6 -3,1 h -1 v 3 l -2,6 -4,-2 -6,2 -5,-5 -3,3 -2,-6 -2,-7 1,-5 3,-6 -2,-4 -4,-4 -11,-5 -12,-3 -7,-4 h -5 l -5,9 v 4 h -2 l -6,5 -1,9 -5,6 -1,4 -12,15 -5,9 -6,7 -8,-6 -2,-4 -6,-6 h -2 l -4,1 -3,5 -3,11 -4,6 -8,15 1,4 -7,8 -3,7 3,4 4,2 3,-1 9,11 5,1 1,3 -1,1 -2,2 -4,2 -7,9 -4,1 -1,4 -8,6 -1,2 7,10 -1,9 1,7 6,5 1,5 5,6 h 5 l 4,-3 9,3 h 13 l 2,-1 13,2 2,4 v 2 l -2,-1 1,5 1,3 -3,4 2,4 -2,1 1,4 2,-1 6,-4 4,3 -1,4 2,4 5,1 3,-1 1,2 6,1 1,-3 4,-2 3,2 h 4 l 5,1 5,-3 v 4 h 4 v 4 l 5,1 4,1 8,-2 5,2 5,4 v 3 l 2,2 4,-4 4,-2 10,-1 3,2 1,-2 v -1 l 5,-4 4,4 2,-2 v 6 l -4,3 2,3 -2,3 2,2 12,4 h 3 l 1,-3 5,-1 6,1 v 3 l -4,7 v 4 l 3,5 v 4 l 4,5 6,1 h 3 l 8,-6 h 4 l 2,-2 14,-2 3,-3 v -2 l 3,-1 3,-3 13,-4 11,-7 7,-1 5,-4 7,1 4,-1 1,-5 v -1 l 3,-1 v 3 l 1,5 4,3 1,2 h 14 l 7,7 h 2 l 2,1 -1,2 3,2 -6,3 1,9 v 4 l -8,2 -3,-6 3,-6 h -2 l -1,-3 -5,-1 -2,-3 h -6 l -2,5 -5,3 -3,4 v 3 l -3,3 2,6 -7,-1 1,2 -2,1 1,-1 -1,2 3,1 2,-2 h 3 l -8,5 -3,7 -2,12 -4,5 -11,12 3,17 -1,9 z m 12,-23 h 1 v 3 z m -99,-130 -5,-1 -5,1 v 5 l -3,-1 -1,-3 -1,2 -2,1 -2,-8 h -3 l -1,-7 10,3 h 1 l -1,-2 3,1 -3,-4 5,-6 2,2 1,-5 2,3 h 2 l -1,2 h 1 l -1,2 h -2 l 3,7 h -2 v 2 2 l 2,1 z"
           inkscape:connector-curvature="0"
           style="fill:#f6bad3" />
        <path
           id="path4910"
           d="m 169,503 4,-4 3,-5 4,-3 v -5 l 3,1 1,-1 3,1 2,-2 v -4 l -3,-6 3,-4 -6,-20 -3,-4 v -3 l 3,-2 1,-8 -5,-11 v -7 l 11,-10 v -7 l -3,-5 1,-16 -1,-2 2,-3 2,-3 -2,-12 10,-9 3,-6 8,-4 2,-2 2,-1 2,5 5,3 6,24 15,-3 2,-2 2,-4 2,-1 v -5 l 7,-2 -3,-7 v -7 l -2,-3 1,-4 4,-14 4,-4 10,-2 6,-3 5,-2 5,4 2,-1 1,3 -4,13 10,4 3,10 4,-5 2,-12 3,-7 8,-5 h -3 l -2,2 -3,-1 1,-2 -1,1 2,-1 -1,-2 7,1 -2,-6 3,-3 v -3 l 3,-4 5,-3 2,-5 h 6 l 2,3 5,1 1,3 h 2 l -3,6 3,6 8,-2 v -4 l -1,-9 6,-3 -3,-2 1,-2 -2,-1 h -2 l -7,-7 h -14 l -1,-2 -4,-3 -1,-5 v -3 l -3,1 v 1 l -1,5 -4,1 -7,-1 -5,4 -7,1 -11,7 -13,4 -3,3 -3,1 v 2 l -3,3 -14,2 -2,2 h -4 l -8,6 h -3 l -6,-1 -4,-5 v -4 l -3,-5 v -4 l 4,-7 v -3 l -6,-1 -5,1 -1,3 h -3 l -12,-4 -2,-2 2,-3 -2,-3 4,-3 v -6 l -2,2 -4,-4 -5,4 v 1 l -1,2 -3,-2 -10,1 -4,2 -4,4 -2,-2 v -3 l -5,-4 -5,-2 -8,2 -4,-1 -5,-1 v -4 h -4 v -4 l -5,3 -5,-1 h -4 l -3,-2 -4,2 -1,3 -6,-1 -1,-2 -3,1 -5,-1 -2,-4 1,-4 -4,-3 -6,4 -2,1 -1,-4 2,-1 -2,-4 3,-4 -1,-3 -1,-5 2,1 v -2 l -2,-4 -13,-2 -2,1 H 52 l -9,-3 -4,3 2,3 -2,8 4,4 -1,3 1,6 h 2 l 1,7 -2,6 1,7 2,2 v 4 l 3,5 h 3 l 1,5 -1,7 v 3 l 3,2 v 2 l 3,6 -5,5 -1,15 -1,7 -2,3 -3,1 -1,5 2,4 4,2 2,8 -1,12 v 3 l -6,5 v 4 l -4,5 -3,8 9,3 2,8 1,8 -4,5 3,4 v 3 l 3,3 h 5 l 6,6 h 1 l 3,-3 3,-4 6,-1 3,-3 5,-3 5,1 6,6 6,-1 v 3 l 4,2 3,6 -3,7 1,7 -1,4 5,10 4,5 3,16 3,12 4,-1 6,1 6,12 4,1 h 4 l 7,-1 6,3 3,-2 5,5 z m 26,-272 5,1 -1,-3 -2,-1 v -2 -2 h 2 l -3,-7 h 2 l 1,-2 h -1 l 1,-2 h -2 l -2,-3 -1,5 -2,-2 -5,6 3,4 -3,-1 1,2 h -1 l -10,-3 1,7 h 3 l 2,8 2,-1 1,-2 1,3 3,1 v -5 z m 104,131 1,3 v -3 z"
           inkscape:connector-curvature="0"
           style="fill:#ece3b4" />
        <path
           id="path4912"
           d="m 287,385 1,-9 1,-9 -3,-17 11,-12 -3,-10 -10,-4 4,-13 -1,-3 -2,1 -5,-4 -5,2 -6,3 -10,2 -4,4 -4,14 -1,4 2,3 v 7 l 3,7 -7,2 v 5 l -2,1 -2,4 -2,2 13,1 3,2 4,21 9,-1 1,-2 9,-2 z m 99,-46 4,-5 5,-5 6,-3 6,-3 3,2 5,-7 h 9 l 4,-3 h 4 l 2,-1 v -2 l 8,-9 1,-7 7,2 3,-1 5,-1 5,-1 2,-4 5,-4 7,-8 -1,-7 -11,4 -3,-3 -5,1 -25,1 -5,1 -4,2 1,3 v 4 l -4,1 -1,2 -7,2 h -4 l -2,7 -2,3 -7,5 -6,1 -4,5 -3,11 1,5 -2,1 -8,5 h -3 l -4,-3 -2,-4 -4,-4 1,-3 -4,-8 -5,1 v 2 l -7,4 -2,2 h -3 l -5,2 -7,-5 -2,9 -3,3 v 1 2 l 1,-1 v 8 l -1,1 -2,-2 v 2 l 15,6 2,1 -3,6 -1,3 17,11 v 2 l 5,6 3,-3 h 4 l 3,-3 11,-6 v -2 l 1,-5 6,-5 v -4 l -2,-3 z m 20,-166 10,-1 8,-13 2,-2 v -1 l -3,-6 h -3 l -4,-3 -4,-8 1,-8 -5,-6 -3,-9 v -15 l -4,1 -4,-4 -3,-4 v -4 l -2,-3 -5,2 h -1 l -3,1 -7,-2 -6,4 -3,4 -1,-1 -3,-3 -3,-1 -5,-6 h -3 v 6 l 1,4 -2,4 v 2 l -4,2 v 4 l 4,3 -3,5 5,2 -1,3 2,3 2,1 -1,7 -3,2 -8,2 -3,-1 -12,1 2,3 v 3 l 4,7 9,3 3,5 1,5 3,2 16,-7 8,-1 14,4 5,5 9,4 z"
           inkscape:connector-curvature="0"
           style="fill:#b6f2dc" />
        <path
           id="path4914"
           d="m 328,82 -1,2 -4,5 v 6 l -7,4 -2,6 1,5 -2,3 1,2 v 9 l 1,4 -4,1 -4,-3 h -3 l -12,1 1,2 -2,1 1,4 h 2 v 2 l -4,12 -2,-3 -4,4 -2,7 -5,5 1,4 -5,9 2,1 v 2 l 4,-1 -1,4 -1,4 2,1 -1,2 2,1 v 1 l -8,7 4,3 v 5 l 3,1 v 5 2 l -2,-1 v 2 l 5,4 -1,-4 2,5 h 1 l 1,2 1,-1 5,1 1,6 5,1 1,3 h 2 l 4,-2 1,11 h 4 l 3,-7 5,-1 6,-3 h 6 l 4,-5 3,1 1,-3 5,-4 h 2 l 3,-5 -2,-14 6,-10 -2,-8 v -8 l 2,-9 m -75,41 h -4 l -8,1 -9,-1 3,-7 -6,-2 -2,-2 -2,1 1,-1 -5,-3 3,-2 -3,-1 -6,-6 -4,-6 -3,-1 -1,-1 3,-2 -2,-2 -2,1 -6,-3 -4,-3 3,-4 -3,-5 2,-1 -1,-4 5,-5 v -2 l 3,-7 3,-2 v -2 l -2,-5 1,-3 4,-3 1,1 3,-2 -1,-2 h 3 l 1,-5 -3,-2 -1,-4 3,-4 2,-10 -2,-4 3,-2 9,-9 1,-3 m -20,3 v 5 l -3,1 h -3 l -2,6 -1,1 h -5 l -2,8 -4,4 -7,-1 -1,1 h -4 v 5 l 1,2 -4,6 -1,4 1,5 -2,4 -3,8 1,7 4,1 h 3 l 1,2 -2,2 v 2 l 4,2 2,4 -3,3 1,1 -3,1 -4,3 1,3 h -2 l -2,5 h -3 l -6,4 v 6 l 5,7 1,3 -1,2 1,2 -3,6 4,5 -2,-1 2,2 -3,1 3,3 m 5,-93 -8,-3 -2,-1 -8,3 1,8 -5,10 -2,2 7,-1 3,3 -2,6 2,2 -5,9 1,4 -7,7 -7,6 -1,-5 h -3 l -5,9 4,8 -2,1 9,7 4,1 1,3 4,20 v 3 l 1,-1 m -4,-82 -5,1 -1,3 -4,5 -10,5 -2,3 -3,3 -6,-10 -5,-10 -4,-3 -4,4 -2,1 h -1 l -2,-4 -16,3 v 2 l 2,2 v 2 l 5,5 -6,-1 -6,1 -3,2 -4,-1 v 5 l -2,4 -3,7 -6,6 -4,1 -6,-2 -2,2 7,8 2,6 1,4 10,5 8,-2 2,-5 h 7 l 4,2 v 2 l 4,-2 1,3 4,2 5,-1 11,7 19,-6 h 5 l 4,-3 M 73,175 h -6 l -8,-6 -3,-5 -3,-1 -7,-2 -4,-3 v -5 l -2,-5 m 191,26 v 3 l 4,5 -2,2 1,2 h -3 l -4,1 5,6 2,6 2,1 v 6 l -2,-1 1,2 5,2 -17,11 -2,10 -1,2 6,-1 v 4 l 1,5 -8,4 -1,3 -1,-2 h -2 v 3 l 10,8 3,-1 3,2 1,3 3,8 -4,5 4,3 4,6 h 3 l 1,5 4,3 v 3 m 159,-120 -2,3 1,2 4,3 3,6 5,3 -1,6 2,1 7,3 5,1 3,8 -4,6 -2,4 4,3 1,9 8,3 h 2 l 10,-2 2,8 -2,2 1,4 v 4 l -2,2 -4,-2 -5,2 -4,-1 -5,2 -3,-2 -1,1 -2,2 h -4 v 6 l 6,5 v 4 l 3,2 h 2 v 1 l -2,3 m -9,-21 -4,-1 -3,2 -3,-1 -1,2 -8,3 -5,1 -2,-1 -2,-8 v -6 l -1,1 -3,-7 -2,1 -3,1 -2,4 -2,-1 -5,4 -4,1 -3,4 h -2 l -4,1 -3,3 -2,-1 -6,2 -12,-5 -7,-1 -13,7 m -106,12 v -3 l -3,-1 -1,-8 -6,-5 -2,-2 1,-5 -3,-1 2,-3 -1,-5 -1,1 -1,-2 v -5 m 118,28 -3,-4 1,-2 -2,-3 h -3 l -3,-1 1,-4 -4,-7 m -127,-11 -2,1 2,16 -7,13 m 183,54 -1,-5 -3,-4 -1,-3 m -251,-52 -2,3 h -3 l -1,2 -4,8 -3,2 1,2 1,8 3,-2 12,2 v 1 l -1,15 5,12 2,2 1,7 3,1 4,5 5,-3 1,-3 5,-2 7,-5 h 3 l 2,2 1,-1 4,2 3,-3 v -2 l 5,-1 5,-5 1,-3 -7,-3 -1,1 -1,-4 1,-6 2,-1 1,2 h 4 v -1 l -1,-2 h 3 -2 l -1,-2 3,-3 4,-9 m 164,8 -4,3 1,6 1,2 m -105,8 -7,1 -12,2 -10,-3 -5,3 -1,3 h -3 l -6,-1 -5,3 2,7 -5,1 -3,1 -3,4 h -7 l -1,4 -3,2 -3,3 h -2 l 1,-6 4,-5 -4,-7 m 67,33 1,-1 -1,-19 6,-3 v -8 l 4,-5 m -108,16 -2,6 -1,11 4,5 h 6 l -3,4 8,5 -2,1 2,2 3,1 3,3 -1,8 -1,3 -6,1 -3,2 -3,2 1,9 -2,8 -5,5 -5,2 -10,-6 -3,4 -1,2 v 5 l -4,9 m 8,-29 v 2 l 4,-2 -1,-6 -2,1 -1,5 m 88,-3 -4,1 -3,-2 -1,5 -3,4 1,3 -6,3 -3,6 -4,1 -1,2 1,6 -2,3 2,2 -1,6 -2,3 h -8 -4 l -1,-5 -11,2 -4,3 -3,-1 -6,7 -8,2 -6,-3 M 412,139 h -10 l -4,-2 -3,1 -2,-3 -6,-3 -7,7 -10,2 -1,1 -4,-2 -5,2 -4,10 -9,4 m 43,178 -7,-6 m -11,5 -7,6 h -8 l -4,2 -3,-4 2,-2 2,-2 -8,-4 -1,7 -7,3 -13,-10"
           inkscape:connector-curvature="0"
           style="fill:none;stroke-linecap:round" />
        <path
           sodipodi:nodetypes="ccccccccccccccccccccccccccccccccccccccccccccccccccccccccccccccccccccccccccccccccccccccccccccccccccccccccc"
           id="path4916"
           d="m 201,178 h -1 l -2,3 4,-1 -2,-1 z m 13,-38 -6,3 v 2 l 3,-1 z m -40,-57 1,-1 h -2 l -1,2 4,1 z m 35,241 -2,7 3,1 2,-2 h 8 l 4,-5 -4,-2 v -4 l -2,-2 -2,2 h -5 l -1,3 2,1 z m 16,-16 1,5 2,-1 -2,-2 1,-1 4,3 -3,-3 v -2 z m -135,50 -2,-1 2,3 -4,1 2,3 1,-3 2,-1 z m 87,72 5,8 -3,-7 z m 174,-77 4,5 h 8 l 5,-3 4,-5 -2,-4 -2,2 v 1 l 2,-2 v 2 l -6,2 -6,-4 -10,-1 -2,3 z m -96,-50 -1,-1 v 2 l 2,1 3,-2 5,5 2,-3 h 4 l 2,-4 -3,-2 z m 46,-14 -1,1 -5,-2 -3,6 -4,1 -1,-1 -1,3 -2,-1 -1,2 -2,-2 -1,4 7,1 4,-5 2,1 4,-2 v 1 l 2,-2 1,2 3,1 1,3 h 3 l 1,-5 h -3 l 2,-3 -1,-2 -3,-2 z"
           inkscape:connector-curvature="0"
           style="fill:#eeeeee" />
      </g>
    </g>
  </g>
</svg>
