<?xml version="1.0" encoding="UTF-8" standalone="no"?>
<!-- Created with Inkscape (http://www.inkscape.org/) -->

<svg
   xmlns:dc="http://purl.org/dc/elements/1.1/"
   xmlns:cc="http://creativecommons.org/ns#"
   xmlns:rdf="http://www.w3.org/1999/02/22-rdf-syntax-ns#"
   xmlns:svg="http://www.w3.org/2000/svg"
   xmlns="http://www.w3.org/2000/svg"
   xmlns:sodipodi="http://sodipodi.sourceforge.net/DTD/sodipodi-0.dtd"
   xmlns:inkscape="http://www.inkscape.org/namespaces/inkscape"
   width="185.26103mm"
   height="135.55852mm"
   viewBox="0 0 185.26103 135.55852"
   version="1.1"
   id="svg7005"
   inkscape:version="0.92.4 (5da689c313, 2019-01-14)"
   sodipodi:docname="dist_kanagawa.svg">
  <defs
     id="defs6999" />
  <sodipodi:namedview
     id="base"
     pagecolor="#ffffff"
     bordercolor="#666666"
     borderopacity="1.0"
     inkscape:pageopacity="0.0"
     inkscape:pageshadow="2"
     inkscape:zoom="0.35"
     inkscape:cx="201.6807"
     inkscape:cy="665.44251"
     inkscape:document-units="mm"
     inkscape:current-layer="layer1"
     showgrid="false"
     fit-margin-top="0"
     fit-margin-left="0"
     fit-margin-right="0"
     fit-margin-bottom="0"
     inkscape:window-width="1511"
     inkscape:window-height="1582"
     inkscape:window-x="1513"
     inkscape:window-y="409"
     inkscape:window-maximized="0" />
  <metadata
     id="metadata7002">
    <rdf:RDF>
      <cc:Work
         rdf:about="">
        <dc:format>image/svg+xml</dc:format>
        <dc:type
           rdf:resource="http://purl.org/dc/dcmitype/StillImage" />
        <dc:title></dc:title>
      </cc:Work>
    </rdf:RDF>
  </metadata>
  <g
     inkscape:label="レイヤー 1"
     inkscape:groupmode="layer"
     id="layer1"
     transform="translate(73.772069,-189.33982)">
    <g
       id="g5041"
       transform="matrix(1.2866578,0,0,1.2866578,358.94622,-360.25417)">
      <path
         style="fill:#dcb6f2;stroke:#000000;stroke-width:0.05291667;stroke-linejoin:round"
         inkscape:connector-curvature="0"
         d="m -221.98541,497.02499 0.52916,-1.05833 1.85209,-0.26458 1.05833,-1.32292 0.52917,0.79375 0.79375,-1.32292 -1.05834,-0.79375 h 0.79375 -0.52916 v -0.52916 l 0.26458,-0.79375 0.52917,-0.26459 0.52916,0.26459 -0.79375,-0.79375 0.52917,-0.26459 0.26458,1.05834 2.11667,-0.52917 v -2.11667 l -0.79375,-1.32291 v -1.32292 h 0.79375 v -1.05833 l -0.26458,-0.52917 -0.79375,0.26458 -1.05834,-1.05833 0.79375,-0.26458 0.79375,-1.32292 -1.05833,-0.79375 -2.11667,1.85208 -0.52916,-0.52916 -0.26459,-0.26459 1.05834,-0.79375 0.52916,-0.26458 -0.52916,-0.52917 0.26458,-0.26458 -0.52917,0.26458 -0.52916,-0.26458 h 0.26458 l -1.05833,0.79375 -0.52917,-1.05833 0.79375,-1.05834 1.32292,0.26459 1.5875,-0.52917 -0.52917,-0.79375 -1.5875,0.52917 -0.52917,-0.79375 0.52917,-0.26459 -0.26458,-0.52916 0.52916,0.79375 1.5875,-0.52917 1.5875,-0.26458 0.79375,1.05833 0.79375,0.26458 0.52917,-0.52916 0.52917,0.52916 -0.52917,0.26459 0.26458,0.26458 h -0.26458 l 0.52917,0.26458 1.5875,-1.5875 -1.32292,1.32292 0.52917,0.79375 1.05833,-1.05833 0.52917,0.52916 -0.26459,-0.26458 1.32292,-1.32292 0.52917,0.52917 -0.52917,1.32292 0.52917,-1.32292 -1.05834,-1.05833 -0.52916,0.79375 -0.79375,-0.26459 v -0.52916 l 0.52916,-0.79375 -0.26458,0.26458 v -0.52917 l -0.26458,0.52917 h -0.26459 l 0.26459,-0.52917 -0.79375,0.26459 0.79375,-0.52917 -0.52917,0.26458 0.26458,-0.26458 -0.52916,-0.79375 0.79375,0.26458 v -1.05833 l 0.26458,0.52917 0.52917,-0.26459 0.79375,-2.38125 -0.79375,-0.52916 -1.05834,2.11666 -0.52916,-0.26458 1.05833,-1.85208 h -0.26458 l -0.52917,0.79375 -0.52917,-0.26459 0.52917,-1.05833 -0.26458,-0.26458 -1.5875,2.64583 v -0.26458 l -1.5875,-1.85209 1.5875,-1.32291 -0.52917,0.52916 -0.26458,-0.52916 -0.52917,0.26458 v -0.52917 l -0.79375,1.05834 -1.05833,-0.52917 0.52916,-1.05833 -0.79375,0.79375 0.26459,-1.32292 h 0.26458 l -0.52917,0.52917 v -0.79375 l -0.52916,0.52916 h -0.79375 l -0.52917,0.52917 1.05833,-1.05833 v -1.05834 l -0.79375,-0.26458 h 0.79375 v -1.05833 l 0.26459,0.52916 v -0.79375 l -0.79375,-0.26458 1.32291,-1.85208 1.05834,-0.26459 -0.26459,0.26459 0.26459,0.26458 h 0.26458 l 0.26458,0.79375 h 1.05834 1.32291 l -0.26458,-1.32292 h 1.32292 l -0.79375,0.52917 0.52916,1.05833 -0.79375,0.26459 v 1.32291 l 2.11667,-1.05833 v -0.79375 l 1.5875,-0.79375 -0.79375,-1.85208 0.26458,-1.05834 0.26459,1.32292 0.26458,-0.52917 0.26458,0.52917 0.79375,-0.26458 -0.52916,0.52916 0.26458,1.32292 1.32292,1.32292 1.05833,1.85208 2.11667,-1.05833 2.64583,-1.32292 -1.05834,-2.11667 0.52917,-0.26458 -0.52917,-1.05833 1.5875,1.85208 2.11667,-1.05833 -0.52917,-0.79375 0.52917,-0.26459 0.52917,0.79375 1.85208,-1.05833 0.79375,-0.52917 -0.52917,-0.79375 h 0.52917 l -2.11667,-0.26458 -0.26458,-1.32292 1.5875,-0.52916 -0.26458,0.52916 0.52916,0.52917 0.79375,-0.79375 1.5875,1.05833 0.52917,-0.79375 -0.52917,-0.26458 1.05834,-1.5875 -6.35,-4.23333 -2.91042,-0.26459 -0.79375,0.79375 -1.32291,-0.52916 -1.32292,1.05833 -2.11667,0.26458 -0.79375,-0.26458 -0.26458,-1.05833 1.05833,-1.05834 v -0.79375 l -3.70416,-1.5875 -0.79375,-1.05833 -1.32292,-3.96875 -0.52917,-0.52917 h -1.32291 l -1.85209,-1.5875 -3.96875,-2.91041 -3.43958,-1.05834 h -1.05833 l -2.91042,-0.79375 -1.05833,-0.79375 0.26458,-0.52916 -0.79375,-0.52917 -1.85208,-0.26458 -0.26459,-0.52917 -3.70416,-1.05833 -0.52917,0.79375 0.26458,1.05833 -1.05833,0.52917 -0.26458,1.05833 -0.52917,0.26458 h -1.32292 l -1.32291,1.05834 0.79375,2.38125 -1.5875,0.26458 -1.5875,-1.85208 h -0.52917 v -1.05834 l -1.32292,-0.26458 -0.52916,-0.79375 -1.85209,1.05833 -0.52916,1.32292 0.79375,1.5875 1.85208,-1.05833 0.79375,1.5875 2.11667,1.32291 0.52916,0.79375 1.05834,0.26459 v 1.32291 l 0.79375,0.26459 1.05833,1.32291 v -0.26458 0.79375 l -0.79375,0.26458 v 0.26459 l -1.5875,1.32291 -1.32292,-1.85208 1.05834,-2.38125 -0.52917,-0.26458 -0.79375,0.79375 -0.79375,-0.26459 -1.05833,2.38125 -0.26459,1.32292 1.05834,0.79375 0.26458,-0.79375 0.52917,0.79375 0.52916,2.11667 -0.26458,1.05833 0.79375,1.32292 v 0.79375 l 0.26458,0.79375 -0.26458,1.5875 h -0.52917 l -0.79375,1.5875 0.26459,0.79375 0.79375,0.52916 -1.32292,0.52917 h -1.32292 l -0.52916,0.79375 1.05833,1.05833 -0.26458,2.64584 0.79375,1.5875 -0.26459,1.5875 1.32292,2.64583 -1.32292,2.38125 0.26459,1.05833 -0.26459,1.32292 0.79375,0.79375 -0.52916,3.43958 0.79375,2.11667 0.79375,0.79375 0.26458,1.05833 1.05833,1.05834 -0.52916,1.05833 -0.52917,2.11667 1.5875,0.52916 1.05833,-2.11666 2.64584,1.32291 1.05833,0.79375 0.52917,-0.26458 0.26458,0.79375 1.85208,-0.52917 0.26459,-1.05833 h 0.26458 l 0.52917,0.52917 -0.26459,0.79375 1.5875,1.5875 h 1.85209 l 0.26458,0.26458 0.52917,1.85208 1.05833,0.26459 1.05833,-0.26459 0.79375,3.175 0.52917,0.26459 v 0.52916 l 1.05833,-0.26458 z m 5.02708,-4.49791 0.79375,0.26458 0.52917,-0.79375 h -1.05834 z m 5.82083,-11.64167 0.52917,0.52917 1.05833,-1.05834 -1.05833,0.79375 z m -3.43958,-9.26042 1.5875,1.5875 1.32292,-2.91041 -0.79375,-0.26459 -0.79375,1.32292 0.26458,0.52917 -0.52917,-0.26459 -0.52916,0.26459 -0.26459,-0.26459 z m 2.38125,-4.23333 0.26458,0.79375 3.43959,2.11667 -0.26459,0.26458 1.32292,-1.32292 -0.52917,-1.32291 -1.5875,1.05833 -0.52916,-0.52917 1.5875,-0.79375 -0.52917,-1.5875 z m -5.29167,-1.5875 0.52917,0.26458 v 0.52917 h 0.52917 l 1.32291,1.05833 v -0.26458 l -0.52916,-0.52917 0.79375,-0.26458 -0.79375,-1.05833 h -0.79375 l -0.26459,0.52916 -0.52916,-0.52916 0.79375,-0.26459 -0.52917,-0.26458 z m -0.26458,-0.26458 0.26458,0.26458 0.52917,-0.79375 -0.26458,-0.26458 z m -74.87708,0 0.26458,-0.52917 0.26458,-1.05833 2.38125,-2.38125 v -0.52917 l 1.85209,-1.5875 1.05833,-0.26458 0.79375,-1.32292 0.79375,-0.26458 0.26458,-1.05834 h 0.79375 l -0.26458,-0.52916 1.32292,-0.79375 -0.79375,-1.05834 0.26458,-0.26458 1.5875,-0.26458 0.52917,0.79375 2.38125,-2.11667 0.26458,-0.79375 1.32292,-0.52917 h 1.32291 l 1.85209,0.79375 0.52916,-1.32291 1.05834,-0.79375 h 1.05833 l 1.32292,1.05833 v 0.26458 l 2.11666,2.11667 1.32292,-0.52917 v -0.52916 l 4.49792,3.175 0.26458,0.26458 1.32292,1.05833 1.85208,0.79375 0.26458,2.64584 -0.52916,2.11666 2.11666,0.26459 0.79375,-1.05834 1.85209,-0.26458 2.64583,-3.43958 1.05833,0.79375 0.26459,0.79375 4.23333,-2.38125 -0.26458,-0.52917 0.52916,-0.79375 v -0.26458 l -0.79375,-1.05834 -0.79375,-0.52916 -0.52916,-1.32292 -1.5875,-0.79375 -1.85209,-2.38125 -1.05833,-0.52917 -1.05833,-2.64583 h -1.05834 l -0.26458,-1.5875 -1.5875,-0.26458 -0.26458,-0.79375 -1.5875,-0.26459 -0.52917,-0.79375 h -0.79375 l -1.32292,-0.79375 h -0.79375 l -2.64583,-1.32291 -1.5875,0.52916 -1.05833,-0.52916 -3.175,0.26458 -1.85209,-1.5875 -1.32291,-0.26458 -2.38125,0.79375 -0.26459,0.26458 -0.26458,1.05833 -1.05833,-0.26458 -1.05834,0.52917 -1.85208,-1.05834 -1.5875,-1.5875 v -1.05833 l -1.5875,-1.05833 0.26458,-0.79375 -0.79375,-1.32292 v -1.5875 l -0.26458,-0.52917 -2.64583,-1.05833 -0.52917,0.26458 -0.52917,0.79375 -1.05833,0.52917 h -0.79375 l -0.52917,-1.05833 -1.05833,-0.26459 h -0.26458 l 0.26458,-1.05833 -0.26458,-0.79375 -0.79375,-1.32292 -1.32292,0.26459 h -1.05833 l -1.5875,-1.05834 h -0.79375 l -0.26459,0.79375 -1.05833,0.79375 -0.52917,0.79375 -0.26458,0.79375 -0.26458,0.52917 1.5875,2.38125 -0.52917,1.5875 v 1.5875 l 1.05833,1.32292 0.52917,0.26458 -1.05833,0.79375 0.79375,0.79375 v 0.79375 l -0.52917,1.85208 -0.79375,0.26459 -0.52917,1.05833 0.26459,0.79375 h 0.52916 l -0.26458,0.26458 0.52917,0.26459 0.26458,2.11666 v 1.05834 l -2.64583,2.91041 v 1.85209 l 0.26458,0.26458 -0.52917,1.32292 -0.52916,-0.26459 -1.05834,1.5875 -1.5875,1.05834 -0.79375,1.32291 h -0.79375 l -0.79375,0.52917 h -1.5875 l 1.5875,2.64583 1.85209,0.52917 0.52916,0.79375 1.05834,0.52917 0.79375,1.5875 1.85208,0.26458 1.85208,-0.26458 0.79375,-1.32292 1.32292,-0.26458 1.05833,0.79375 0.52917,1.05833 1.32292,-0.26458 z m 75.40625,-0.79375 0.79375,0.52916 1.05833,-0.26458 -1.05833,-1.05833 z m 0.79375,-0.79375 0.52916,0.26458 -0.26458,-0.26458 z"
         id="path4970" />
      <path
         style="fill:#f6bad3;stroke:#000000;stroke-width:0.05291667;stroke-linejoin:round"
         inkscape:connector-curvature="0"
         d="m -221.98541,531.42083 0.52916,0.26458 -0.26458,0.26458 0.79375,-0.26458 0.26458,0.52917 0.79375,-0.26459 1.05834,0.52917 h 0.26458 l -0.79375,-0.52917 0.26458,-0.26458 -0.79375,-0.52917 h -0.79375 l -1.32291,-0.26458 0.26458,0.26458 z m 5.02708,-1.05834 -0.26458,0.52917 H -215.9 l 0.52917,-0.79375 0.26458,0.26458 0.79375,0.52917 0.52917,-0.52917 0.26458,0.26459 0.52917,-0.79375 h -0.52917 l -0.26458,-0.52917 0.52917,0.26458 0.52916,-0.52916 0.26459,1.5875 h 0.52916 l -0.26458,-0.52917 0.52917,0.26458 0.52916,0.26459 0.26459,-0.79375 -0.52917,-0.26459 0.79375,-0.52916 h -0.26458 l 0.52916,-0.79375 -0.52916,-1.05834 -1.32292,-0.26458 -1.32292,-0.52917 -0.26458,-2.11666 -0.79375,-0.26459 v -0.52916 -1.5875 l 1.32292,-1.85209 4.23333,-2.91041 5.29167,-0.79375 -0.26459,-1.05834 -1.05833,0.26459 0.26458,-0.79375 h -0.79375 l 0.26459,-0.52917 0.52916,-1.05833 0.79375,0.26458 v 0.52917 h 1.05833 v -1.5875 l -0.79374,-0.26459 -0.79375,-1.5875 -0.26459,-1.05833 0.52917,1.32292 0.52917,0.26458 0.52916,-0.52917 v 0.52917 l 0.79375,-0.26458 0.26458,-1.5875 0.52917,0.26458 0.52917,-0.52917 0.79375,-0.52916 -0.52917,-1.05834 -1.05833,-0.79375 -0.52917,0.26459 -0.26458,-0.79375 -1.05833,0.52916 -1.05834,-0.26458 h -3.43958 l -0.79375,-0.52917 -0.26458,-0.79375 -0.26459,0.26459 -0.52916,-0.79375 0.26458,-0.52917 -1.32292,-0.79375 0.26459,-0.79375 -0.79375,0.26458 v -0.79375 l -0.52917,0.26459 v -0.52917 l 1.5875,-0.26458 -0.52917,-0.79375 0.26459,-0.26459 -1.05834,-1.05833 h -1.85208 l 0.52917,2.11667 -0.79375,-0.52917 -0.26459,0.26458 -0.26458,-0.26458 v 0.52917 l 1.05833,1.05833 -0.26458,0.26458 -1.05833,-0.26458 -0.79375,-0.79375 -0.26459,-0.79375 -0.52916,-1.05833 -0.52917,0.26458 0.26458,-0.26458 -0.52916,0.52916 h -0.52917 l -0.26458,0.26459 v -0.79375 l -0.52917,-0.26459 0.26458,-0.52916 0.79375,0.52916 0.26459,-0.26458 v -0.52917 h 0.26458 l -0.79375,-1.5875 1.32292,0.79375 v -0.79375 H -215.9 l 0.52917,-0.79375 -0.26458,-0.52916 0.26458,-0.26459 0.79375,0.52917 v -0.79375 l 0.79375,-0.26458 v -1.05834 h -2.38125 l -0.79375,-0.26458 -0.26458,0.26458 -0.79375,1.32292 -0.52917,-0.79375 -1.05833,1.32292 -1.85209,0.26458 -0.52916,1.05833 -1.05834,-1.05833 -1.05833,0.26458 v -0.52916 l -0.52917,-0.26459 -0.79375,-3.175 -1.05833,0.26459 -1.05833,-0.26459 -0.52917,-1.85208 -0.26458,-0.26458 h -1.85209 l -1.5875,-1.5875 0.26459,-0.79375 -0.52917,-0.52917 h -0.26458 l -0.26459,1.05833 -1.85208,0.52917 -0.26458,-0.79375 -0.52917,0.26458 -1.05833,-0.79375 -2.64584,-1.32291 -1.05833,2.11666 -1.5875,-0.52916 0.52917,-2.11667 0.52916,-1.05833 -1.05833,-1.05834 -0.26458,-1.05833 -0.79375,-0.79375 -0.79375,-2.11667 0.52916,-3.43958 -0.79375,-0.79375 0.26459,-1.32292 -0.26459,-1.05833 1.32292,-2.38125 -1.32292,-2.64583 0.26459,-1.5875 -0.79375,-1.5875 0.26458,-2.64584 -1.05833,-1.05833 0.52916,-0.79375 -0.79375,-3.175 -1.05833,-0.26458 -4.23333,2.38125 -0.26459,-0.79375 -1.05833,-0.79375 -2.64583,3.43958 -1.85209,0.26458 -0.79375,1.05834 -2.11666,-0.26459 0.52916,-2.11666 -0.26458,-2.64584 -1.85208,-0.79375 -1.32292,-1.05833 -0.26458,-0.26458 -0.52917,0.79375 0.52917,0.79375 -1.05834,0.52916 0.52917,1.5875 -0.52917,0.52917 v 1.32292 h -0.79375 l -1.85208,-1.32292 h -1.32292 l -1.05833,-0.52917 v -0.79375 l -1.05833,-1.85208 -1.85209,0.26458 -1.85208,1.5875 h -1.05833 l -0.26459,1.05834 2.11667,5.02708 1.32292,0.52917 0.26458,0.79375 -1.05833,2.38125 -0.52917,-0.26459 -0.26458,0.52917 h -2.64584 l -0.79375,-0.26458 -2.11666,0.52916 -1.32292,-0.52916 -1.32292,0.52916 0.26459,0.52917 -1.5875,0.79375 v -0.79375 l -2.38125,-0.79375 -1.5875,0.26458 -0.26459,1.05834 -0.79375,0.79375 -0.79375,-0.26459 -1.85208,0.79375 -0.52917,-0.79375 -2.11666,-0.52916 -1.32292,1.5875 -2.11667,0.26458 v 0.52917 1.32291 l 1.05834,2.91042 -0.52917,2.11667 0.79375,0.79375 v 0.79375 l 0.52917,1.05833 -1.32292,1.32292 v 1.32291 l 0.26458,0.79375 1.85209,2.64584 0.26458,1.5875 1.5875,-0.52917 0.52917,1.32292 1.05833,1.05833 1.05833,-1.32292 0.26459,0.26459 0.26458,-0.52917 h 1.32292 l 0.52916,-1.05833 h 1.32292 l 1.32292,1.5875 0.52916,-0.26459 1.85209,0.26459 1.85208,-0.79375 1.05833,0.26458 -2.11666,1.5875 0.26458,2.11667 h 0.79375 l 0.52917,1.05833 0.26458,0.26458 1.32292,-0.52916 0.79375,-0.52917 3.175,0.26458 v 0.52917 l 1.85208,-0.26458 -0.26458,1.32291 2.38125,0.52917 -0.52917,0.52917 2.11667,-0.52917 v -0.52917 l 0.79375,-0.26458 v -0.52917 l 0.52916,0.79375 h 1.05834 v 0.26459 l -0.79375,0.52916 0.26458,1.5875 3.43958,-0.52916 2.38125,0.26458 0.52917,-0.52917 0.52917,0.26459 h 3.70416 l 1.05834,-0.52917 1.32291,0.26458 0.52917,0.26459 1.05833,-0.52917 2.38125,-0.26458 2.91042,0.26458 3.175,1.05833 1.05833,1.5875 -1.32291,0.79375 0.52916,0.52917 1.5875,-0.26458 -0.79375,-0.79375 1.05834,-1.05834 0.52916,0.52917 h 1.85209 l 3.43958,0.79375 0.79375,-0.52917 0.52917,-0.79375 1.05833,-0.26458 1.32292,0.79375 0.52916,1.05833 -0.26458,0.26459 0.26458,0.79375 0.79375,-0.26459 v 0.79375 l 1.5875,-0.52916 0.52917,0.26458 0.52917,1.05833 -0.79375,0.52917 0.79375,0.52917 0.79375,-1.05834 0.79375,0.26459 0.79375,-0.79375 2.11666,-0.26459 1.32292,0.52917 -0.26458,1.05833 -2.11667,0.52917 0.26458,0.79375 h 1.32292 l 1.05833,-0.26458 1.05834,0.52916 0.52916,-0.26458 v -0.52917 h 0.79375 l 0.79375,1.05834 1.5875,0.26458 -0.52916,0.52917 -0.26459,1.05833 0.52917,0.26458 -1.05833,0.26459 -1.05834,1.05833 -1.05833,-0.26458 v -0.52917 l -0.52917,-0.26458 -0.79375,0.79375 h -1.32291 l -0.79375,0.52916 -3.70417,0.26459 1.5875,0.52916 2.11667,2.38125 v 0.79375 l 0.79375,0.52917 v 1.5875 h 1.32291 l 1.05834,0.52917 h 0.26458 l 0.52917,0.52916 -0.26459,0.52917 0.26459,-0.52917 0.52916,0.26459 v 0.79375 l -1.05833,1.05833 -1.85208,-0.52917 0.26458,0.79375 h -0.79375 l 0.26458,0.26459 -0.52916,0.26458 0.26458,0.79375 -0.79375,0.26458 -0.26458,0.79375 h 1.32291 l 0.26459,0.79375 h 1.05833 v 0.79375 l 0.79375,0.26459 -0.79375,0.26458 h -0.26458 l 1.05833,1.5875 -0.79375,0.52917 0.26458,0.52916 v 0.52917 l 2.11667,0.52917 -0.79375,0.26458 -0.52917,-0.26458 -1.05833,0.26458 -0.79375,-0.26458 v 1.05833 l 0.79375,-0.26458 0.52917,0.26458 -0.79375,-0.26458 v 0.26458 l 0.79375,0.79375 h -1.5875 v -0.52917 l -0.26459,0.26459 v 0.26458 l 0.52917,0.52917 0.52917,-0.26459 v 0.52917 l 0.26458,-0.26458 -0.26458,0.52916 0.52916,0.26459 -1.05833,0.52916 -0.26458,0.79375 0.52916,-0.26458 h 0.52917 v 0.52917 l 0.26458,-0.52917 0.26459,0.52917 0.79375,-0.79375 -0.52917,0.79375 1.32292,0.26458 0.26458,0.26458 -0.26458,-0.26458 0.26458,-0.52917 1.05833,-0.26458 z m -79.90417,-7.40833 v -0.79375 l 0.52917,-1.32292 -0.52917,-0.52916 0.26459,-1.32292 0.52916,-1.32292 0.26459,-5.02708 0.79375,-1.32292 -0.26459,-0.26458 h 0.52917 l 3.43958,-2.64583 1.85209,-1.05834 3.70416,-3.43958 4.23334,-1.85208 v -0.79375 l 0.52916,0.26458 -0.26458,-1.85208 0.52917,-0.52917 -0.26459,-1.85208 0.26459,-0.79375 -0.79375,-1.05834 -1.5875,0.79375 -1.5875,-0.26458 -0.26459,0.52917 -1.32291,0.79375 v 0.79375 -1.05834 l -1.5875,-1.05833 -1.05834,-1.05833 -1.05833,-1.32292 -1.5875,0.52917 -0.79375,2.11666 -0.26458,-0.52916 -0.26459,0.52916 -1.05833,0.52917 h -1.05833 l -0.79375,-1.85208 h -1.05834 l -0.26458,0.79375 -0.79375,0.26458 -1.32292,-0.52917 -1.05833,-3.70416 -1.05833,-0.79375 0.79375,-1.5875 h -0.26459 l -1.5875,0.26458 -0.79375,0.79375 -0.79375,-0.79375 -0.79375,0.26458 -1.05833,-0.26458 -1.5875,0.52917 -1.5875,-0.79375 h -1.05833 l -0.52917,0.52916 v 0.79375 l -2.11667,0.52917 -1.05833,1.05833 0.26458,0.79375 -2.11666,0.52917 -0.26459,1.32292 -1.05833,1.85208 0.26458,0.52917 -1.05833,3.43958 v 0.52917 l 1.05833,1.5875 2.38125,0.79375 0.52917,0.79375 2.38125,-1.5875 h 0.79375 l 1.5875,1.85208 0.79375,3.175 0.52917,0.26458 -1.5875,1.32292 1.32291,1.05833 0.52917,0.52917 0.52917,-0.52917 1.5875,1.5875 1.05833,-0.79375 0.26458,-1.05833 1.32292,0.79375 h 3.175 l -0.79375,1.85208 v 0.52917 l -2.11667,0.26458 -2.11666,1.5875 -0.52917,0.79375 -0.52917,2.11667 -0.79375,0.52917 0.26459,0.79375 1.85208,0.52916 0.52917,0.79375 1.5875,0.52917 h 0.26458 l 3.175,0.79375 1.05833,0.79375 z m 73.81875,-8.46667 0.52917,0.26459 -0.26458,-0.52917 z m 14.2875,-12.17083 0.52917,-0.52917 -0.26458,-0.26458 z m -7.67291,-3.175 0.79375,1.32292 0.52916,-0.52917 -0.26458,-0.26458 0.79375,-0.52917 -0.79375,-1.32292 z m -42.8625,-17.99167 -0.26459,-1.32291 h 3.70417 l -0.26458,0.52916 0.52916,0.26459 -0.26458,1.32291 h 1.32292 l -0.79375,1.05834 1.05833,1.32291 -0.79375,1.5875 -0.79375,1.05834 v 2.38125 l -3.96875,0.26458 0.26458,-2.11667 -0.52916,-0.26458 0.79375,-5.02708 z"
         id="path4972" />
      <path
         style="fill:#ece3b4;stroke:#000000;stroke-width:0.05291667;stroke-linejoin:round"
         inkscape:connector-curvature="0"
         d="m -295.80416,526.92291 v -0.79375 h -0.52917 l 0.79375,-1.32292 -1.32292,-1.85208 h -0.79375 l -1.05833,-0.79375 -3.175,-0.79375 h -0.26458 l -1.5875,-0.52917 -0.52917,-0.79375 -1.85208,-0.52916 -0.26459,-0.79375 0.79375,-0.52917 0.52917,-2.11667 0.52917,-0.79375 2.11666,-1.5875 2.11667,-0.26458 v -0.52917 l 0.79375,-1.85208 h -3.175 l -1.32292,-0.79375 -0.26458,1.05833 -1.05833,0.79375 -1.5875,-1.5875 -0.52917,0.52917 -0.52917,-0.52917 -1.32291,-1.05833 1.5875,-1.32292 -0.52917,-0.26458 -0.79375,-3.175 -1.5875,-1.85208 h -0.79375 l -2.38125,1.5875 -0.52917,-0.79375 -2.38125,-0.79375 -1.05833,-1.5875 -1.05833,0.26458 -0.79375,0.79375 -2.64584,3.96875 -0.26458,1.32292 v 1.85208 l 0.52917,1.5875 -0.26459,0.79375 0.52917,0.52917 v 0.79375 l 0.52917,1.05833 -0.26459,1.05833 1.05834,1.32292 v 1.85208 l 1.5875,1.32292 0.52916,0.79375 1.05834,1.32292 0.79375,0.26458 h 0.26458 1.05833 l 0.79375,1.32292 v 0.52916 l 0.26459,0.52917 v 1.5875 l -0.26459,0.26458 0.79375,0.79375 -0.52916,0.26459 0.26458,1.05833 1.5875,-0.26458 3.96875,1.32291 1.32292,-0.26458 2.64583,1.05833 2.38125,-0.26458 h 1.05833 l 1.5875,-1.5875 h 2.11667 l 0.26458,0.26458 1.05834,0.79375 1.32291,0.52917 0.26459,0.26458 0.26458,-0.26458 h 0.79375 l -0.52917,-1.05833 h -1.05833 l -0.26458,-0.52917 -1.05834,-0.52917 0.26459,-0.26458 0.26458,0.26458 z m 68.52708,-18.52083 3.70417,-0.26459 0.79375,-0.52916 h 1.32291 l 0.79375,-0.79375 0.52917,0.26458 v 0.52917 l 1.05833,0.26458 1.05834,-1.05833 1.05833,-0.26459 -0.52917,-0.26458 0.26459,-1.05833 0.52916,-0.52917 -1.5875,-0.26458 -0.79375,-1.05834 h -0.79375 v 0.52917 l -0.52916,0.26458 -1.05834,-0.52916 -1.05833,0.26458 h -1.32292 l -0.26458,-0.79375 2.11667,-0.52917 0.26458,-1.05833 -1.32292,-0.52917 -2.11666,0.26459 -0.79375,0.79375 -0.79375,-0.26459 -0.79375,1.05834 -0.79375,-0.52917 -0.52917,0.26458 0.79375,0.79375 v 1.05834 l -0.26458,0.26458 0.26458,0.52917 -0.52917,0.52916 1.32292,0.79375 v 0.52917 l 0.52917,0.79375 z m -48.68333,-8.46667 6.61458,-1.5875 h 1.32292 v -0.52917 l 1.85208,-0.79375 -0.26458,-1.5875 0.79375,-0.52916 v -0.26459 H -266.7 l -0.52916,-0.79375 v 0.52917 l -0.79375,0.26458 v 0.52917 l -2.11667,0.52917 0.52917,-0.52917 -2.38125,-0.52917 0.26458,-1.32291 -1.85208,0.26458 v -0.52917 l -3.175,-0.26458 -0.79375,0.52917 -1.32292,0.52916 -0.26458,-0.26458 -0.52917,-1.05833 h -0.79375 l -0.26458,-2.11667 2.11666,-1.5875 -1.05833,-0.26458 -1.85208,0.79375 -1.85209,-0.26459 -0.52916,0.26459 -1.32292,-1.5875 h -1.32292 l -0.52916,1.05833 h -1.32292 l -0.26458,0.52917 -0.26459,-0.26459 -1.05833,1.32292 -1.05833,-1.05833 -0.52917,-1.32292 -1.5875,0.52917 -0.26458,-1.5875 -1.85209,-2.64584 -0.26458,-0.79375 v -1.32291 l 1.32292,-1.32292 -0.52917,-1.05833 v -0.79375 l -0.79375,-0.79375 0.52917,-2.11667 -1.05834,-2.91042 v -1.32291 -0.52917 l 2.11667,-0.26458 1.32292,-1.5875 0.52916,-2.11667 -0.52916,-1.85208 -0.79375,-0.79375 -1.32292,0.26458 -0.52917,-1.05833 -1.05833,-0.79375 -1.32292,0.26458 -0.79375,1.32292 -1.85208,0.26458 -1.85208,-0.26458 -0.79375,-1.5875 -1.05834,-0.52917 -0.52916,-0.79375 -1.85209,-0.52917 -1.5875,-2.64583 -0.79375,0.52917 -1.32291,-0.79375 -1.05834,0.26458 -0.26458,2.11667 -1.05833,1.5875 -1.05834,0.26458 -0.26458,0.79375 -0.26458,0.79375 -0.79375,0.26458 h -1.32292 l -1.05833,1.05834 h -2.91042 l -1.5875,2.11666 -0.79375,-0.79375 -0.79375,0.79375 -1.32292,0.26459 -1.85208,1.05833 -1.85208,1.32292 -1.05834,1.85208 -0.52916,1.32292 0.52916,1.32291 v 1.05834 h -0.52916 l -0.26459,1.05833 -1.05833,0.79375 -0.52917,1.32292 0.26459,0.79375 4.23333,0.26458 1.32292,-0.52917 h 1.5875 l 1.5875,-0.79375 1.32291,0.26459 0.52917,0.52916 1.5875,-0.26458 0.79375,0.26458 0.52917,0.52917 -0.52917,2.91042 0.79375,1.32291 0.26458,0.26459 0.26459,2.91041 0.79375,0.52917 -0.79375,1.5875 0.52916,2.11667 0.52917,1.05833 0.52917,0.79375 2.11666,-0.52917 -0.26458,-0.79375 1.05833,-1.05833 2.11667,-0.52917 v -0.79375 l 0.52917,-0.52916 h 1.05833 l 1.5875,0.79375 1.5875,-0.52917 1.05833,0.26458 0.79375,-0.26458 0.79375,0.79375 0.79375,-0.79375 1.5875,-0.26458 h 0.26459 l -0.79375,1.5875 1.05833,0.79375 1.05833,3.70416 1.32292,0.52917 0.79375,-0.26458 0.26458,-0.79375 h 1.05834 l 0.79375,1.85208 h 1.05833 l 1.05833,-0.52917 0.26459,-0.52916 0.26458,0.52916 0.79375,-2.11666 1.5875,-0.52917 1.05833,1.32292 1.05834,1.05833 1.5875,1.05833 v 1.05834 -0.79375 l 1.32291,-0.79375 0.26459,-0.52917 1.5875,0.26458 1.5875,-0.79375 0.79375,1.05834 -0.26459,0.79375 0.26459,1.85208 -0.52917,0.52917 0.26458,1.85208 -0.52916,-0.26458 v 0.79375 l 2.91041,-1.32292 z m 20.10833,-12.96458 0.79375,-1.05834 0.79375,-1.5875 -1.05833,-1.32291 0.79375,-1.05834 h -1.32292 l 0.26458,-1.32291 -0.52916,-0.26459 0.26458,-0.52916 h -3.70417 l 0.26459,1.32291 v 1.05834 l -0.79375,5.02708 0.52916,0.26458 -0.26458,2.11667 3.96875,-0.26458 z m -6.61458,-31.75 -4.49792,-3.175 v 0.52916 l -1.32292,0.52917 -2.11666,-2.11667 v -0.26458 l -1.32292,-1.05833 h -1.05833 l -1.05834,0.79375 -0.52916,1.32291 -1.85209,-0.79375 h -1.32291 l -1.32292,0.52917 -0.26458,0.79375 -0.52917,1.5875 1.32292,2.38125 1.32291,0.79375 0.26459,1.5875 1.05833,0.52917 h 1.05833 l 0.26459,-1.05834 h 1.05833 l 1.85208,-1.5875 1.85209,-0.26458 1.05833,1.85208 v 0.79375 l 1.05833,0.52917 h 1.32292 l 1.85208,1.32292 h 0.79375 v -1.32292 l 0.52917,-0.52917 -0.52917,-1.5875 1.05834,-0.52916 -0.52917,-0.79375 z"
         id="path4974" />
      <path
         style="fill:#b6f2dc;stroke:#000000;stroke-width:0.05291667;stroke-linejoin:round"
         inkscape:connector-curvature="0"
         d="m -284.69166,468.18541 2.38125,0.79375 v 0.79375 l 1.5875,-0.79375 -0.26459,-0.52917 1.32292,-0.52916 1.32292,0.52916 2.11666,-0.52916 0.79375,0.26458 h 2.64584 l 0.26458,-0.52917 0.52917,0.26459 1.05833,-2.38125 -0.26458,-0.79375 -1.32292,-0.52917 -2.11667,-5.02708 h -1.05833 l -1.05833,-0.52917 -0.26459,-1.5875 -1.32291,-0.79375 -1.32292,-2.38125 0.52917,-1.5875 -2.38125,2.11667 -0.52917,-0.79375 -1.5875,0.26458 -0.26458,0.26458 0.79375,1.05834 -1.32292,0.79375 0.26458,0.52916 h -0.79375 l -0.26458,1.05834 -0.79375,0.26458 -0.79375,1.32292 -1.05833,0.26458 -1.85209,1.5875 v 0.52917 l -2.38125,2.38125 -0.26458,1.05833 -0.26458,0.52917 0.52916,1.85208 -0.52916,2.11667 2.11666,0.52916 0.52917,0.79375 1.85208,-0.79375 0.79375,0.26459 0.79375,-0.79375 0.26459,-1.05834 z"
         id="path4976" />
      <path
         style="fill:none;stroke:#000000;stroke-width:0.05291667;stroke-linecap:round;stroke-linejoin:round"
         inkscape:connector-curvature="0"
         d="m -203.72916,466.33333 -3.43959,-6.61459 -0.79375,0.26459 -0.52916,-1.5875 -1.32292,-2.64584 0.26458,-0.26458 -0.79375,-0.79375 0.26459,-1.85208 -1.5875,-0.26459 v 0.79375 h -0.79375 l -0.52917,0.79375 -1.85208,-1.05833 -0.26459,-0.52917 0.79375,-2.64583 h -0.26458 l -1.32292,-1.05833 -0.79375,0.26458 -1.5875,-0.52917 -3.175,0.26459 -0.52916,-0.79375 -1.5875,-0.26459 v -0.26458 l -3.70417,-0.26458 -0.79375,-0.52917 H -228.6 l -0.52916,-1.32292 -1.85209,-1.85208 -2.11666,-0.79375 -2.11667,-0.26458 0.52917,2.11666 -0.79375,1.05834 -0.52917,1.05833 -1.32292,0.79375 -1.05833,-1.5875 m -5.82083,1.05833 2.11666,-0.26458 m -1.5875,28.575 h -0.79375 l -0.26458,-1.05833 -0.26458,0.26458 0.26458,0.79375 -0.79375,0.26458 -0.26458,-0.52916 -1.85209,-0.52917 0.26459,-3.43958 0.79375,-1.32292 v -0.79375 l -0.52917,-2.11667 h -2.38125 l -0.26458,-1.85208 0.79375,-0.52917 -1.5875,-5.29166 m -8.73125,2.91041 0.79375,4.23334 3.70416,-0.52917 2.91042,0.79375 2.11667,-1.5875 m -9.525,16.13958 h -2.38125 l -0.52917,-1.85208 v 2.11667 l -1.05833,-2.38125 -0.26459,-2.11667 -2.64583,-1.5875 -0.52917,-0.79375 h -0.79375 l -0.26458,1.05833 h -0.79375 l -1.85208,-1.05833 -0.26459,-1.05833 -0.52916,-0.52917 -0.52917,0.26458 -1.05833,-1.05833 -4.49792,-1.05833 -2.64583,-0.26459 -0.52917,1.05834 -1.32292,0.26458 v -1.32292 l -0.52916,-0.79375 v -0.26458 m 34.66041,4.7625 -0.52916,0.26458 1.85208,1.85209 v 0.79375 l 0.26458,0.26458 -0.52916,0.26458 -0.79375,0.52917 h -1.05834 v -1.05833 l -1.32291,-1.05834 -1.32292,-0.26458 -0.26458,0.79375 -1.85209,-0.52917 0.26459,0.52917 -1.05834,1.5875 -0.52916,1.05833 -0.79375,0.26459 h -0.52917 m 6.35,-12.96459 -2.11667,0.26459 -0.26458,-0.26459 -1.05833,1.32292 0.26458,0.79375 h -1.05833 L -254,470.56666 h -0.79375 l 0.79375,1.05833 0.52917,2.64584 -0.52917,4.23333 m -4.49791,-12.17083 v 2.11666 l -1.32292,2.11667 0.79375,2.11667 -1.05833,6.08541 0.52916,1.05834 m -22.225,-7.67292 v 1.5875 l 1.05834,2.11667 v 0.79375 l 1.32291,0.79375 1.32292,1.85208 0.52917,1.05833 -1.32292,1.32292 0.26458,1.85208 3.70417,-0.79375 2.38125,0.79375 1.5875,0.26459 0.52917,-1.5875 v 1.05833 l 1.5875,1.05833 0.52916,1.32292 0.79375,0.26458 -0.26458,-2.64583 0.79375,0.79375 0.26458,-0.52917 h 1.05834 l 0.26458,-0.52916 1.32292,0.79375 0.26458,-1.5875 h 0.52917 l -0.26459,1.85208 1.32292,-1.05833 0.26458,-1.32292 -0.26458,-0.26458 m -10.31875,2.11666 0.26458,1.5875 h -1.32291 l -1.32292,0.26459 -1.32292,3.175 -2.38125,0.26458 m 29.36875,6.87917 1.05834,-2.38125 v -1.85209 l -1.32292,-3.70416 0.79375,-1.5875 h -1.32292 v -1.05834 l -0.26458,0.79375 -0.26458,-0.26458 0.52916,-1.5875 -0.26458,-1.05833 h -2.38125 l -1.5875,1.32291 m 14.2875,3.96875 1.32292,0.26459 v 1.05833 l 0.79375,-0.26458 0.52916,0.79375 -0.52916,1.05833 1.05833,-0.26458 0.26458,0.52916 -1.32291,1.32292 -1.05834,0.26458 -0.79375,1.5875 v 0.79375 l -1.32291,2.38125 m -57.15,-1.85208 0.26458,0.26458 -0.26458,-0.26458 m 38.36458,-6.35 -0.26458,2.11667 1.05833,0.26458 -0.79375,0.52917 -0.26458,2.38125 0.79375,1.5875 m 34.66041,-1.05834 h -0.79375 l -0.52916,0.79375 -2.38125,0.79375 -0.26459,0.52917 -1.32291,0.52917 -0.52917,0.52916 -0.52917,0.79375 m -66.93958,-3.43958 0.52917,1.32292 -0.26459,1.32291 0.52917,2.38125 0.52917,0.52917 -1.32292,-1.05833 0.26458,1.32291 -1.5875,0.26459 v 0.79375 l -0.52916,0.26458 -4.23334,0.52917 -0.79375,0.52916 -2.64583,0.52917 h -1.5875 m 89.16458,-1.32292 -0.26458,-0.52916 0.52917,-0.79375 -0.26459,-1.5875 -2.11666,-3.43959 m 8.73125,23.01875 -0.52917,-0.26458 -0.26458,-1.05833 -0.79375,-0.79375 0.26458,-1.05834 -1.32292,0.52917 -2.38125,0.26458 -0.26458,1.05834 -1.5875,0.52916 -0.79375,1.5875 m -75.14167,-49.47708 -1.85208,-0.26458 -0.26458,0.79375 -1.5875,1.05833 -0.52917,1.05833 -1.32292,0.79375 v 0.79375 l -0.79375,0.79375 0.79375,1.85209 -1.05833,0.52916 v 2.64584 l 1.85208,1.5875 1.5875,0.52916 0.26459,0.79375 1.05833,0.79375 -0.79375,-0.26458 v 1.85208 l -1.32292,1.5875 -0.26458,1.05834 2.38125,1.05833 0.79375,1.85208 1.32292,-0.52916 1.05833,-1.05834 1.5875,-0.26458 0.52917,-0.52917 v -1.05833 l -0.52917,-0.26458 m -7.14375,0.79375 h -0.26458 m 11.64166,5.55625 1.05834,-1.05834 -0.26459,-1.32291 h -0.26458 v -0.79375 l 1.05833,-0.52917 -1.32291,-0.79375 -0.26459,-0.79375 0.26459,-0.26458 m -7.14375,5.55625 -1.32292,-2.64584 m 17.99167,1.32292 -2.38125,1.85208 m 5.55625,4.49792 -0.52917,-3.175 -0.26458,-0.52917 h -1.05834 l -1.05833,-2.38125 m -27.51667,24.87084 -0.52916,-0.26459 -1.32292,1.5875 -2.11667,1.05834 -1.5875,1.85208 -2.38125,0.52917 m 12.17084,-2.11667 3.96875,3.96875 0.26458,0.52917 -0.52917,0.79375 1.5875,2.11666"
         id="path4978" />
      <path
         style="fill:#eeeeee;stroke:#000000;stroke-width:0.05291667;stroke-linejoin:round"
         inkscape:connector-curvature="0"
         d="m -336.28541,477.71041 1.32291,-0.79375 0.79375,-1.32292 -0.52916,-1.32291 -0.52917,0.52916 0.26458,0.52917 0.26459,-0.52917 v 0.52917 l -1.5875,0.26458 z m 15.61041,33.3375 -0.26458,0.52917 v 1.05833 l 0.79375,0.52917 v 1.05833 l 0.79375,0.26458 0.52917,1.32292 -0.52917,0.52917 0.26458,1.32291 1.05834,0.79375 v 0.52917 l 0.52916,0.26458 0.52917,1.5875 h 0.26458 l 0.52917,-0.79375 h 0.79375 v 0.79375 h 0.52917 l 0.52916,-0.52916 -0.52916,-0.79375 0.52916,-0.52917 0.26459,0.52917 0.26458,-1.32292 h -1.05833 l -1.85209,-1.32292 -2.11666,-2.38125 -0.26459,-2.91041 z m 37.04167,-57.41458 -1.05833,0.52916 0.52916,0.26459 -1.05833,1.05833 0.26458,0.52917 h 0.26459 v -0.79375 l 0.52916,0.52916 0.26459,-0.79375 0.52916,0.79375 -0.26458,-1.32291 0.26458,-0.26459 1.05834,1.5875 -0.52917,0.26459 0.26458,0.79375 h 0.52917 v -1.05834 h 0.26458 l 0.26459,1.5875 1.05833,0.26459 0.79375,1.05833 0.79375,0.26458 -1.32292,-1.5875 0.26459,-0.52916 -0.52917,-0.26459 -1.32292,-1.32291 1.05834,0.26458 -0.52917,-0.52917 v -0.52916 l 1.05833,-0.26459 v -0.79375 l 1.05834,-0.52916 v -0.79375 h -1.05834 l 0.26459,0.52916 -0.79375,0.26459 v 0.52916 l -1.05834,0.79375 -0.79375,-0.26458 -0.52916,-0.79375 v 0.52917 z"
         id="path4980" />
    </g>
  </g>
</svg>
